<svg xmlns="http://www.w3.org/2000/svg" width="597" height="597" viewBox="0 0 597 597">
  <g id="Group_283" data-name="Group 283" transform="translate(-1567.606 -973)">
    <circle id="Ellipse_74" data-name="Ellipse 74" cx="298.5" cy="298.5" r="298.5" transform="translate(1567.606 973)" fill="#f2f2f2"/>
    <g id="village" transform="translate(1635 1041)">
      <g id="Group_148" data-name="Group 148" transform="translate(0)">
        <path id="Path_773" data-name="Path 773" d="M461.963,231c2.261,127.578-99.311,231-226.868,231S2.3,358.578.037,231,99.348,0,226.905,0,459.7,103.422,461.963,231Z" transform="translate(0)" fill="#fff9bb"/>
      </g>
      <g id="Group_149" data-name="Group 149" transform="translate(3.121 178.777)">
        <path id="Path_774" data-name="Path 774" d="M431.7,243.129H414.6v-25.04H282.65l-20.273-19.964-31.04,30.567H107.18V207.036H56.439v12.442H41.62L28.43,206.489,3.459,231.079,91.6,254.558,277.84,278.21l183.9-7.833c.45-6.607.685-13.275.565-20.029-.109-6.169-.531-12.263-1.113-18.31H431.7Z" transform="translate(-3.459 -198.125)" fill="#ffeb97"/>
      </g>
      <g id="Group_150" data-name="Group 150" transform="translate(0.347 238.219)">
        <path id="Path_775" data-name="Path 775" d="M18.463,343.406H99.091V264H.385A232.579,232.579,0,0,0,18.463,343.406Z" transform="translate(-0.385 -264)" fill="#fad2a3"/>
      </g>
      <g id="Group_151" data-name="Group 151" transform="translate(0.356 238.328)" opacity="0.25">
        <path id="Path_776" data-name="Path 776" d="M1.017,272.919H84.431v-8.8H.394C.538,267.07.764,270,1.017,272.919Z" transform="translate(-0.394 -264.121)" fill="#ff8562"/>
      </g>
      <g id="Group_152" data-name="Group 152" transform="translate(99.053 166.031)">
        <rect id="Rectangle_24" data-name="Rectangle 24" width="134.377" height="151.594" fill="#fff4db"/>
      </g>
      <g id="Group_153" data-name="Group 153" transform="translate(99.053 166.031)">
        <rect id="Rectangle_25" data-name="Rectangle 25" width="134.377" height="28.875" fill="#f26e64"/>
      </g>
      <g id="Group_154" data-name="Group 154" transform="translate(388.755 260.441)">
        <path id="Path_777" data-name="Path 777" d="M502.626,288.627h-71.8v57.184h57.89A226.513,226.513,0,0,0,502.626,288.627Z" transform="translate(-430.828 -288.627)" fill="#fff4db"/>
      </g>
      <g id="Group_155" data-name="Group 155" transform="translate(272.386 202.125)">
        <rect id="Rectangle_26" data-name="Rectangle 26" width="116.37" height="115.5" fill="#fad2a3"/>
      </g>
      <g id="Group_156" data-name="Group 156" transform="translate(272.386 202.125)" opacity="0.25">
        <rect id="Rectangle_27" data-name="Rectangle 27" width="116.37" height="8.798" fill="#ff8562"/>
      </g>
      <g id="Group_157" data-name="Group 157" transform="translate(179.687 238.219)">
        <rect id="Rectangle_28" data-name="Rectangle 28" width="102.625" height="79.406" fill="#fffcec"/>
      </g>
      <g id="Group_158" data-name="Group 158" transform="translate(47.602 368.156)">
        <path id="Path_778" data-name="Path 778" d="M52.754,408c43.076,56.918,111.291,93.844,187.492,93.844A226.033,226.033,0,0,0,424.41,408Z" transform="translate(-52.754 -408)" fill="#e8a271"/>
      </g>
      <g id="Group_159" data-name="Group 159" transform="translate(28.897 339.281)">
        <path id="Path_779" data-name="Path 779" d="M440.069,376H32.024A236.774,236.774,0,0,0,50.73,404.875H422.387A225.681,225.681,0,0,0,440.069,376Z" transform="translate(-32.024 -376)" fill="#d8c34a"/>
      </g>
      <g id="Group_160" data-name="Group 160" transform="translate(19.335 317.625)">
        <path id="Path_780" data-name="Path 780" d="M21.428,354.21q4.335,9.971,9.561,19.446H439.035a225.492,225.492,0,0,0,9.7-21.656H21.428Z" transform="translate(-21.428 -352)" fill="#e5af7c"/>
      </g>
      <g id="Group_161" data-name="Group 161" transform="translate(19.335 317.625)">
        <path id="Path_781" data-name="Path 781" d="M21.428,354.21c1.132,2.6,2.351,5.162,3.575,7.716H444.6c1.446-3.273,2.841-6.574,4.137-9.926H21.428Z" transform="translate(-21.428 -352)" fill="#d0d75b"/>
      </g>
      <g id="Group_162" data-name="Group 162" transform="translate(201.678 36.198)">
        <path id="Path_782" data-name="Path 782" d="M223.505,66.9A18.893,18.893,0,0,1,242.542,48.15a19.181,19.181,0,0,1,4.578.607A27.208,27.208,0,0,1,294.213,66.9H223.505Z" transform="translate(-223.505 -40.116)" fill="#fff1a9"/>
      </g>
      <g id="Group_163" data-name="Group 163" transform="translate(234.13 49.589)">
        <path id="Path_783" data-name="Path 783" d="M259.469,76.652a15.306,15.306,0,0,1,15.422-15.187,15.553,15.553,0,0,1,3.709.492,22.042,22.042,0,0,1,38.151,14.7Z" transform="translate(-259.469 -54.956)" fill="#fff1a9"/>
      </g>
      <g id="Group_164" data-name="Group 164" transform="translate(374.896 144.072)">
        <path id="Path_784" data-name="Path 784" d="M415.469,176.062a11.569,11.569,0,0,1,11.656-11.479,11.758,11.758,0,0,1,2.8.372,16.66,16.66,0,0,1,28.836,11.107h-43.3Z" transform="translate(-415.469 -159.664)" fill="#fff1a9"/>
      </g>
      <g id="Group_165" data-name="Group 165" transform="translate(147.687 127.446)">
        <path id="Path_785" data-name="Path 785" d="M163.67,157.266a11.307,11.307,0,0,1,11.393-11.219,11.472,11.472,0,0,1,2.74.364,16.283,16.283,0,0,1,28.183,10.856H163.67Z" transform="translate(-163.67 -141.239)" fill="#fff1a9"/>
      </g>
      <g id="Group_166" data-name="Group 166" transform="translate(110.997 71.285)">
        <path id="Path_786" data-name="Path 786" d="M123.01,117.87a27.422,27.422,0,0,1,27.63-27.209,27.851,27.851,0,0,1,6.644.882A39.515,39.515,0,0,1,186.164,79c21.8,0,39.471,17.4,39.471,38.87H123.01Z" transform="translate(-123.01 -79)" fill="#ffeb97"/>
      </g>
      <g id="Group_167" data-name="Group 167" transform="translate(240.773 94.761)">
        <path id="Path_787" data-name="Path 787" d="M362.127,119.454a22.063,22.063,0,0,0-6.578,1.1,36.879,36.879,0,0,0-60.148,0,22.063,22.063,0,0,0-6.578-1.1,21.825,21.825,0,0,0-21.991,21.656H384.117A21.824,21.824,0,0,0,362.127,119.454Z" transform="translate(-266.831 -105.017)" fill="#ffeb97"/>
      </g>
      <g id="Group_168" data-name="Group 168" transform="translate(302.166 94.754)">
        <path id="Path_788" data-name="Path 788" d="M396.909,114.409a14.365,14.365,0,0,0-4.283.714,24.009,24.009,0,0,0-39.158,0,14.366,14.366,0,0,0-4.283-.714,14.21,14.21,0,0,0-14.318,14.1h76.358A14.21,14.21,0,0,0,396.909,114.409Z" transform="translate(-334.868 -105.009)" fill="#ffeb97"/>
      </g>
      <g id="Group_169" data-name="Group 169" transform="translate(65.03 95.711)">
        <path id="Path_789" data-name="Path 789" d="M134.109,115.469a14.366,14.366,0,0,0-4.283.714,24.009,24.009,0,0,0-39.158,0,14.365,14.365,0,0,0-4.283-.714,14.21,14.21,0,0,0-14.317,14.1h76.358A14.211,14.211,0,0,0,134.109,115.469Z" transform="translate(-72.068 -106.069)" fill="#ffeb97"/>
      </g>
      <g id="Group_170" data-name="Group 170" transform="translate(269.484 173.25)">
        <path id="Path_790" data-name="Path 790" d="M393.673,192H325.8l-27.15,28.875H420.822Z" transform="translate(-298.649 -192)" fill="#f26e64"/>
      </g>
      <g id="Group_171" data-name="Group 171" transform="translate(47.602 368.156)">
        <path id="Path_791" data-name="Path 791" d="M61.475,418.828h354.6Q420.4,413.54,424.411,408H52.754Q56.953,413.548,61.475,418.828Z" transform="translate(-52.754 -408)" fill="#d29672"/>
      </g>
      <g id="Group_175" data-name="Group 175" transform="translate(199.846 258.638)">
        <g id="Group_172" data-name="Group 172" transform="translate(1.833 1.803)">
          <rect id="Rectangle_29" data-name="Rectangle 29" width="21.991" height="28.875" fill="#63a0b5"/>
        </g>
        <g id="Group_173" data-name="Group 173">
          <path id="Path_792" data-name="Path 792" d="M247.13,319.113H221.474V286.629H247.13ZM225.139,315.5h18.326V290.238H225.139Z" transform="translate(-221.474 -286.629)" fill="#4185a6"/>
        </g>
        <g id="Group_174" data-name="Group 174" transform="translate(1.833 7.219)">
          <rect id="Rectangle_30" data-name="Rectangle 30" width="21.991" height="3.609" fill="#4185a6"/>
        </g>
      </g>
      <g id="Group_179" data-name="Group 179" transform="translate(236.498 258.638)">
        <g id="Group_176" data-name="Group 176" transform="translate(1.833 1.803)">
          <rect id="Rectangle_31" data-name="Rectangle 31" width="21.991" height="28.875" fill="#63a0b5"/>
        </g>
        <g id="Group_177" data-name="Group 177">
          <path id="Path_793" data-name="Path 793" d="M287.749,319.113H262.093V286.629h25.656ZM265.758,315.5h18.326V290.238H265.758Z" transform="translate(-262.093 -286.629)" fill="#4185a6"/>
        </g>
        <g id="Group_178" data-name="Group 178" transform="translate(1.833 7.219)">
          <rect id="Rectangle_32" data-name="Rectangle 32" width="21.991" height="3.609" fill="#4185a6"/>
        </g>
      </g>
      <g id="Group_180" data-name="Group 180" transform="translate(172.357 198.741)">
        <path id="Path_794" data-name="Path 794" d="M271.644,220.25H227.662L191.01,263.563H308.3Z" transform="translate(-191.01 -220.25)" fill="#f26e64"/>
      </g>
      <g id="Group_181" data-name="Group 181" transform="translate(179.687 308.602)">
        <rect id="Rectangle_33" data-name="Rectangle 33" width="102.625" height="9.023" fill="#ebd7bd"/>
      </g>
      <g id="Group_182" data-name="Group 182" transform="translate(99.053 298.114)">
        <rect id="Rectangle_34" data-name="Rectangle 34" width="80.634" height="19.511" fill="#e8a271"/>
      </g>
      <g id="Group_183" data-name="Group 183" transform="translate(179.687 242.054)" opacity="0.25">
        <rect id="Rectangle_35" data-name="Rectangle 35" width="102.625" height="8.798" fill="#ff8562"/>
      </g>
      <g id="Group_184" data-name="Group 184" transform="translate(99.053 194.342)" opacity="0.25">
        <rect id="Rectangle_36" data-name="Rectangle 36" width="134.377" height="8.798" fill="#ff8562"/>
      </g>
      <g id="Group_188" data-name="Group 188" transform="translate(295.449 258.638)">
        <g id="Group_185" data-name="Group 185" transform="translate(1.83 1.803)">
          <rect id="Rectangle_37" data-name="Rectangle 37" width="16.493" height="28.875" fill="#63a0b5"/>
        </g>
        <g id="Group_186" data-name="Group 186">
          <path id="Path_795" data-name="Path 795" d="M347.582,319.113H327.424V286.629h20.158ZM331.088,315.5h12.828V290.238H331.088Z" transform="translate(-327.424 -286.629)" fill="#4185a6"/>
        </g>
        <g id="Group_187" data-name="Group 187" transform="translate(1.832 7.219)">
          <rect id="Rectangle_38" data-name="Rectangle 38" width="16.493" height="3.609" fill="#4185a6"/>
        </g>
      </g>
      <g id="Group_192" data-name="Group 192" transform="translate(320.489 258.638)">
        <g id="Group_189" data-name="Group 189" transform="translate(1.835 1.803)">
          <rect id="Rectangle_39" data-name="Rectangle 39" width="16.493" height="28.875" fill="#63a0b5"/>
        </g>
        <g id="Group_190" data-name="Group 190">
          <path id="Path_796" data-name="Path 796" d="M375.332,319.113H355.174V286.629h20.158ZM358.839,315.5h12.828V290.238H358.839Z" transform="translate(-355.174 -286.629)" fill="#4185a6"/>
        </g>
        <g id="Group_191" data-name="Group 191" transform="translate(1.833 7.219)">
          <rect id="Rectangle_40" data-name="Rectangle 40" width="16.493" height="3.609" fill="#4185a6"/>
        </g>
      </g>
      <g id="Group_196" data-name="Group 196" transform="translate(345.537 258.638)">
        <g id="Group_193" data-name="Group 193" transform="translate(1.833 1.803)">
          <rect id="Rectangle_41" data-name="Rectangle 41" width="16.493" height="28.875" fill="#63a0b5"/>
        </g>
        <g id="Group_194" data-name="Group 194">
          <path id="Path_797" data-name="Path 797" d="M403.091,319.113H382.933V286.629h20.158ZM386.6,315.5h12.828V290.238H386.6Z" transform="translate(-382.933 -286.629)" fill="#4185a6"/>
        </g>
        <g id="Group_195" data-name="Group 195" transform="translate(1.833 7.219)">
          <rect id="Rectangle_42" data-name="Rectangle 42" width="16.493" height="3.609" fill="#4185a6"/>
        </g>
      </g>
      <g id="Group_200" data-name="Group 200" transform="translate(14.403 258.638)">
        <g id="Group_197" data-name="Group 197" transform="translate(1.834 1.803)">
          <rect id="Rectangle_43" data-name="Rectangle 43" width="16.493" height="28.875" fill="#63a0b5"/>
        </g>
        <g id="Group_198" data-name="Group 198">
          <path id="Path_798" data-name="Path 798" d="M36.12,319.113H15.962V286.629H36.12ZM19.627,315.5H32.455V290.238H19.627Z" transform="translate(-15.962 -286.629)" fill="#4185a6"/>
        </g>
        <g id="Group_199" data-name="Group 199" transform="translate(1.833 7.219)">
          <rect id="Rectangle_44" data-name="Rectangle 44" width="16.493" height="3.609" fill="#4185a6"/>
        </g>
      </g>
      <g id="Group_204" data-name="Group 204" transform="translate(39.451 258.638)">
        <g id="Group_201" data-name="Group 201" transform="translate(1.831 1.803)">
          <rect id="Rectangle_45" data-name="Rectangle 45" width="16.493" height="28.875" fill="#63a0b5"/>
        </g>
        <g id="Group_202" data-name="Group 202">
          <path id="Path_799" data-name="Path 799" d="M63.879,319.113H43.721V286.629H63.879ZM47.386,315.5H60.214V290.238H47.386Z" transform="translate(-43.721 -286.629)" fill="#4185a6"/>
        </g>
        <g id="Group_203" data-name="Group 203" transform="translate(1.833 7.219)">
          <rect id="Rectangle_46" data-name="Rectangle 46" width="16.493" height="3.609" fill="#4185a6"/>
        </g>
      </g>
      <g id="Group_208" data-name="Group 208" transform="translate(64.492 258.638)">
        <g id="Group_205" data-name="Group 205" transform="translate(1.835 1.803)">
          <rect id="Rectangle_47" data-name="Rectangle 47" width="16.493" height="28.875" fill="#63a0b5"/>
        </g>
        <g id="Group_206" data-name="Group 206">
          <path id="Path_800" data-name="Path 800" d="M91.63,319.113H71.472V286.629H91.63ZM75.136,315.5H87.965V290.238H75.136Z" transform="translate(-71.472 -286.629)" fill="#4185a6"/>
        </g>
        <g id="Group_207" data-name="Group 207" transform="translate(1.832 7.219)">
          <rect id="Rectangle_48" data-name="Rectangle 48" width="16.493" height="3.609" fill="#4185a6"/>
        </g>
      </g>
      <g id="Group_221" data-name="Group 221" transform="translate(295.449 218.367)">
        <g id="Group_212" data-name="Group 212">
          <g id="Group_209" data-name="Group 209" transform="translate(1.83 1.805)">
            <rect id="Rectangle_49" data-name="Rectangle 49" width="16.493" height="21.656" fill="#63a0b5"/>
          </g>
          <g id="Group_210" data-name="Group 210">
            <path id="Path_801" data-name="Path 801" d="M347.582,267.266H327.424V242h20.158Zm-16.494-3.609h12.828V245.609H331.088Z" transform="translate(-327.424 -242)" fill="#4185a6"/>
          </g>
          <g id="Group_211" data-name="Group 211" transform="translate(1.832 7.219)">
            <rect id="Rectangle_50" data-name="Rectangle 50" width="16.493" height="3.609" fill="#4185a6"/>
          </g>
        </g>
        <g id="Group_216" data-name="Group 216" transform="translate(25.04)">
          <g id="Group_213" data-name="Group 213" transform="translate(1.835 1.805)">
            <rect id="Rectangle_51" data-name="Rectangle 51" width="16.493" height="21.656" fill="#63a0b5"/>
          </g>
          <g id="Group_214" data-name="Group 214">
            <path id="Path_802" data-name="Path 802" d="M375.332,267.266H355.174V242h20.158Zm-16.493-3.609h12.828V245.609H358.839Z" transform="translate(-355.174 -242)" fill="#4185a6"/>
          </g>
          <g id="Group_215" data-name="Group 215" transform="translate(1.833 7.219)">
            <rect id="Rectangle_52" data-name="Rectangle 52" width="16.493" height="3.609" fill="#4185a6"/>
          </g>
        </g>
        <g id="Group_220" data-name="Group 220" transform="translate(50.088)">
          <g id="Group_217" data-name="Group 217" transform="translate(1.833 1.805)">
            <rect id="Rectangle_53" data-name="Rectangle 53" width="16.493" height="21.656" fill="#63a0b5"/>
          </g>
          <g id="Group_218" data-name="Group 218">
            <path id="Path_803" data-name="Path 803" d="M403.091,267.266H382.933V242h20.158ZM386.6,263.656h12.828V245.609H386.6Z" transform="translate(-382.933 -242)" fill="#4185a6"/>
          </g>
          <g id="Group_219" data-name="Group 219" transform="translate(1.833 7.219)">
            <rect id="Rectangle_54" data-name="Rectangle 54" width="16.493" height="3.609" fill="#4185a6"/>
          </g>
        </g>
      </g>
      <g id="Group_222" data-name="Group 222" transform="translate(282.313 303.789)">
        <rect id="Rectangle_55" data-name="Rectangle 55" width="106.443" height="13.836" fill="#b66e64"/>
      </g>
      <g id="Group_225" data-name="Group 225" transform="translate(286.283 305.71)">
        <g id="Group_223" data-name="Group 223">
          <path id="Path_804" data-name="Path 804" d="M367.333,346.382a11.586,11.586,0,0,0-3.456.576,19.376,19.376,0,0,0-31.6,0,11.587,11.587,0,0,0-3.456-.576,11.466,11.466,0,0,0-11.554,11.378h61.621A11.467,11.467,0,0,0,367.333,346.382Z" transform="translate(-317.266 -338.796)" fill="#69be5d"/>
        </g>
        <g id="Group_224" data-name="Group 224" transform="translate(34.756)">
          <path id="Path_805" data-name="Path 805" d="M378.985,346.382a11.586,11.586,0,0,0-3.456.576,18.788,18.788,0,0,0-19.746-7.677,19.248,19.248,0,0,1,11.856,7.677,11.586,11.586,0,0,1,3.456-.576,11.467,11.467,0,0,1,11.554,11.378h7.89A11.467,11.467,0,0,0,378.985,346.382Z" transform="translate(-355.783 -338.796)" fill="#9dc85c"/>
        </g>
      </g>
      <g id="Group_226" data-name="Group 226" transform="translate(388.755 242.054)">
        <path id="Path_806" data-name="Path 806" d="M503.952,268.25H430.828v18.387h71.8C503.291,280.573,503.77,274.453,503.952,268.25Z" transform="translate(-430.828 -268.25)" fill="#f26e64"/>
      </g>
      <g id="Group_230" data-name="Group 230" transform="translate(396.621 274.538)">
        <g id="Group_227" data-name="Group 227" transform="translate(1.833 1.805)">
          <rect id="Rectangle_56" data-name="Rectangle 56" width="43.753" height="20.779" fill="#63a0b5"/>
        </g>
        <g id="Group_228" data-name="Group 228">
          <path id="Path_807" data-name="Path 807" d="M486.963,328.638H439.545V304.25h47.418Zm-43.753-3.609H483.3V307.859H443.21Z" transform="translate(-439.545 -304.25)" fill="#4185a6"/>
        </g>
        <g id="Group_229" data-name="Group 229" transform="translate(21.876 1.805)">
          <rect id="Rectangle_57" data-name="Rectangle 57" width="3.665" height="20.778" fill="#4185a6"/>
        </g>
      </g>
      <g id="Group_231" data-name="Group 231" transform="translate(388.756 231)">
        <rect id="Rectangle_58" data-name="Rectangle 58" width="7.789" height="29.441" fill="#f26e64"/>
      </g>
      <g id="Group_232" data-name="Group 232" transform="translate(99.053 157.72)">
        <rect id="Rectangle_59" data-name="Rectangle 59" width="7.789" height="25.119" fill="#f26e64"/>
      </g>
      <g id="Group_233" data-name="Group 233" transform="translate(91.265 200.13)">
        <rect id="Rectangle_60" data-name="Rectangle 60" width="7.789" height="25.119" fill="#f26e64"/>
      </g>
      <g id="Group_234" data-name="Group 234" transform="translate(129.017 152.271)">
        <rect id="Rectangle_61" data-name="Rectangle 61" width="10.308" height="24.64" fill="#b66e64"/>
      </g>
      <g id="Group_235" data-name="Group 235" transform="translate(193.158 152.271)">
        <rect id="Rectangle_62" data-name="Rectangle 62" width="10.308" height="24.64" fill="#b66e64"/>
      </g>
      <g id="Group_236" data-name="Group 236" transform="translate(225.642 157.72)">
        <rect id="Rectangle_63" data-name="Rectangle 63" width="7.789" height="25.119" fill="#f26e64"/>
      </g>
      <g id="Group_237" data-name="Group 237" transform="translate(388.755 260.441)" opacity="0.25">
        <path id="Path_808" data-name="Path 808" d="M502.626,288.627h-71.8v8.8h70.543C501.807,294.5,502.3,291.591,502.626,288.627Z" transform="translate(-430.828 -288.627)" fill="#ff8562"/>
      </g>
      <g id="Group_241" data-name="Group 241" transform="translate(121.653 257.059)">
        <g id="Group_238" data-name="Group 238" transform="translate(1.834 1.803)">
          <rect id="Rectangle_64" data-name="Rectangle 64" width="16.493" height="28.875" fill="#63a0b5"/>
        </g>
        <g id="Group_239" data-name="Group 239">
          <path id="Path_809" data-name="Path 809" d="M154.977,317.363H134.819V284.879h20.158Zm-16.493-3.609h12.828V288.488H138.484Z" transform="translate(-134.819 -284.879)" fill="#4185a6"/>
        </g>
        <g id="Group_240" data-name="Group 240" transform="translate(1.833 7.219)">
          <rect id="Rectangle_65" data-name="Rectangle 65" width="16.493" height="3.609" fill="#4185a6"/>
        </g>
      </g>
      <g id="Group_245" data-name="Group 245" transform="translate(151.282 257.059)">
        <g id="Group_242" data-name="Group 242" transform="translate(1.833 1.803)">
          <rect id="Rectangle_66" data-name="Rectangle 66" width="16.493" height="28.875" fill="#63a0b5"/>
        </g>
        <g id="Group_243" data-name="Group 243">
          <path id="Path_810" data-name="Path 810" d="M187.813,317.363H167.655V284.879h20.158Zm-16.493-3.609h12.828V288.488H171.32Z" transform="translate(-167.655 -284.879)" fill="#4185a6"/>
        </g>
        <g id="Group_244" data-name="Group 244" transform="translate(1.833 7.219)">
          <rect id="Rectangle_67" data-name="Rectangle 67" width="16.493" height="3.609" fill="#4185a6"/>
        </g>
      </g>
      <g id="Group_249" data-name="Group 249" transform="translate(121.653 216.788)">
        <g id="Group_246" data-name="Group 246" transform="translate(1.834 1.805)">
          <rect id="Rectangle_68" data-name="Rectangle 68" width="16.493" height="21.656" fill="#63a0b5"/>
        </g>
        <g id="Group_247" data-name="Group 247">
          <path id="Path_811" data-name="Path 811" d="M154.977,265.516H134.819V240.25h20.158Zm-16.493-3.609h12.828V243.859H138.484Z" transform="translate(-134.819 -240.25)" fill="#4185a6"/>
        </g>
        <g id="Group_248" data-name="Group 248" transform="translate(1.833 7.219)">
          <rect id="Rectangle_69" data-name="Rectangle 69" width="16.493" height="3.609" fill="#4185a6"/>
        </g>
      </g>
      <g id="Group_253" data-name="Group 253" transform="translate(151.282 216.788)">
        <g id="Group_250" data-name="Group 250" transform="translate(1.833 1.805)">
          <rect id="Rectangle_70" data-name="Rectangle 70" width="16.493" height="21.656" fill="#63a0b5"/>
        </g>
        <g id="Group_251" data-name="Group 251">
          <path id="Path_812" data-name="Path 812" d="M187.813,265.516H167.655V240.25h20.158Zm-16.493-3.609h12.828V243.859H171.32Z" transform="translate(-167.655 -240.25)" fill="#4185a6"/>
        </g>
        <g id="Group_252" data-name="Group 252" transform="translate(1.833 7.219)">
          <rect id="Rectangle_71" data-name="Rectangle 71" width="16.493" height="3.609" fill="#4185a6"/>
        </g>
      </g>
      <g id="Group_254" data-name="Group 254" transform="translate(0.004 209.344)">
        <path id="Path_813" data-name="Path 813" d="M99.053,232H.7c-.537,7.133-.789,14.349-.66,21.656.043,2.421.194,4.816.31,7.219H99.053Z" transform="translate(-0.004 -232)" fill="#f26e64"/>
      </g>
      <g id="Group_255" data-name="Group 255" transform="translate(13.149 303.789)">
        <path id="Path_814" data-name="Path 814" d="M19.849,350.5h80.628V336.667h-85.9C16.205,341.338,17.932,345.967,19.849,350.5Z" transform="translate(-14.572 -336.667)" fill="#b66e64"/>
      </g>
      <g id="Group_259" data-name="Group 259" transform="translate(68.102 182.839)">
        <g id="Group_256" data-name="Group 256" transform="translate(21.267 99.569)">
          <path id="Path_815" data-name="Path 815" d="M106.023,353.383V316.408a3.492,3.492,0,0,0-6.982,0v36.974h6.982Z" transform="translate(-99.041 -312.972)" fill="#996459"/>
        </g>
        <g id="Group_257" data-name="Group 257" transform="translate(0 0.001)">
          <path id="Path_816" data-name="Path 816" d="M124.985,294.3c0,18.71-11.083,28.1-24.757,28.1s-24.757-9.392-24.757-28.1,15.165-91.673,24.757-91.673S124.985,275.591,124.985,294.3Z" transform="translate(-75.472 -202.628)" fill="#69be5d"/>
        </g>
        <g id="Group_258" data-name="Group 258" transform="translate(18.562)">
          <path id="Path_817" data-name="Path 817" d="M102.238,202.627c-1.9,0-4.019,2.893-6.195,7.628,7.824,11.67,17.948,69.327,17.948,85.342,0,15.647-7.065,24.455-16.446,26.39a27.822,27.822,0,0,0,4.693.414c13.672,0,24.757-9.392,24.757-28.1S111.83,202.627,102.238,202.627Z" transform="translate(-96.043 -202.627)" fill="#9dc85c"/>
        </g>
      </g>
      <g id="Group_263" data-name="Group 263" transform="translate(104.778 215.208)">
        <g id="Group_260" data-name="Group 260" transform="translate(16.348 76.546)">
          <path id="Path_818" data-name="Path 818" d="M139.6,354.394V325.97a2.685,2.685,0,0,0-5.369,0v28.424Z" transform="translate(-134.235 -323.329)" fill="#996459"/>
        </g>
        <g id="Group_261" data-name="Group 261" transform="translate(0 0)">
          <path id="Path_819" data-name="Path 819" d="M154.181,308.974c0,14.383-8.521,21.6-19.031,21.6s-19.031-7.22-19.031-21.6S127.776,238.5,135.149,238.5,154.181,294.591,154.181,308.974Z" transform="translate(-116.118 -238.499)" fill="#69be5d"/>
        </g>
        <g id="Group_262" data-name="Group 262" transform="translate(14.269)">
          <path id="Path_820" data-name="Path 820" d="M136.694,238.5c-1.46,0-3.09,2.224-4.763,5.864,6.015,8.971,13.8,53.3,13.8,65.608,0,12.028-5.431,18.8-12.643,20.287a21.429,21.429,0,0,0,3.608.319c10.51,0,19.031-7.22,19.031-21.6S144.067,238.5,136.694,238.5Z" transform="translate(-131.931 -238.499)" fill="#9dc85c"/>
        </g>
      </g>
      <g id="Group_264" data-name="Group 264" transform="translate(263.681 301.552)">
        <path id="Path_821" data-name="Path 821" d="M353.266,343.437a14.123,14.123,0,0,0-4.214.7,23.626,23.626,0,0,0-38.532,0,14.123,14.123,0,0,0-4.214-.7,13.982,13.982,0,0,0-14.088,13.874h75.136A13.982,13.982,0,0,0,353.266,343.437Z" transform="translate(-292.218 -334.188)" fill="#69be5d"/>
      </g>
      <g id="Group_267" data-name="Group 267" transform="translate(239.934 301.552)">
        <g id="Group_265" data-name="Group 265" transform="translate(0 0.001)">
          <path id="Path_822" data-name="Path 822" d="M326.949,343.437a14.122,14.122,0,0,0-4.214.7,23.626,23.626,0,0,0-38.532,0,14.123,14.123,0,0,0-4.214-.7A13.982,13.982,0,0,0,265.9,357.311h75.136A13.982,13.982,0,0,0,326.949,343.437Z" transform="translate(-265.901 -334.188)" fill="#69be5d"/>
        </g>
        <g id="Group_266" data-name="Group 266" transform="translate(42.378)">
          <path id="Path_823" data-name="Path 823" d="M341.156,343.436a14.123,14.123,0,0,0-4.214.7,22.908,22.908,0,0,0-24.077-9.36,23.464,23.464,0,0,1,14.456,9.361,13.933,13.933,0,0,1,18.3,13.171h9.621A13.981,13.981,0,0,0,341.156,343.436Z" transform="translate(-312.865 -334.187)" fill="#9dc85c"/>
        </g>
      </g>
    </g>
  </g>
</svg>
