<svg xmlns="http://www.w3.org/2000/svg" width="1099" height="711.68" viewBox="0 0 1099 711.68">
  <g id="Group_19" data-name="Group 19" transform="translate(-1911 -339)">
    <g id="undraw_transfer_money_rywa" transform="translate(1911 253)">
      <ellipse id="Ellipse_39" data-name="Ellipse 39" cx="148" cy="23.68" rx="148" ry="23.68" transform="translate(0 750.32)" fill="#f2f2f2"/>
      <ellipse id="Ellipse_40" data-name="Ellipse 40" cx="229" cy="36.64" rx="229" ry="36.64" transform="translate(641 700.329)" fill="#f2f2f2"/>
      <path id="Path_328" data-name="Path 328" d="M869.62,435.945s1.95,6.5-9.1,12.348-14.3,27.945-1.3,34.443,16.9,14.947,10.4,20.8-18.2,21.446-2.6,25.345,17.547,11.7,13,14.947,10.4-5.849,10.4-5.849,2.6,15.6,16.247,11.7,51.99-77.985,32.494-88.383S869.62,435.945,869.62,435.945Z" transform="translate(-50.5 -51.16)" fill="#2f2e41"/>
      <path id="Path_329" data-name="Path 329" d="M893.175,498.7s6.741,23.594-5.056,25.279A46.053,46.053,0,0,0,867.9,532.4l21.909,28.65h40.447l25.279-25.279s-33.706-25.279-26.965-40.447S893.175,498.7,893.175,498.7Z" transform="translate(-50.5 -51.16)" fill="#ffb9b9"/>
      <path id="Path_330" data-name="Path 330" d="M893.175,498.7s6.741,23.594-5.056,25.279A46.053,46.053,0,0,0,867.9,532.4l21.909,28.65h40.447l25.279-25.279s-33.706-25.279-26.965-40.447S893.175,498.7,893.175,498.7Z" transform="translate(-50.5 -51.16)" opacity="0.1"/>
      <path id="Path_331" data-name="Path 331" d="M852.787,740.779l38.762,13.482,26.964,1.685-1.685-23.594L861.213,715.9Z" fill="#ffb9b9"/>
      <path id="Path_332" data-name="Path 332" d="M953,786.883s0,23.594,3.371,23.594,48.874-5.056,62.356,0,33.706-13.482,23.594-23.594-26.606-25.279-36.9-21.909S953,776.771,953,776.771Z" transform="translate(-50.5 -51.16)" fill="#575a89"/>
      <path id="Path_333" data-name="Path 333" d="M829.134,764.974s-20.224,40.447-6.741,43.818,28.65-1.685,30.335-3.371,25.279-8.426,28.65-5.056,3.371-13.482,3.371-13.482Z" transform="translate(-50.5 -51.16)" fill="#575a89"/>
      <path id="Path_334" data-name="Path 334" d="M845.987,709.359s-32.021,43.818-8.427,55.615,136.509,11.8,144.935,0,11.8-48.874,0-52.244S845.987,709.359,845.987,709.359Z" transform="translate(-50.5 -51.16)" fill="#2f2e41"/>
      <path id="Path_335" data-name="Path 335" d="M845.987,709.359s-32.021,43.818-8.427,55.615,136.509,11.8,144.935,0,11.8-48.874,0-52.244S845.987,709.359,845.987,709.359Z" transform="translate(-50.5 -51.16)" opacity="0.2"/>
      <circle id="Ellipse_41" data-name="Ellipse 41" cx="38.762" cy="38.762" r="38.762" transform="translate(817.396 381.81)" fill="#ffb9b9"/>
      <path id="Path_336" data-name="Path 336" d="M845.987,532.4l33.706-6.741s8.427,26.965,35.391,21.909,33.706-21.909,33.706-21.909,20.224,8.427,21.909,8.427,23.594,8.426,23.594,13.482-25.279,55.615-25.279,55.615l3.371,91.006L847.672,690.82,856.1,601.5Z" transform="translate(-50.5 -51.16)" fill="#388e3c"/>
      <path id="Path_337" data-name="Path 337" d="M827.448,576.22s-10.112,89.321-3.371,96.062,33.706,25.279,33.706,25.279V677.338L844.3,652.059l13.482-58.985Z" transform="translate(-50.5 -51.16)" fill="#ffb9b9"/>
      <path id="Path_338" data-name="Path 338" d="M1001.877,573.692s-5.9,91.849-5.9,95.219-15.168,15.168-20.224,15.168-8.427-8.427-8.427-8.427l11.8-13.482-8.426-69.1Z" transform="translate(-50.5 -51.16)" fill="#ffb9b9"/>
      <path id="Path_339" data-name="Path 339" d="M985.866,702.618s75.838-42.132,77.524,0-38.762,58.985-38.762,58.985-104.488,31.332-108.7,19.879-12.64-29.991-5.9-31.676,15.168-5.056,18.538-1.685,45.5-25.279,45.5-25.279Z" transform="translate(-50.5 -51.16)" fill="#2f2e41"/>
      <path id="Path_340" data-name="Path 340" d="M1021.258,697.562s-15.168,6.741-20.224,11.8-26.965,13.482-26.965,13.482" transform="translate(-50.5 -51.16)" fill="none" stroke="#000" stroke-miterlimit="10" stroke-width="2" opacity="0.2"/>
      <path id="Path_341" data-name="Path 341" d="M856.1,535.773,845.987,532.4s-37.077,38.762-25.279,48.874,18.538,13.482,21.909,16.853,20.224,5.056,20.224,5.056Z" transform="translate(-50.5 -51.16)" fill="#388e3c"/>
      <path id="Path_342" data-name="Path 342" d="M979.125,544.2l15.168,3.371s11.8,25.279,15.168,28.65-5.056,1.685-10.112,8.426-10.112,18.538-20.224,18.538-23.594-16.853-23.594-16.853Z" transform="translate(-50.5 -51.16)" fill="#388e3c"/>
      <path id="Path_343" data-name="Path 343" d="M849.357,717.785s-64.041-45.5-85.95-11.8,94.377,79.209,111.23,85.95,32.021,13.482,32.021,13.482,15.168-37.077,15.168-43.818-11.8-6.741-15.168-6.741-18.538-3.371-21.909-8.426S849.357,717.785,849.357,717.785Z" transform="translate(-50.5 -51.16)" fill="#2f2e41"/>
      <path id="Path_344" data-name="Path 344" d="M813.966,705.988s16.853,13.482,32.021,16.853,20.224,11.8,20.224,11.8" transform="translate(-50.5 -51.16)" fill="none" stroke="#000" stroke-miterlimit="10" stroke-width="2" opacity="0.2"/>
      <path id="Path_345" data-name="Path 345" d="M837.732,642.622l1.346,71.356a8.933,8.933,0,0,0,9.032,8.764L980.9,721.25a8.933,8.933,0,0,0,8.818-8.418l4.031-69.864a8.933,8.933,0,0,0-8.918-9.447H846.663a8.933,8.933,0,0,0-8.931,9.1Z" transform="translate(-50.5 -51.16)" fill="#575a89"/>
      <path id="Path_346" data-name="Path 346" d="M908.728,423.04s2.16,7.2-10.079,13.679-15.839,30.957-1.44,38.156,18.718,16.558,11.519,23.038-20.158,23.758-2.88,28.077,19.438,12.959,14.4,16.558,11.519-6.479,11.519-6.479,2.88,17.278,18,12.959,30.2-82.84,13.35-103.064C947.445,427.16,908.728,423.04,908.728,423.04Z" transform="translate(-50.5 -51.16)" fill="#2f2e41"/>
      <path id="Path_347" data-name="Path 347" d="M904.13,415.629c0-10.547,31.559-2.969,45.088,11.758,9.369,10.2,23.6,25.54,11.674,36.355s20.439,24.992,29.119,29.29,25.817,17.443,10.343,26.261-15.224,17.72-9.4,19.827-12.839-3.134-12.839-3.134S980,553.4,964.276,553.319s-60.832-86.494-50.056-110.513C924.24,420.473,904.13,415.629,904.13,415.629Z" transform="translate(-50.5 -51.16)" fill="#2f2e41"/>
      <path id="Path_348" data-name="Path 348" d="M910.965,413.318c-42.2-2.541-46.433,29.223-46.433,29.223.292,18.382,29.483,9.425,37.59,12.165,9.781-7.036,28.636-20.35,42.12-29.851A63.774,63.774,0,0,0,910.965,413.318Z" transform="translate(-50.5 -51.16)" fill="#2f2e41"/>
      <path id="Path_349" data-name="Path 349" d="M898.942,616.008S861.09,438.609,624.169,309.92" transform="translate(-50.5 -51.16)" fill="none" stroke="#3f3d56" stroke-miterlimit="10" stroke-width="2"/>
      <path id="Path_350" data-name="Path 350" d="M583.431,254.891l.474,1.945-9.583,2.324,3.019,9.389-1.906.611-3.675-11.436Z" fill="#3f3d56"/>
      <path id="Path_351" data-name="Path 351" d="M118.973,797.271c0,22.469-13.356,30.314-29.834,30.314q-.573,0-1.143-.013c-.763-.016-1.52-.053-2.267-.1-14.871-1.052-26.424-9.3-26.424-30.2,0-21.625,27.634-48.912,29.71-50.932l0,0,.12-.116S118.973,774.8,118.973,797.271Z" transform="translate(-50.5 -51.16)" fill="#388e3c"/>
      <path id="Path_352" data-name="Path 352" d="M88.052,824.148,98.964,808.9,88.025,825.822,88,827.572c-.763-.016-1.52-.053-2.267-.1l1.176-22.479-.009-.174.02-.033.111-2.123L76.061,785.7l11,15.37.025.451.889-16.985L78.588,767l9.5,14.547.925-35.212,0-.12v.116L88.865,774.1,98.212,763.1l-9.385,13.4L88.58,791.7l8.727-14.594-8.763,16.832-.138,8.454,12.669-20.313L88.358,805.344Z" transform="translate(-50.5 -51.16)" fill="#3f3d56"/>
      <path id="Path_353" data-name="Path 353" d="M261.273,791.45l6.382-4.741s4.224,23.6-.49,27.132-22.391,9.428-22.391,16.5-40.068,16.5-41.246,5.892,3.535-16.5,3.535-16.5,18.855-18.855,21.212-22.391,8.249-10.606,8.249-10.606Z" transform="translate(-50.5 -51.16)" fill="#2f2e41"/>
      <path id="Path_354" data-name="Path 354" d="M167,498.014s.177,1.037.483,2.934c.283,1.685.672,4.066,1.143,7,4.95,30.2,19.386,119.119,18.408,122.053-1.178,3.535-9.428,16.5,0,20.034.907.342,1.886,1.449,2.934,3.194a68.5,68.5,0,0,1,4.985,11.761c5.621,16.31,11.632,42.413,15.108,60.49,1.52,7.943,2.557,14.33,2.864,17.677a9.612,9.612,0,0,1,.035,2.333c-1.178,4.714,7.071,21.212,10.606,25.926s9.428,9.428,8.249,14.142,29.462,17.677,33,9.428,3.535-12.963,4.714-15.32,2.357-18.855-3.535-21.212-2.357-43.6-8.249-51.852c-1.968-2.746-4.973-12.044-8.12-23.227-1.237-4.384-2.487-9.051-3.712-13.729-4.973-19.174-9.38-38.465-9.38-38.465L237.7,493.3l-64.815-8.249-1.662,3.665-3.312,7.271Z" transform="translate(-50.5 -51.16)" fill="#2f2e41"/>
      <path id="Path_355" data-name="Path 355" d="M163.461,724.278s-9.428-9.428-14.142,0-9.428,45.96-17.677,54.209-18.855,49.5-7.071,51.852,24.748-3.535,25.926-10.606,25.926-43.6,25.926-47.138-16.5-16.5-16.5-16.5Z" transform="translate(-50.5 -51.16)" fill="#2f2e41"/>
      <path id="Path_356" data-name="Path 356" d="M308.412,433.2s-15.32,137.88-18.855,150.843-22.391,62.458-28.283,70.708-43.6,75.422-48.317,78.957-14.142,12.963-14.142,12.963-17.677,17.677-20.034,21.212-22.391-7.071-23.569-14.142,1.178-18.855,2.357-23.569-2.357-11.785,1.178-15.32,21.212-21.212,21.212-29.462,30.64-56.566,42.425-67.172,9.428-28.283,9.428-28.283V518.047L167,498.014s3.535-56.566,11.785-56.566S295.449,422.592,308.412,433.2Z" transform="translate(-50.5 -51.16)" fill="#2f2e41"/>
      <circle id="Ellipse_42" data-name="Ellipse 42" cx="38.889" cy="38.889" r="38.889" transform="translate(123.567 107.457)" fill="#9f616a"/>
      <path id="Path_357" data-name="Path 357" d="M225.919,228.146s4.714,17.677,10.606,22.391-15.32,24.748-15.32,24.748l-40.068,2.357-7.071-22.391s12.963-25.926,9.428-42.425S225.919,228.146,225.919,228.146Z" transform="translate(-50.5 -51.16)" fill="#9f616a"/>
      <path id="Path_358" data-name="Path 358" d="M242.418,248.18s-10.606,1.178-12.963,4.714-18.855,14.142-31.818,11.785-21.212-5.892-23.569-4.714S167,285.891,167,285.891L179.959,323.6l-2.357,103.7-3.535,28.283s-7.071-9.428,21.212-3.535,64.815-4.714,76.6-5.892,31.818-4.714,33-11.785-3.535-33-3.535-33l-18.855-78.957L270.7,280Z" transform="translate(-50.5 -51.16)" fill="#388e3c"/>
      <path id="Path_359" data-name="Path 359" d="M231.271,242.861s9.968-5.287,13.5-.573,48.317,11.785,48.317,15.32,9.428,98.991,7.071,107.24,4.714,17.677,4.714,17.677l8.249,35.354s22.391,67.172,12.963,69.529-17.677,0-21.212,0-2.357-44.782-11.785-56.566S270.7,389.6,268.344,383.7,236.526,296.5,237.7,287.069,231.271,242.861,231.271,242.861Z" transform="translate(-50.5 -51.16)" fill="#d0cde1"/>
      <path id="Path_360" data-name="Path 360" d="M182.316,248.18s-9.428,0-10.606,2.357-12.963,17.677-17.677,21.212S132.821,290.6,132.821,294.14,167,323.6,167,323.6s14.142,69.529,7.071,93.1S156.39,496.835,161.1,500.37s15.32,4.714,15.32,0,7.071-55.388,12.963-65.994,23.569-77.778,16.5-96.634S182.316,248.18,182.316,248.18Z" transform="translate(-50.5 -51.16)" fill="#d0cde1"/>
      <path id="Path_361" data-name="Path 361" d="M337.873,364.847s1.178,36.532-11.785,55.388S304.876,460.3,304.876,460.3s-21.212-5.892-24.748-12.963S254.2,446.161,254.2,443.8s27.1-14.142,29.462-16.5,10.606-2.357,15.32-7.071,5.892-15.32,5.892-15.32l4.714-30.64Z" transform="translate(-50.5 -51.16)" fill="#9f616a"/>
      <path id="Path_362" data-name="Path 362" d="M239.741,173.528c2.992-.272,6.077-.571,8.721-2,5.925-3.2,7.5-12.294,2.986-17.291a22.344,22.344,0,0,0-4.143-3.331l-8.958-6.1c-3.962-2.7-8.017-5.437-12.638-6.709-4.179-1.15-8.594-1.032-12.92-.763-8.4.522-16.849,1.6-24.749,4.5s-15.268,7.751-20.052,14.673c-7.585,10.974-7.689,25.775-3.511,38.444s12.112,23.7,19.931,34.51l4.057-19.795c.361-1.763.829-3.7,2.295-4.739,3.645-2.593,8.1,2.731,12.576,2.7,2.874-.022,5.287-2.386,6.376-5.046s1.161-5.605,1.413-8.468c.534-6.064,2.653-14.5,8.4-17.847C224.872,173.153,233.726,174.074,239.741,173.528Z" transform="translate(-50.5 -51.16)" fill="#2f2e41"/>
      <path id="Path_363" data-name="Path 363" d="M237.56,498.965s-3.98,115.127-6.337,118.663,0-119.025,0-119.025Z" transform="translate(-50.5 -51.16)" opacity="0.1"/>
      <path id="Path_364" data-name="Path 364" d="M283.664,257.607h9.428s40.068,54.209,35.354,57.745,0,12.963,0,12.963l9.428,17.677s11.785,10.606,8.249,12.963-8.249,11.785-8.249,11.785-23.569-3.535-30.64,10.606l-15.284-19.3Z" transform="translate(-50.5 -51.16)" fill="#d0cde1"/>
      <rect id="Rectangle_12" data-name="Rectangle 12" width="35" height="65.224" transform="translate(204.144 237.242) rotate(-22.438)" fill="#2f2e41"/>
      <ellipse id="Ellipse_43" data-name="Ellipse 43" cx="7" cy="6.431" rx="7" ry="6.431" transform="translate(221.324 250.025) rotate(-22.438)" fill="#388e3c"/>
      <path id="Path_365" data-name="Path 365" d="M260.095,351.884S175.246,422.592,161.1,400.2s15.32-41.246,15.32-41.246,25.926,1.178,55.388-17.677l29.462-12.963s26.9-38.4,36.061-23.777S281.69,344.608,260.095,351.884Z" transform="translate(-50.5 -51.16)" fill="#9f616a"/>
      <path id="Path_366" data-name="Path 366" d="M145.784,289.426l-12.963,4.714v35.354l-4.714,7.071s1.178,14.142,4.714,17.677,10.606,2.357,8.249,10.606a44.667,44.667,0,0,0-1.178,16.5s21.212,27.1,22.391,23.569,17.677-47.138,20.034-47.138-23.569-68.351-23.569-68.351Z" transform="translate(-50.5 -51.16)" fill="#d0cde1"/>
      <path id="Path_367" data-name="Path 367" d="M300.752,467.963s12.185-11.785,6.092-12.374-27.3-12.374-30.84-6.482S300.752,467.963,300.752,467.963Z" transform="translate(-50.5 -51.16)" fill="#2f2e41"/>
      <ellipse id="Ellipse_44" data-name="Ellipse 44" cx="17" cy="9" rx="17" ry="9" transform="translate(465 174)" fill="#57b894"/>
      <path id="Path_368" data-name="Path 368" d="M597.5,264.16q-57.5-21.717-115,0v-47a199.038,199.038,0,0,1,115,0Z" transform="translate(-50.5 -51.16)" fill="none" stroke="#3f3d56" stroke-miterlimit="10" stroke-width="2"/>
      <path id="Path_369" data-name="Path 369" d="M581.5,254.44q-41.5-15.674-83,0V220.519a143.654,143.654,0,0,1,83,0Z" transform="translate(-50.5 -51.16)" fill="none" stroke="#3f3d56" stroke-miterlimit="10" stroke-width="2"/>
      <ellipse id="Ellipse_45" data-name="Ellipse 45" cx="17" cy="9" rx="17" ry="9" transform="translate(471 170)" fill="none" stroke="#3f3d56" stroke-miterlimit="10" stroke-width="2"/>
      <ellipse id="Ellipse_46" data-name="Ellipse 46" cx="17" cy="9" rx="17" ry="9" transform="matrix(0.98, -0.2, 0.2, 0.98, 474.242, 234.129)" fill="#57b894"/>
      <path id="Path_370" data-name="Path 370" d="M612.886,307.1q-60.681-9.779-112.677,23l-9.4-46.051a199.038,199.038,0,0,1,112.677-23Z" transform="translate(-50.5 -51.16)" fill="none" stroke="#3f3d56" stroke-miterlimit="10" stroke-width="2"/>
      <path id="Path_371" data-name="Path 371" d="M595.266,300.777q-43.8-7.058-81.323,16.6l-6.784-33.237a143.653,143.653,0,0,1,81.323-16.6Z" transform="translate(-50.5 -51.16)" fill="none" stroke="#3f3d56" stroke-miterlimit="10" stroke-width="2"/>
      <ellipse id="Ellipse_47" data-name="Ellipse 47" cx="17" cy="9" rx="17" ry="9" transform="matrix(0.98, -0.2, 0.2, 0.98, 479.321, 229.01)" fill="none" stroke="#3f3d56" stroke-miterlimit="10" stroke-width="2"/>
      <ellipse id="Ellipse_48" data-name="Ellipse 48" cx="9" cy="17" rx="9" ry="17" transform="translate(471.592 303.282) rotate(-86.019)" fill="#57b894"/>
      <path id="Path_372" data-name="Path 372" d="M602.435,381.085q-55.854-25.656-114.723-7.983l3.263-46.887A199.038,199.038,0,0,1,605.7,334.2Z" transform="translate(-50.5 -51.16)" fill="none" stroke="#3f3d56" stroke-miterlimit="10" stroke-width="2"/>
      <path id="Path_373" data-name="Path 373" d="M587.149,370.278q-40.312-18.517-82.8-5.762l2.355-33.84a143.654,143.654,0,0,1,82.8,5.762Z" transform="translate(-50.5 -51.16)" fill="none" stroke="#3f3d56" stroke-miterlimit="10" stroke-width="2"/>
      <ellipse id="Ellipse_49" data-name="Ellipse 49" cx="9" cy="17" rx="9" ry="17" transform="translate(477.856 299.709) rotate(-86.019)" fill="none" stroke="#3f3d56" stroke-miterlimit="10" stroke-width="2"/>
      <g id="Group_17" data-name="Group 17" transform="translate(287.077 212.52)">
        <path id="Path_374" data-name="Path 374" d="M339.44,265.251s73.5-10.055,125.982,20.7" transform="translate(-339.44 -263.68)" fill="none" stroke="#3f3d56" stroke-miterlimit="10" stroke-width="2"/>
        <path id="Path_375" data-name="Path 375" d="M295.6,224.459l-1.909.6,2.984,9.4-9.594,2.289.467,1.947,11.683-2.791Z" transform="translate(-171.382 -212.52)" fill="#3f3d56"/>
      </g>
    </g>
    <g id="Group_18" data-name="Group 18" transform="translate(1165 57)">
      <path id="Path_376" data-name="Path 376" d="M651.612,679.719c-5.122-7.172-12.055-12.419-20.771-14.383-7.6-1.713-15.416-1.421-23.142-1.361l-97.692.753c-8.367.065-16.389,7.313-16,16,.386,8.614,7.032,16.069,16,16l85.851-.662c6.747-.052,13.5-.174,20.244-.152,1.515,0,3.024.085,4.538.1.367,0,.631,0,.818-.007.047.014.086.027.147.044.79.217,1.6.366,2.394.572-.278.008.515.5.914.671.055.108.171.3.366.6.272.51,1.077,2.059,1.11,2.01a71.749,71.749,0,0,1,2.987,9.393c1.859,7.047,2.268,8.52,2.536,15.132.338,8.352,7.117,16.4,16,16,8.379-.375,16.363-7.042,16-16C663.3,709.333,660.651,692.377,651.612,679.719Z" transform="translate(674.338 201.587)" fill="#e6e6e6"/>
      <path id="Path_377" data-name="Path 377" d="M515.749,715.825c-1.835-11.12-3.635-22.246-5.505-33.359-1.9-11.274-5.774-21.6-14.548-29-2.344-1.977-4.775-3.823-7.216-5.663-.858-.647-1.715-1.295-2.563-1.956l-.127-.1-.355-.3c-3.657-3.095-7.19-6.327-10.556-9.763q-4.483-4.577-8.575-9.545-1.022-1.241-2.019-2.5c-.114-.145-.729-.94-1.135-1.459-.377-.519-1.066-1.457-1.182-1.621q-1.164-1.646-2.286-3.322A156.123,156.123,0,0,1,446.5,593.119q-.547-1.251-1.068-2.517c-.093-.258-.214-.588-.374-1.029-.741-2.038-1.481-4.074-2.159-6.137q-2.16-6.571-3.714-13.336-.768-3.34-1.383-6.715-.317-1.735-.593-3.478c-.03-.193-.21-1.446-.316-2.154-.078-.712-.224-1.972-.243-2.166q-.176-1.756-.312-3.516-.307-3.96-.415-7.933-.185-7.061.253-14.122c.166-2.645.4-5.282.693-7.915.018-.162.031-.29.044-.406s.038-.251.063-.417c.215-1.455.442-2.908.7-4.356a159.307,159.307,0,0,1,3.739-16.313q1.088-3.809,2.363-7.555.568-1.663,1.173-3.314c-.026.071,1.182-3.016,1.2-3.119,4.795-11.329,12.638-21.657,12.648-34.526.007-8.713-7.364-17.06-16-16.657a16.625,16.625,0,0,0-16,16.657c0,.2,0,.363,0,.525-.081.271-.148.5-.208.7-.935,2.032-2.081,3.963-3.107,5.944-2.811,5.423-5.209,11.025-7.488,16.708a159.828,159.828,0,0,0-8.529,28.628,182.1,182.1,0,0,0-.968,65.04c6.2,37.813,26.662,74.009,55.1,98.339,2.468,2.111,5,4.152,7.549,6.151,1.056.827,2.121,1.639,3.191,2.446.506.381,2.6,2.034,1.68,1.233,1.982,1.692,2.817,2.543,3.326,3.789.074.288.174.678.311,1.211.359,1.405.7,2.807.983,4.233,2.476,12.451,4.2,25.112,6.264,37.644,1.421,8.611,12.022,14.215,19.682,11.634C513.49,733.312,517.272,725.051,515.749,715.825Z" transform="translate(674.338 201.587)" fill="#e6e6e6"/>
      <path id="Path_378" data-name="Path 378" d="M653.23,748.12a25.374,25.374,0,0,1-25.44-25.25V704.619c-19.109,2.139-84.543,1.644-103.3-1.37V722.14a25.441,25.441,0,1,1-50.881,0V685.048a163.307,163.307,0,0,1-84-142.388c0-49.83,22.583-96.314,61.959-127.534a164.076,164.076,0,0,1,89.323-35.173c4.427-.347,8.881-.523,13.239-.523,15.352,0,84.619,2.372,102,7.372l39.628-39.322a4.16,4.16,0,0,1,4.55-.907,4.1,4.1,0,0,1,2.584,3.847v6.252l7.716-7.642a4.15,4.15,0,0,1,4.546-.908,4.1,4.1,0,0,1,2.587,3.848v69.865A162.759,162.759,0,0,1,678.67,689.7V722.87a25.374,25.374,0,0,1-25.44,25.25Zm-23.44-45.77v20.52a23.44,23.44,0,1,0,46.881,0V688.438l.571-.271a162.455,162.455,0,0,0,66.531-58.182,160.325,160.325,0,0,0-27.7-206.96l-.332-.3V351.97a2.1,2.1,0,0,0-1.342-2,2.149,2.149,0,0,0-2.381.473L700.89,361.468V350.42a2.1,2.1,0,0,0-1.342-2,2.154,2.154,0,0,0-2.385.477l-40.476,40.164-.575-.18c-16.156-5.057-86.513-7.454-101.982-7.454-4.306,0-8.707.174-13.082.517a162.075,162.075,0,0,0-88.237,34.746c-38.895,30.838-61.2,76.751-61.2,125.967a161.315,161.315,0,0,0,83.484,140.925l.516.286v38.27a23.441,23.441,0,1,0,46.881,0V700.854l1.185.223c16.856,3.171,87.832,3.671,104.985,1.421Z" transform="translate(674.338 201.587)" fill="#fff" stroke="#3f3d56" stroke-width="2"/>
      <path id="Path_385" data-name="Path 385" d="M396.51,492.671a98.107,98.107,0,0,1-39.122-14.792,95.526,95.526,0,0,1-16.174-13.228c-4.828-4.924-9.447-10.521-11.838-17.079a25.3,25.3,0,0,1,.331-18.769,24.333,24.333,0,0,1,13.169-13.126c5.99-2.389,13.226-2.644,19.055-.028a17.09,17.09,0,0,1,6.964,5.606,11.436,11.436,0,0,1,1.81,3.758,7.673,7.673,0,0,1,.09,3.759,9.016,9.016,0,0,1-4.774,5.723,24.068,24.068,0,0,1-8.152,2.486c-2.86.39-6.969.745-9.268-1.551a4.67,4.67,0,0,1-1.093-1.611,3.115,3.115,0,0,1-.172-1.458c-.034.217.139-.472.129-.445-.036.1-.194.35.03-.031a3.386,3.386,0,0,1,.233-.363c-.076.1-.243.262.055-.019a1.962,1.962,0,0,1,.914-.564c.138-.04.279-.072.418-.11.353-.1-.352.005.009-.006.139,0,.28,0,.419-.007.354-.016-.349-.1-.01-.011.132.033.262.065.392.106.282.089-.2-.207-.009.014.224.259-.235-.252.019,0a4.627,4.627,0,0,1,.358.394,2.359,2.359,0,0,0,3.315,0,2.4,2.4,0,0,0,0-3.315c-2.311-2.865-6.877-2.157-9.215.264-2.982,3.088-1.8,7.983,1.1,10.678,3.284,3.051,7.934,3.263,12.158,2.751a29.817,29.817,0,0,0,10.269-2.9,14.4,14.4,0,0,0,7.024-7.588,13.174,13.174,0,0,0-1.056-10.769c-3.729-7.011-11.452-10.606-19.084-11.228a29.812,29.812,0,0,0-21.819,7.163,30.154,30.154,0,0,0-9.888,20.075c-.666,8,2.436,15.761,6.959,22.214a84.627,84.627,0,0,0,16.779,17.353A102.473,102.473,0,0,0,389.649,496.2q2.792.577,5.615.988a2.421,2.421,0,0,0,2.883-1.637,2.361,2.361,0,0,0-1.637-2.883Z" transform="translate(674.338 201.587)" fill="#3f3d56"/>
      <path id="Path_386" data-name="Path 386" d="M619.9,390.794q-30.663-.433-61.133,1.556c-6.943.453-12.951,2.907-12.951,7.032,0,3.449,5.96,7.489,12.951,7.032q30.454-1.989,61.133-1.556C636.569,405.094,636.56,391.029,619.9,390.794Z" transform="translate(674.338 201.587)" fill="#ccc"/>
      <path id="Path_387" data-name="Path 387" d="M589.682,404.162c-2.209,0-54.106-.083-54.106-7.251s51.9-7.25,54.106-7.25,54.106.083,54.106,7.25S591.891,404.162,589.682,404.162Zm-52.076-7.251c1.42,2.173,20.5,5.251,52.076,5.251s50.656-3.078,52.076-5.251c-1.42-2.173-20.5-5.25-52.076-5.25s-50.656,3.078-52.076,5.251Z" transform="translate(674.338 201.587)" fill="#3f3d56"/>
      <rect id="Rectangle_13" data-name="Rectangle 13" width="37.432" height="6.95" transform="translate(1372.203 682.741)" fill="#3f3d56"/>
    </g>
  </g>
</svg>
