<svg xmlns="http://www.w3.org/2000/svg" width="597" height="597" viewBox="0 0 597 597">
  <g id="Group_284" data-name="Group 284" transform="translate(-2403.606 -973)">
    <circle id="Ellipse_75" data-name="Ellipse 75" cx="298.5" cy="298.5" r="298.5" transform="translate(2403.606 973)" fill="#f2f2f2"/>
    <g id="trees" transform="translate(2471.013 1041)">
      <g id="Group_59" data-name="Group 59" transform="translate(0.284 0.311)">
        <circle id="Ellipse_72" data-name="Ellipse 72" cx="231" cy="231" r="231" transform="translate(-0.297 -0.311)" fill="#9af4ef"/>
      </g>
      <g id="Group_60" data-name="Group 60" transform="translate(291 135.969)">
        <path id="Path_697" data-name="Path 697" d="M475.017,155.1a27.312,27.312,0,0,0-18.895,10.481,21.265,21.265,0,0,0-14.868,1.629,22.224,22.224,0,0,0-35.431-6.173,21.242,21.242,0,0,0-16.2.888,22.1,22.1,0,0,0-28.115-3.726,22.372,22.372,0,1,0-4.833,33.777,22.024,22.024,0,0,0,25.933,5.45c4.084,4.38,15.99,24.259,22.451,24.259,6.019,0,5.328-19.5,9.349-23.371a21.149,21.149,0,0,0,16.582-1.1,22.22,22.22,0,0,0,32.708,8.422,26.636,26.636,0,0,0,26.426.989A229.334,229.334,0,0,0,475.017,155.1Z" transform="translate(-322.512 -150.664)" fill="#00c8b4"/>
      </g>
      <g id="Group_61" data-name="Group 61" transform="translate(3.315 135.968)">
        <path id="Path_698" data-name="Path 698" d="M153.886,150.663a22.254,22.254,0,0,0-15.409,6.214,22.09,22.09,0,0,0-29.018-1.486,22.042,22.042,0,0,0-30.988,3.716,21.035,21.035,0,0,0-15.792,1.28,23.365,23.365,0,0,0-32.459.692A26.28,26.28,0,0,0,18.3,158.135c-.254,0-.488.068-.739.075A229.285,229.285,0,0,0,3.674,206.869,26.421,26.421,0,0,0,18.3,211.281c8.951,0,24.475,6.783,29.288,0,2.2.682,3.834-3.92,6.26-3.92,4.257,0,1.211-7.385,4.655-9.363a22.034,22.034,0,0,0,31.174-3.562,21.373,21.373,0,0,0,19.783-3.756,22.089,22.089,0,0,0,29.017-1.486,22.353,22.353,0,1,0,15.41-38.53Z" transform="translate(-3.674 -150.663)" fill="#00c8b4"/>
      </g>
      <g id="Group_62" data-name="Group 62" transform="translate(0.026 232.044)">
        <path id="Path_699" data-name="Path 699" d="M.029,257.143C.588,384.236,103.766,487.1,230.99,487.1s230.4-102.862,230.961-229.956Z" transform="translate(-0.029 -257.143)" fill="#52c883"/>
      </g>
      <g id="Group_63" data-name="Group 63" transform="translate(0.026 232.044)">
        <path id="Path_700" data-name="Path 700" d="M33.45,375.834c53.775-3.714,125.914,42.239,190.321,42.239,127.946,0,144.969-47.683,207.908-47.683A229.843,229.843,0,0,0,461.95,257.142H.029A229.9,229.9,0,0,0,33.45,375.834Z" transform="translate(-0.029 -257.142)" fill="#34be71"/>
      </g>
      <g id="Group_64" data-name="Group 64" transform="translate(0.026 232.044)">
        <path id="Path_701" data-name="Path 701" d="M25.651,361.879c55.011-2.3,156.505-7.312,232.532,3.955,64.363,9.538,136.422.1,182.3-12.729a229.635,229.635,0,0,0,21.463-95.962H.029A229.9,229.9,0,0,0,25.651,361.879Z" transform="translate(-0.029 -257.143)" fill="#00a07d"/>
      </g>
      <g id="Group_65" data-name="Group 65" transform="translate(0.026 232.044)">
        <path id="Path_702" data-name="Path 702" d="M11.159,326.906c35.161,18.911,93.189,24.292,162.084,17.08,75.191-7.872,151.013-9.183,205.737-4.918,30.2,2.353,53.22.777,67.823-1.107a229.08,229.08,0,0,0,15.148-80.819H.029A230.272,230.272,0,0,0,11.159,326.906Z" transform="translate(-0.029 -257.143)" fill="#00827e"/>
      </g>
      <g id="Group_66" data-name="Group 66" transform="translate(444.257 232.044)">
        <path id="Path_703" data-name="Path 703" d="M492.365,344.826q4.2-10.075,7.457-20.608l-3.075-67.075h-2.452Z" transform="translate(-492.365 -257.143)" fill="#4f6e6e"/>
      </g>
      <g id="Group_67" data-name="Group 67" transform="translate(13.773 235.986)">
        <path id="Path_704" data-name="Path 704" d="M23.555,355.029l-4.288-93.518H16.886l-1.621,73.621Q18.95,345.315,23.555,355.029Z" transform="translate(-15.265 -261.511)" fill="#4f6e6e"/>
      </g>
      <g id="Group_68" data-name="Group 68" transform="translate(417.079 170.146)">
        <path id="Path_705" data-name="Path 705" d="M485.73,188.542c-7.55,0-14.5,9.418-20.133,21.819a229.465,229.465,0,0,0,.72,82.126,33.3,33.3,0,0,0,36.5,1.394,231.52,231.52,0,0,0-.192-90.022C497.647,194.83,491.89,188.542,485.73,188.542Z" transform="translate(-462.244 -188.542)" fill="#00a07d"/>
      </g>
      <g id="Group_69" data-name="Group 69" transform="translate(0 170.146)">
        <path id="Path_706" data-name="Path 706" d="M4.073,292.487a33.818,33.818,0,0,0,53.3-27.709c0-18.713-15.17-76.236-33.883-76.236-7.55,0-14.5,9.418-20.133,21.819a229.467,229.467,0,0,0,.72,82.126Z" transform="translate(0 -188.542)" fill="#00a07d"/>
      </g>
      <g id="Group_70" data-name="Group 70" transform="translate(213.549 228.821)">
        <path id="Path_707" data-name="Path 707" d="M245.834,353.466h-9.16l2.2-99.895h2.382Z" transform="translate(-236.674 -253.571)" fill="#00827e"/>
      </g>
      <g id="Group_71" data-name="Group 71" transform="translate(186.255 231.013)">
        <path id="Path_708" data-name="Path 708" d="M215.584,355.895h-9.16l2.2-99.895H211Z" transform="translate(-206.424 -256)" fill="#00827e"/>
      </g>
      <g id="Group_72" data-name="Group 72" transform="translate(245.097 243.151)">
        <path id="Path_709" data-name="Path 709" d="M279.484,355.017h-7.846l1.883-85.565h2.04Z" transform="translate(-271.638 -269.452)" fill="#00827e"/>
      </g>
      <g id="Group_73" data-name="Group 73" transform="translate(232.985 238.177)">
        <path id="Path_710" data-name="Path 710" d="M266.061,349.505h-7.846L260.1,263.94h2.04Z" transform="translate(-258.215 -263.94)" fill="#00827e"/>
      </g>
      <g id="Group_74" data-name="Group 74" transform="translate(284.279 243.151)">
        <path id="Path_711" data-name="Path 711" d="M322.909,355.017h-7.846l1.883-85.565h2.04Z" transform="translate(-315.063 -269.452)" fill="#00827e"/>
      </g>
      <g id="Group_75" data-name="Group 75" transform="translate(363.449 239.79)">
        <path id="Path_712" data-name="Path 712" d="M410.651,351.292h-7.845l1.883-85.565h2.039Z" transform="translate(-402.806 -265.727)" fill="#00827e"/>
      </g>
      <g id="Group_76" data-name="Group 76" transform="translate(403.997 238.177)">
        <path id="Path_713" data-name="Path 713" d="M455.591,349.505h-7.846l1.883-85.565h2.04Z" transform="translate(-447.745 -263.94)" fill="#00827e"/>
      </g>
      <g id="Group_77" data-name="Group 77" transform="translate(422.043 235.986)">
        <path id="Path_714" data-name="Path 714" d="M475.591,347.076h-7.846l1.883-85.565h2.04Z" transform="translate(-467.745 -261.511)" fill="#00827e"/>
      </g>
      <g id="Group_78" data-name="Group 78" transform="translate(49.567 240.876)">
        <path id="Path_715" data-name="Path 715" d="M62.78,352.5H54.934l1.883-85.565h2.04Z" transform="translate(-54.934 -266.931)" fill="#00827e"/>
      </g>
      <g id="Group_79" data-name="Group 79" transform="translate(25.514 239.79)">
        <path id="Path_716" data-name="Path 716" d="M36.123,351.292H28.277l1.883-85.565H32.2Z" transform="translate(-28.277 -265.727)" fill="#00827e"/>
      </g>
      <g id="Group_80" data-name="Group 80" transform="translate(167.302 228.821)">
        <path id="Path_717" data-name="Path 717" d="M194.579,353.466h-9.16l2.2-99.895H190Z" transform="translate(-185.419 -253.571)" fill="#00827e"/>
      </g>
      <g id="Group_81" data-name="Group 81" transform="translate(136 228.821)">
        <path id="Path_718" data-name="Path 718" d="M159.887,353.466h-9.16l2.2-99.895h2.382Z" transform="translate(-150.727 -253.571)" fill="#00827e"/>
      </g>
      <g id="Group_82" data-name="Group 82" transform="translate(113.549 228.821)">
        <path id="Path_719" data-name="Path 719" d="M135.005,353.466h-9.16l2.2-99.895h2.382Z" transform="translate(-125.845 -253.571)" fill="#00827e"/>
      </g>
      <g id="Group_83" data-name="Group 83" transform="translate(81.229 227.383)">
        <path id="Path_720" data-name="Path 720" d="M99.185,351.872h-9.16l2.2-99.895h2.381Z" transform="translate(-90.025 -251.977)" fill="#00827e"/>
      </g>
      <g id="Group_84" data-name="Group 84" transform="translate(249.02 240.842)">
        <path id="Path_721" data-name="Path 721" d="M285.146,366.787h-9.16l2.2-99.894h2.381Z" transform="translate(-275.986 -266.893)" fill="#4f6e6e"/>
      </g>
      <g id="Group_85" data-name="Group 85" transform="translate(270.436 239.021)">
        <path id="Path_722" data-name="Path 722" d="M308.881,364.769h-9.16l2.2-99.894H304.3Z" transform="translate(-299.721 -264.875)" fill="#4f6e6e"/>
      </g>
      <g id="Group_86" data-name="Group 86" transform="translate(304.211 239.021)">
        <path id="Path_723" data-name="Path 723" d="M346.313,364.769h-9.16l2.2-99.894h2.381Z" transform="translate(-337.153 -264.875)" fill="#4f6e6e"/>
      </g>
      <g id="Group_87" data-name="Group 87" transform="translate(332.633 237.133)">
        <path id="Path_724" data-name="Path 724" d="M377.813,362.678h-9.16l2.2-99.895h2.381Z" transform="translate(-368.653 -262.783)" fill="#4f6e6e"/>
      </g>
      <g id="Group_88" data-name="Group 88" transform="translate(367.371 233.711)">
        <path id="Path_725" data-name="Path 725" d="M416.313,358.885h-9.16l2.2-99.895h2.381Z" transform="translate(-407.153 -258.99)" fill="#4f6e6e"/>
      </g>
      <g id="Group_89" data-name="Group 89" transform="translate(407.92 228.781)">
        <path id="Path_726" data-name="Path 726" d="M461.253,353.421h-9.16l2.2-99.895h2.382Z" transform="translate(-452.093 -253.526)" fill="#4f6e6e"/>
      </g>
      <g id="Group_90" data-name="Group 90" transform="translate(425.966 232.626)">
        <path id="Path_727" data-name="Path 727" d="M481.253,357.682h-9.16l2.2-99.895h2.382Z" transform="translate(-472.093 -257.787)" fill="#4f6e6e"/>
      </g>
      <g id="Group_91" data-name="Group 91" transform="translate(57.368 237.133)">
        <path id="Path_728" data-name="Path 728" d="M72.74,362.678H63.58l2.2-99.895H68.16Z" transform="translate(-63.58 -262.783)" fill="#4f6e6e"/>
      </g>
      <g id="Group_92" data-name="Group 92" transform="translate(29.437 239.021)">
        <path id="Path_729" data-name="Path 729" d="M41.785,364.769h-9.16l2.2-99.894h2.381Z" transform="translate(-32.625 -264.875)" fill="#4f6e6e"/>
      </g>
      <g id="Group_93" data-name="Group 93" transform="translate(159.361 222.515)">
        <path id="Path_730" data-name="Path 730" d="M189.139,383.129H176.618l3-136.547h3.255Z" transform="translate(-176.618 -246.582)" fill="#6c5f59"/>
      </g>
      <g id="Group_94" data-name="Group 94" transform="translate(197.589 222.515)">
        <path id="Path_731" data-name="Path 731" d="M231.507,383.129H218.986l3.006-136.547h3.255Z" transform="translate(-218.986 -246.582)" fill="#6c5f59"/>
      </g>
      <g id="Group_95" data-name="Group 95" transform="translate(253.6 221.372)">
        <path id="Path_732" data-name="Path 732" d="M293.583,381.862H281.062l3.006-136.547h3.255Z" transform="translate(-281.062 -245.315)" fill="#6c5f59"/>
      </g>
      <g id="Group_96" data-name="Group 96" transform="translate(288.202 221.372)">
        <path id="Path_733" data-name="Path 733" d="M331.932,381.862H319.411l3-136.547h3.255Z" transform="translate(-319.411 -245.315)" fill="#6c5f59"/>
      </g>
      <g id="Group_97" data-name="Group 97" transform="translate(349.088 222.515)">
        <path id="Path_734" data-name="Path 734" d="M399.411,383.129H386.89L389.9,246.582h3.255Z" transform="translate(-386.89 -246.582)" fill="#6c5f59"/>
      </g>
      <g id="Group_98" data-name="Group 98" transform="translate(383.53 218.476)">
        <path id="Path_735" data-name="Path 735" d="M437.582,378.653h-12.52l3-136.548h3.255Z" transform="translate(-425.062 -242.105)" fill="#6c5f59"/>
      </g>
      <g id="Group_99" data-name="Group 99" transform="translate(105.608 214.299)">
        <path id="Path_736" data-name="Path 736" d="M129.565,374.023H117.044l3-136.548H123.3Z" transform="translate(-117.044 -237.476)" fill="#6c5f59"/>
      </g>
      <g id="Group_100" data-name="Group 100" transform="translate(87.49 239.021)">
        <path id="Path_737" data-name="Path 737" d="M106.124,364.769h-9.16l2.2-99.894h2.382Z" transform="translate(-96.964 -264.875)" fill="#4f6e6e"/>
      </g>
      <g id="Group_101" data-name="Group 101" transform="translate(144.367 239.699)">
        <path id="Path_738" data-name="Path 738" d="M169.16,365.52H160l2.2-99.894h2.382Z" transform="translate(-160 -265.626)" fill="#4f6e6e"/>
      </g>
      <g id="Group_102" data-name="Group 102" transform="translate(181.675 240.842)">
        <path id="Path_739" data-name="Path 739" d="M210.508,366.787h-9.16l2.2-99.894h2.381Z" transform="translate(-201.348 -266.893)" fill="#4f6e6e"/>
      </g>
      <g id="Group_103" data-name="Group 103" transform="translate(219.188 240.842)">
        <path id="Path_740" data-name="Path 740" d="M252.084,366.787h-9.16l2.2-99.894H247.5Z" transform="translate(-242.924 -266.893)" fill="#4f6e6e"/>
      </g>
      <g id="Group_104" data-name="Group 104" transform="translate(40.969 215.385)">
        <path id="Path_741" data-name="Path 741" d="M57.926,375.227H45.4l3-136.548h3.255Z" transform="translate(-45.405 -238.679)" fill="#6c5f59"/>
      </g>
      <g id="Group_109" data-name="Group 109" transform="translate(351.58 166.048)">
        <g id="Group_105" data-name="Group 105">
          <path id="Path_742" data-name="Path 742" d="M479.307,284.863a44.828,44.828,0,0,1-89.655,0C389.652,260.1,409.722,184,434.48,184S479.307,260.1,479.307,284.863Z" transform="translate(-389.652 -184)" fill="#34be71"/>
        </g>
        <g id="Group_106" data-name="Group 106" transform="translate(40.366 111.282)">
          <path id="Path_743" data-name="Path 743" d="M436.527,307.333l-2.138,90.229H447.55L443.1,307.333Z" transform="translate(-434.389 -307.333)" fill="#805f59"/>
        </g>
        <g id="Group_107" data-name="Group 107" transform="translate(44.828 108.164)">
          <path id="Path_744" data-name="Path 744" d="M439.334,320.6l20.558-16.721,2.467,4.516-23.025,20.559Z" transform="translate(-439.334 -303.877)" fill="#805f59"/>
        </g>
        <g id="Group_108" data-name="Group 108" transform="translate(27.397)">
          <path id="Path_745" data-name="Path 745" d="M437.446,184c-6.182,0-12.072,4.747-17.43,12.253a13.219,13.219,0,0,1,5.005-1.057c24.757,0,44.828,76.1,44.828,100.863a44.577,44.577,0,0,1-9.169,27.088,44.755,44.755,0,0,0,21.595-38.284C482.274,260.1,462.2,184,437.446,184Z" transform="translate(-420.016 -184)" fill="#52c883"/>
        </g>
      </g>
      <g id="Group_114" data-name="Group 114" transform="translate(25.043 158.34)">
        <g id="Group_110" data-name="Group 110">
          <path id="Path_746" data-name="Path 746" d="M120.841,280.178a46.543,46.543,0,1,1-93.086,0c0-25.705,20.838-104.721,46.543-104.721S120.841,254.473,120.841,280.178Z" transform="translate(-27.755 -175.457)" fill="#34be71"/>
        </g>
        <g id="Group_111" data-name="Group 111" transform="translate(41.911 115.539)">
          <path id="Path_747" data-name="Path 747" d="M76.424,303.508,74.2,397.189H87.869l-4.624-93.681Z" transform="translate(-74.204 -303.508)" fill="#805f59"/>
        </g>
        <g id="Group_112" data-name="Group 112" transform="translate(46.543 112.302)">
          <path id="Path_748" data-name="Path 748" d="M79.338,317.28l21.345-17.36,2.562,4.688L79.338,325.953Z" transform="translate(-79.338 -299.92)" fill="#805f59"/>
        </g>
        <g id="Group_113" data-name="Group 113" transform="translate(28.447)">
          <path id="Path_749" data-name="Path 749" d="M77.378,175.457c-6.419,0-12.534,4.928-18.1,12.722a13.711,13.711,0,0,1,5.2-1.1c25.7,0,46.543,79.016,46.543,104.721a46.28,46.28,0,0,1-9.52,28.124,46.468,46.468,0,0,0,22.42-39.749C123.921,254.473,103.084,175.457,77.378,175.457Z" transform="translate(-59.282 -175.457)" fill="#52c883"/>
        </g>
      </g>
      <g id="Group_115" data-name="Group 115" transform="translate(86.714 71.174)">
        <path id="Path_750" data-name="Path 750" d="M207.476,95.986a25.407,25.407,0,0,0-7.688,1.3,42.724,42.724,0,0,0-70.3,0,25.407,25.407,0,0,0-7.688-1.3,25.7,25.7,0,0,0-25.7,25.7H233.177A25.7,25.7,0,0,0,207.476,95.986Z" transform="translate(-96.104 -78.852)" fill="#fff"/>
      </g>
      <g id="Group_116" data-name="Group 116" transform="translate(254.584 87.791)" opacity="0.6">
        <path id="Path_751" data-name="Path 751" d="M353.01,108.17a16.182,16.182,0,0,0-4.891.827,27.182,27.182,0,0,0-44.724,0,16.173,16.173,0,0,0-4.891-.827,16.351,16.351,0,0,0-16.351,16.351h87.209A16.351,16.351,0,0,0,353.01,108.17Z" transform="translate(-282.152 -97.269)" fill="#fff"/>
      </g>
      <g id="Group_124" data-name="Group 124" transform="translate(259.86 166.048)">
        <g id="Group_117" data-name="Group 117">
          <path id="Path_752" data-name="Path 752" d="M299.926,233.594a35.71,35.71,0,0,1-1.1-8.654,35.336,35.336,0,0,1,35.189-35.481,34.947,34.947,0,0,1,5.974.549A40.1,40.1,0,0,1,361.086,184a40.772,40.772,0,0,1,40.6,40.939c0,1.014-.078,2.009-.151,3a65.488,65.488,0,0,1,16.392,43.394c0,36.176-29.085,65.5-64.965,65.5S288,307.513,288,271.337A65.511,65.511,0,0,1,299.926,233.594Z" transform="translate(-288 -184)" fill="#00a07d"/>
        </g>
        <g id="Group_122" data-name="Group 122" transform="translate(34.602 86.313)">
          <g id="Group_118" data-name="Group 118" transform="translate(24.905)">
            <path id="Path_753" data-name="Path 753" d="M365.323,394.858H353.951l2.729-115.2h2.957Z" transform="translate(-353.951 -279.66)" fill="#805f59"/>
          </g>
          <g id="Group_119" data-name="Group 119" transform="translate(0 23.637)">
            <path id="Path_754" data-name="Path 754" d="M355.007,326.668,329.42,305.857l-3.071,1.706,28.658,25.587Z" transform="translate(-326.349 -305.857)" fill="#805f59"/>
          </g>
          <g id="Group_120" data-name="Group 120" transform="translate(10.917 5.118)">
            <path id="Path_755" data-name="Path 755" d="M357.894,299.454l-17.362-14.122-2.084,1.158,19.446,17.362Z" transform="translate(-338.448 -285.332)" fill="#805f59"/>
          </g>
          <g id="Group_121" data-name="Group 121" transform="translate(30.363 12.721)">
            <path id="Path_756" data-name="Path 756" d="M360,314.568l25.587-20.81,3.07,1.706L360,321.051Z" transform="translate(-360 -293.758)" fill="#805f59"/>
          </g>
        </g>
        <g id="Group_123" data-name="Group 123" transform="translate(19.735)">
          <path id="Path_757" data-name="Path 757" d="M403.675,227.944c.072-1,.151-1.99.151-3a40.772,40.772,0,0,0-40.6-40.94,40.1,40.1,0,0,0-21.095,6.007,34.283,34.283,0,0,0-32.256,11.553,34.614,34.614,0,0,1,11.844-2.209,35.038,35.038,0,0,1,5.974.549,40.108,40.108,0,0,1,21.095-6.007,40.772,40.772,0,0,1,40.6,40.94c0,1.015-.078,2.009-.151,3a65.637,65.637,0,0,1-5.251,92.108,65.636,65.636,0,0,0,19.689-102Z" transform="translate(-309.872 -184)" fill="#36b294"/>
        </g>
      </g>
      <g id="Group_132" data-name="Group 132" transform="translate(61.947 145.688)">
        <g id="Group_125" data-name="Group 125">
          <path id="Path_758" data-name="Path 758" d="M199.658,216.039a38.879,38.879,0,0,0-44.479-47.989,45.007,45.007,0,0,0-68.494,38.461c0,1.117.087,2.212.167,3.309a72.11,72.11,0,1,0,112.806,6.219Z" transform="translate(-68.655 -161.435)" fill="#00a07d"/>
        </g>
        <g id="Group_127" data-name="Group 127" transform="translate(21.755)">
          <g id="Group_126" data-name="Group 126">
            <path id="Path_759" data-name="Path 759" d="M202.014,216.039a38.879,38.879,0,0,0-44.479-47.989,44.973,44.973,0,0,0-64.769,20.536,43.841,43.841,0,0,1,55.9-8.752,38.268,38.268,0,0,1,6.442-.583,37.809,37.809,0,0,1,37.947,37.67,37.366,37.366,0,0,1-1.185,9.188,69.022,69.022,0,0,1-13.471,94.36,71.984,71.984,0,0,0,23.61-104.43Z" transform="translate(-92.766 -161.435)" fill="#36b294"/>
          </g>
        </g>
        <g id="Group_131" data-name="Group 131" transform="translate(38.691 85.325)">
          <g id="Group_128" data-name="Group 128" transform="translate(27.421)">
            <path id="Path_760" data-name="Path 760" d="M154.447,392.547H141.926l3-136.547h3.255Z" transform="translate(-141.926 -256)" fill="#805f59"/>
          </g>
          <g id="Group_129" data-name="Group 129" transform="translate(0 29.725)">
            <path id="Path_761" data-name="Path 761" d="M143.088,311.858l-28.172-22.914-3.38,1.879,31.552,28.171Z" transform="translate(-111.536 -288.944)" fill="#805f59"/>
          </g>
          <g id="Group_130" data-name="Group 130" transform="translate(33.431 17.705)">
            <path id="Path_762" data-name="Path 762" d="M148.587,298.536l28.172-22.914,3.38,1.879-31.552,28.172Z" transform="translate(-148.587 -275.622)" fill="#805f59"/>
          </g>
        </g>
      </g>
      <g id="Group_144" data-name="Group 144" transform="translate(144.367 101.083)">
        <g id="Group_133" data-name="Group 133">
          <path id="Path_763" data-name="Path 763" d="M317.339,177.581a46.694,46.694,0,0,0-53.42-57.637,54.054,54.054,0,0,0-82.264,46.193c0,1.342.1,2.656.2,3.974a86.607,86.607,0,1,0,135.484,7.47Z" transform="translate(-160 -112)" fill="#34be71"/>
        </g>
        <g id="Group_138" data-name="Group 138" transform="translate(10.883)">
          <g id="Group_135" data-name="Group 135" transform="translate(15.245)">
            <g id="Group_134" data-name="Group 134">
              <path id="Path_764" data-name="Path 764" d="M320.168,177.581a46.694,46.694,0,0,0-53.42-57.637,54.014,54.014,0,0,0-77.79,24.665A52.655,52.655,0,0,1,256.1,134.1a46.021,46.021,0,0,1,7.737-.7,45.411,45.411,0,0,1,45.576,45.244,44.83,44.83,0,0,1-1.423,11.035,82.9,82.9,0,0,1-16.18,113.331,86.456,86.456,0,0,0,28.356-125.425Z" transform="translate(-188.958 -112)" fill="#52c883"/>
            </g>
          </g>
          <g id="Group_137" data-name="Group 137" transform="translate(0 69.277)">
            <g id="Group_136" data-name="Group 136">
              <path id="Path_765" data-name="Path 765" d="M174.738,189.975c-.029-.4-.033-.8-.06-1.2-.925,1.455-1.777,2.957-2.616,4.468C172.947,192.151,173.8,191.026,174.738,189.975Z" transform="translate(-172.062 -188.779)" fill="#52c883"/>
            </g>
          </g>
        </g>
        <g id="Group_143" data-name="Group 143" transform="translate(46.468 114.14)">
          <g id="Group_139" data-name="Group 139" transform="translate(32.934)">
            <path id="Path_766" data-name="Path 766" d="M263.039,390.837H248L251.609,238.5h3.91Z" transform="translate(-248 -238.5)" fill="#805f59"/>
          </g>
          <g id="Group_140" data-name="Group 140" transform="translate(0 31.258)">
            <path id="Path_767" data-name="Path 767" d="M249.4,300.663l-33.836-27.52L211.5,275.4l37.9,33.836Z" transform="translate(-211.5 -273.143)" fill="#805f59"/>
          </g>
          <g id="Group_141" data-name="Group 141" transform="translate(14.437 6.767)">
            <path id="Path_768" data-name="Path 768" d="M253.215,264.674,230.256,246l-2.756,1.53,25.715,22.961Z" transform="translate(-227.5 -246)" fill="#805f59"/>
          </g>
          <g id="Group_142" data-name="Group 142" transform="translate(40.152 16.821)">
            <path id="Path_769" data-name="Path 769" d="M256,284.663l33.836-27.52,4.06,2.256L256,293.235Z" transform="translate(-256 -257.143)" fill="#805f59"/>
          </g>
        </g>
      </g>
      <g id="Group_145" data-name="Group 145" transform="translate(186.377 33.821)" opacity="0.6">
        <path id="Path_770" data-name="Path 770" d="M206.559,63.351A17.932,17.932,0,0,1,229.046,45.81a25.825,25.825,0,0,1,44.845,17.541Z" transform="translate(-206.559 -37.454)" fill="#fff"/>
      </g>
      <g id="Group_146" data-name="Group 146" transform="translate(238.85 47.632)">
        <path id="Path_771" data-name="Path 771" d="M305.459,68.455a10.85,10.85,0,0,0-13.607-10.63,15.623,15.623,0,0,0-27.137,10.629h40.744Z" transform="translate(-264.715 -52.761)" fill="#fff"/>
      </g>
      <g id="Group_147" data-name="Group 147" transform="translate(324.825 69.585)">
        <path id="Path_772" data-name="Path 772" d="M360,95.3a12.736,12.736,0,0,1,12.726-12.745,12.582,12.582,0,0,1,3.06.413A18.123,18.123,0,0,1,407.267,95.3Z" transform="translate(-360 -77.091)" fill="#fff"/>
      </g>
    </g>
  </g>
</svg>
