<svg xmlns="http://www.w3.org/2000/svg" width="156.506" height="239.286" viewBox="0 0 156.506 239.286">
  <g id="Group_28" data-name="Group 28" transform="translate(-877.105 -524.758)">
    <path id="Path_413" data-name="Path 413" d="M808.65,417.083c-.944-3.187-3.541-5.548-6.492-7.318-11.1-6.492-44.736,9.207-52.054,8.735,8.853,9.089,33.876,31.043,51.582,31.043,2.833,0,5.43-2.361,6.728-4.957,1.771-3.659.118-8.145-2.833-10.977s-6.846-4.249-10.623-5.666C801.568,427.824,811.365,427,808.65,417.083Z" transform="translate(127 117)" fill="#a5c44b" fill-rule="evenodd"/>
    <path id="Path_414" data-name="Path 414" d="M863.183,454.028c2.715.236,5.312-1.3,7.554-3.069,8.263-6.846,5.312-37.653,7.672-43.2-9.561,4.367-33.758,17.941-38.716,31.751-.826,2.243.354,4.957,2.007,6.61,2.361,2.361,6.374,2.361,9.443.944,3.069-1.534,5.194-4.131,7.436-6.728C856.809,445.529,854.684,453.438,863.183,454.028Z" transform="translate(127 117)" fill="#a5c44b" fill-rule="evenodd"/>
    <path id="Path_415" data-name="Path 415" d="M862.474,550.7a5.23,5.23,0,0,0,3.9-1.3c4.485-3.187,4.131-19,5.666-21.719-5.075,1.889-17.941,7.79-21.01,14.636a3.442,3.442,0,0,0,.826,3.423c1.062,1.3,3.187,1.417,4.721.826a11.435,11.435,0,0,0,4.013-3.187C859.524,546.1,858.225,549.991,862.474,550.7Z" transform="translate(127 117)" fill="#a5c44b" fill-rule="evenodd"/>
    <path id="Path_416" data-name="Path 416" d="M817.739,524.023a5.411,5.411,0,0,1-4.013-.944c-4.721-2.715-5.784-18.532-7.554-21.246,5.194,1.416,18.532,6.256,22.309,12.748a3.543,3.543,0,0,1-.472,3.541c-.944,1.416-3.069,1.771-4.721,1.18a12.772,12.772,0,0,1-4.249-2.833C820.336,519.183,821.988,523.079,817.739,524.023Z" transform="translate(127 117)" fill="#a5c44b" fill-rule="evenodd"/>
    <path id="Path_417" data-name="Path 417" d="M859.287,544.443c-.472.472-1.18,1.062-1.889,1.771a16.938,16.938,0,0,0-2.243,2.6,58.352,58.352,0,0,0-4.131,6.02c-1.062-12.748-2.361-25.378-3.777-38.125-.118-1.062-.118-2.007-.236-3.069,0-.708-.118-1.416-.118-2.124.708-9.325,1.653-18.177,2.715-26.2.59-4.367,1.18-8.617,1.771-12.512s1.18-7.554,1.889-10.859c.59-3.3,1.18-6.374,1.77-8.971.472-2.6.944-4.957,1.416-6.728.826-3.777,1.18-5.784,1.18-5.784s-.708,2.007-2.007,5.548c-.59,1.771-1.416,4.013-2.125,6.61-.826,2.6-1.771,5.548-2.6,8.853-.944,3.3-1.889,6.964-2.715,10.859-.944,3.9-1.77,8.144-2.6,12.512-.236,1.653-.59,3.305-.826,5.076v-.354a120.644,120.644,0,0,0-3.659-17.941c0-.236-.118-.472-.118-.708a2.224,2.224,0,0,0-.472-1.062,18.239,18.239,0,0,0-.826-2.715,71.275,71.275,0,0,0-9.325-19,60.152,60.152,0,0,0-12.984-13.22,46.8,46.8,0,0,0-13.456-6.846,39.631,39.631,0,0,0-11.213-1.889h-2.243a9.177,9.177,0,0,0-1.889.236,17.178,17.178,0,0,0-2.951.472c-1.534.354-2.361.59-2.361.59s.826-.118,2.479-.236a21.847,21.847,0,0,1,2.951-.118h1.889c.708.118,1.416.118,2.125.236A39.106,39.106,0,0,1,803.1,430.3a49.294,49.294,0,0,1,11.922,7.672,57.1,57.1,0,0,1,10.859,12.984,71.484,71.484,0,0,1,7.436,18.06c3.777,13.338,4.721,29.037,5.9,45.562.708,10.151,1.3,20.066,1.653,29.509a60.224,60.224,0,0,0-2.715-6.61,53.963,53.963,0,0,0-6.02-9.207,46,46,0,0,0-6.256-6.374,53.34,53.34,0,0,0-4.721-3.659c-1.18-.708-1.889-1.18-1.889-1.18s.472.59,1.3,1.771c.826,1.062,2.125,2.715,3.541,4.721s3.069,4.367,4.721,7.082,3.423,5.784,5.075,8.971c1.653,3.305,3.069,6.374,4.367,9.325,1.18,2.951,2.243,5.666,3.069,8.026,0,.118,0,.118.118.236.472,15.817.472,29.981.59,41.785.118,10.859.118,19.712.236,25.732.118,6.138.118,9.443.118,9.443s.354-3.3,1.062-9.443c.354-3.3.826-7.318,1.3-12.158.118,2.243.354,4.485.59,6.846a2.856,2.856,0,0,0,4.249,2.125v1.534c.118,3.3,5.312,3.423,5.194,0q-.708-29.214-2.833-58.427c.708-2.361,1.416-4.485,2.125-6.61a73.683,73.683,0,0,1,3.3-7.79c.472-1.18,1.062-2.125,1.416-2.951.472-.826.826-1.653,1.18-2.243.708-1.18,1.062-1.889,1.062-1.889A12.216,12.216,0,0,0,859.287,544.443Z" transform="translate(127 117)" fill="#754c29" fill-rule="evenodd"/>
    <path id="Path_418" data-name="Path 418" d="M904.967,643.239c-27.266,3.3-37.535.59-38.716.59-17.587.118-23.135,6.02-43.555,1.534-9.325-2.007-25.26,1.062-35.529-.236-9.207-1.18,15.935-18.414,23.017-22.781,7.554-4.6,15.935-14.518,23.489-19.122a31.824,31.824,0,0,1,5.194-2.833,15.014,15.014,0,0,1,6.02-1.416h.59c3.187.236,6.256,1.771,9.089,3.3,7.79,4.131,15.463,8.262,23.253,12.394,4.131,2.125,8.262,4.485,11.331,7.908,2.361,2.6,3.9,5.784,6.61,8.026,2.479,2.007,5.666,2.951,7.908,5.194C906.148,637.927,908.154,642.885,904.967,643.239Z" transform="translate(127 117)" fill="#322b27" fill-rule="evenodd"/>
  </g>
</svg>
