<svg xmlns="http://www.w3.org/2000/svg" width="597" height="597" viewBox="0 0 597 597">
  <g id="Group_282" data-name="Group 282" transform="translate(-811.606 -973)">
    <circle id="Ellipse_73" data-name="Ellipse 73" cx="298.5" cy="298.5" r="298.5" transform="translate(811.606 973)" fill="#f2f2f2"/>
    <g id="river" transform="translate(878.858 1040.858)">
      <g id="Group_37" data-name="Group 37">
        <path id="Path_824" data-name="Path 824" d="M231,0C358.578,0,462,103.422,462,231S358.578,462,231,462,0,358.578,0,231,103.422,0,231,0Z" transform="translate(0.142 0.142)" fill="#94aaef"/>
      </g>
      <g id="Group_38" data-name="Group 38" transform="translate(268.57 66.711)">
        <path id="Path_677" data-name="Path 677" d="M422.431,73.886a40.872,40.872,0,0,0-26.207,30.287c-.275,0-.542-.042-.818-.042A48.989,48.989,0,0,0,348.721,138.3,40.293,40.293,0,0,0,297.454,177.6l23.109,72.7s133.915,10.072,136.667,9.594c1.294-.225,17.188-15.763,33.663-32.437A230.372,230.372,0,0,0,422.431,73.886Z" transform="translate(-297.454 -73.886)" fill="#c5f8f1"/>
      </g>
      <g id="Group_39" data-name="Group 39" transform="translate(0 77.047)">
        <path id="Path_678" data-name="Path 678" d="M273.654,180.164c.042-.878.133-1.743.133-2.631a53.436,53.436,0,0,0-60.809-53.273,69.044,69.044,0,0,0-124.858,1.269,57.431,57.431,0,0,0-40.991-17.147,58.107,58.107,0,0,0-6.661.416A230.026,230.026,0,0,0,0,239.428c0,1.451.083,2.882.109,4.327,6.164,2.339,14.107,3.736,24.35,3.622,55.033-.611,224.663-18.227,227.812-17.711S301.9,239,301.9,239a46.1,46.1,0,0,0-28.243-58.838Z" transform="translate(0 -85.333)" fill="#defbf2"/>
      </g>
      <g id="Group_40" data-name="Group 40" transform="translate(0 164.249)">
        <path id="Path_679" data-name="Path 679" d="M5.909,196.969A231.664,231.664,0,0,0,0,248.806C0,376.462,103.486,479.948,231.142,479.948S462.283,376.462,462.283,248.806a232.279,232.279,0,0,0-3.554-40.183c-41.623,1.8-43.251,32.848-95.359,32.848l-73.527.85c-17.933,0-94.387-60.407-143.468-60.407C98.13,181.913,64.418,196.472,5.909,196.969Z" transform="translate(0 -181.913)" fill="#94d75b"/>
      </g>
      <g id="Group_41" data-name="Group 41" transform="translate(171.053 243.413)">
        <path id="Path_680" data-name="Path 680" d="M322.916,283.822c10.09-35.674-37.607,6.518-39.441,10.186-1.366,2.733-62.78,124.544-94.026,186.516A231.267,231.267,0,0,0,387.93,442.466l12.033-56.325C381.619,347.209,312.826,319.5,322.916,283.822Z" transform="translate(-189.449 -269.591)" fill="#71be63"/>
      </g>
      <g id="Group_42" data-name="Group 42" transform="translate(0.226 233.053)">
        <path id="Path_681" data-name="Path 681" d="M37.752,382.713l186.364-33.562L252.3,258.117C204.873,266.6,148.548,288,78.906,268.184c-22.878-6.51-57.479-10.067-78.656-3.033A229.836,229.836,0,0,0,37.752,382.713Z" transform="translate(-0.25 -258.117)" fill="#71be63"/>
      </g>
      <g id="Group_43" data-name="Group 43" transform="translate(127.696 243.12)">
        <path id="Path_682" data-name="Path 682" d="M156.82,441.651c-4.116,5.382-9.762,13.722-15.391,22.328A229.665,229.665,0,0,0,228.3,487.773c51.7-37.057,80.263-198.12,97.154-218.506C325.457,269.267,168.745,426.059,156.82,441.651Z" transform="translate(-141.429 -269.267)" fill="#ffefc6"/>
      </g>
      <g id="Group_44" data-name="Group 44" transform="translate(189.291 341.211)">
        <path id="Path_683" data-name="Path 683" d="M216.989,414.594a7.338,7.338,0,0,1-5.438-12.264,208.749,208.749,0,0,0,16.725-21.272,7.339,7.339,0,0,1,12.053,8.377,224.935,224.935,0,0,1-17.9,22.748A7.323,7.323,0,0,1,216.989,414.594Z" transform="translate(-209.649 -377.907)" fill="#646464"/>
      </g>
      <g id="Group_45" data-name="Group 45" transform="translate(220.73 267.822)">
        <path id="Path_684" data-name="Path 684" d="M251.8,362.675a7.338,7.338,0,0,1-6.285-11.111c4.658-7.778,9.086-15.589,13.378-23.164,5.725-10.1,11.135-19.649,16.646-28.355a7.336,7.336,0,1,1,12.4,7.846c-5.317,8.406-10.642,17.8-16.274,27.742-4.349,7.678-8.836,15.593-13.565,23.475A7.326,7.326,0,0,1,251.8,362.675Z" transform="translate(-244.468 -296.626)" fill="#646464"/>
      </g>
      <g id="Group_46" data-name="Group 46" transform="translate(91.722 361.211)">
        <path id="Path_685" data-name="Path 685" d="M108.918,416.745a7.338,7.338,0,0,1-.645-14.647c4.665-.419,9.373-1.064,13.988-1.92a7.339,7.339,0,0,1,2.68,14.432c-5.066.939-10.233,1.648-15.364,2.106C109.355,416.734,109.132,416.745,108.918,416.745Z" transform="translate(-101.587 -400.058)" fill="#646464"/>
      </g>
      <g id="Group_47" data-name="Group 47" transform="translate(135.747 330.46)">
        <path id="Path_686" data-name="Path 686" d="M157.687,402.844a7.34,7.34,0,0,1-2.774-14.135A126.294,126.294,0,0,0,189.6,367.771a7.335,7.335,0,1,1,9.559,11.128,140.629,140.629,0,0,1-38.7,23.4A7.3,7.3,0,0,1,157.687,402.844Z" transform="translate(-150.346 -366)" fill="#646464"/>
      </g>
      <g id="Group_48" data-name="Group 48" transform="translate(9.724 164.249)">
        <path id="Path_687" data-name="Path 687" d="M288.37,241.9c-21.5-4.363-93.787-59.983-140.948-59.983S66.911,195.794,10.77,196.879c6.3.306,15.786-.19,29.3-1.743C206.335,176.039,180.824,241.9,288.37,241.9Z" transform="translate(-10.77 -181.913)" fill="#b0eb81"/>
      </g>
      <g id="Group_49" data-name="Group 49" transform="translate(15.612 233.053)">
        <path id="Path_688" data-name="Path 688" d="M17.291,339.7a230.533,230.533,0,0,0,27.622,51.022l132.873-24.859,81.891-97.432-5.728-10.317C204.675,274.158,120.542,348,17.291,339.7Z" transform="translate(-17.291 -258.117)" fill="#ffefc6"/>
      </g>
      <g id="Group_50" data-name="Group 50" transform="translate(27.816 223.809)">
        <path id="Path_689" data-name="Path 689" d="M366.1,247.879l-73.267.847a14.92,14.92,0,0,1-2.519-.424c-90.152,7.443-112.639,115.862-259.509,116.926a231.846,231.846,0,0,0,126.515,108C287.612,405.45,263.112,248,366.1,247.879Z" transform="translate(-30.808 -247.879)" fill="#57b9e7"/>
      </g>
      <g id="Group_51" data-name="Group 51" transform="translate(2.681 252.716)">
        <path id="Path_690" data-name="Path 690" d="M101.548,302.8a9.267,9.267,0,0,0-18.162-2.251,13.273,13.273,0,0,0-25.368-.48,15.586,15.586,0,0,0-8.282-7.969,15.524,15.524,0,0,0-29.2-3.3,18.429,18.429,0,0,0-5.549-.934,18.489,18.489,0,0,0-12.014,4.494,229.764,229.764,0,0,0,7.8,34.557c46.46,2.153,102.124-11.6,128.935-27.621A335.73,335.73,0,0,1,101.548,302.8Z" transform="translate(-2.969 -279.895)" fill="#43ab5f"/>
      </g>
      <g id="Group_52" data-name="Group 52" transform="translate(248.07 325.741)">
        <path id="Path_691" data-name="Path 691" d="M460.355,377.583a44.375,44.375,0,0,0-79.15,27.59c0,.5.058.981.074,1.476a40.205,40.205,0,0,0-20.033,10.978,42.82,42.82,0,0,0-59.4,39.465,27.1,27.1,0,0,0-27.1,27.1,26.805,26.805,0,0,0,3.032,12.21A231.122,231.122,0,0,0,460.355,377.583Z" transform="translate(-274.749 -360.773)" fill="#43ab5f"/>
      </g>
      <g id="Group_53" data-name="Group 53" transform="translate(195.486 223.964)">
        <path id="Path_692" data-name="Path 692" d="M234.971,299.251c-30.354,36.85-19.6,59.874,5.762,35.776,44.5-42.286,99.127-85.344,130.056-86.977l-59.921.693C283.879,253.151,264.056,263.942,234.971,299.251Z" transform="translate(-216.51 -248.05)" fill="#79ceea"/>
      </g>
      <g id="Group_56" data-name="Group 56" transform="translate(100.482 284.307)">
        <g id="Group_54" data-name="Group 54" transform="translate(0 1.021)">
          <path id="Path_693" data-name="Path 693" d="M292.575,316.014C279.3,341.251,203.3,438.1,111.288,452.41a230.621,230.621,0,0,0,53.849,27.434C242.479,439.611,265.276,367.778,292.575,316.014Z" transform="translate(-111.288 -316.014)" fill="#3c9bd4"/>
        </g>
        <g id="Group_55" data-name="Group 55" transform="translate(181.357)">
          <path id="Path_694" data-name="Path 694" d="M312.149,315.774c.16-.3.325-.589.486-.891h-.007C312.494,315.15,312.3,315.488,312.149,315.774Z" transform="translate(-312.149 -314.883)" fill="#3c9bd4"/>
        </g>
      </g>
      <g id="Group_57" data-name="Group 57" transform="translate(27.816 251.974)">
        <path id="Path_695" data-name="Path 695" d="M223.12,279.073c-47.131,34.472-88.883,88.433-192.313,89.184A230.671,230.671,0,0,0,43,388.181C132.015,386.654,188.783,305.652,223.12,279.073Z" transform="translate(-30.807 -279.073)" fill="#3c9bd4"/>
      </g>
      <g id="Group_58" data-name="Group 58" transform="translate(360.389 190.958)">
        <path id="Path_696" data-name="Path 696" d="M497.488,211.495c-41.623,1.8-43.251,32.848-95.359,32.848l-2.98.034c10.593,4.172,23.474,6.928,37.228,4.549,41.141-7.115,57-6.7,64.537-2.85A233.863,233.863,0,0,0,497.488,211.495Z" transform="translate(-399.148 -211.495)" fill="#b0eb81"/>
      </g>
    </g>
  </g>
</svg>
