<svg xmlns="http://www.w3.org/2000/svg" width="1011.667" height="823.793" viewBox="0 0 1011.667 823.793">
  <g id="Group_16" data-name="Group 16" transform="translate(-1554 -4737)">
    <circle id="Ellipse_13" data-name="Ellipse 13" cx="216.462" cy="216.462" r="216.462" transform="translate(1834.007 5080.094)" fill="#f2f2f2"/>
    <g id="Group_15" data-name="Group 15">
      <g id="Group_14" data-name="Group 14" transform="translate(-324 1961)">
        <ellipse id="Ellipse_14" data-name="Ellipse 14" cx="205.412" cy="28.061" rx="205.412" ry="28.061" transform="translate(2414.478 3493.172)" fill="#3f3d56"/>
        <path id="Path_270" data-name="Path 270" d="M411.507,832.9c-.212-.346-5.212-8.695-6.945-26.03-1.59-15.9-.568-42.712,13.335-80.106,26.338-70.841-6.07-128-6.4-128.569l1.6-.928c.084.144,8.447,14.718,13.387,37.923a165.447,165.447,0,0,1-6.852,92.218c-26.293,70.72-6.746,104.2-6.545,104.529Z" transform="translate(2074.835 2683.647)" fill="#3f3d56"/>
        <circle id="Ellipse_17" data-name="Ellipse 17" cx="12.012" cy="12.012" r="12.012" transform="translate(2464.031 3253.658)" fill="#3f3d56"/>
        <circle id="Ellipse_18" data-name="Ellipse 18" cx="12.012" cy="12.012" r="12.012" transform="translate(2501.914 3298.008)" fill="#3f3d56"/>
        <circle id="Ellipse_19" data-name="Ellipse 19" cx="12.012" cy="12.012" r="12.012" transform="translate(2476.043 3327.575)" fill="#388e3c"/>
        <circle id="Ellipse_20" data-name="Ellipse 20" cx="12.012" cy="12.012" r="12.012" transform="translate(2507.458 3352.522)" fill="#388e3c"/>
        <circle id="Ellipse_21" data-name="Ellipse 21" cx="12.012" cy="12.012" r="12.012" transform="translate(2466.803 3391.329)" fill="#3f3d56"/>
        <path id="Path_271" data-name="Path 271" d="M418.763,833.341s-12.012-29.567,24.023-51.742Z" transform="translate(2074.835 2683.647)" fill="#3f3d56"/>
        <path id="Path_272" data-name="Path 272" d="M403.991,832.8s-5.467-31.442-47.777-31.172Z" transform="translate(2074.835 2683.647)" fill="#3f3d56"/>
      </g>
      <g id="Group_13" data-name="Group 13" transform="translate(-593 2019)">
        <path id="Path_273" data-name="Path 273" d="M191.762,0l42.279,23.132L152.123,77.386,112.936,51.535Z" transform="translate(2214 2718)" fill="#3f3d56"/>
        <path id="Path_274" data-name="Path 274" d="M90.089,73.493,0,131.572l41.837,24.865,90.055-60.119Z" transform="translate(2214 2718)" fill="#3f3d56"/>
        <path id="Path_275" data-name="Path 275" d="M245.835,79.02a35.508,35.508,0,0,0-19.113,24.2,10.494,10.494,0,0,0,3.442,10.5l26.044,22a12.072,12.072,0,0,0,13.651,1.317c10.589-5.872,27.594-18.2,20-33.809a10.793,10.793,0,0,0-3.76-4.27L257.074,79.76a11.331,11.331,0,0,0-11.239-.74Z" transform="translate(2074.835 2683.647)" fill="#d0cde1"/>
        <ellipse id="Ellipse_22" data-name="Ellipse 22" cx="42.841" cy="29.094" rx="42.841" ry="29.094" transform="matrix(0.597, -0.802, 0.802, 0.597, 2327.303, 2831.619)" fill="#3f3d56"/>
        <path id="Path_276" data-name="Path 276" d="M288.128,164.859c5.281,3.934,17.84-3.821,29.129-17.579q1.5-1.824,2.965-3.789,1.073-1.443,2.069-2.886c10.468-15.126,14.606-29.962,9.2-33.987-5.447-4.058-18.625,4.311-30.178,18.871q-.968,1.224-1.917,2.5a98.9,98.9,0,0,0-6.057,9.14C285.893,149.907,283.472,161.391,288.128,164.859Z" transform="translate(2074.835 2683.647)" opacity="0.2"/>
        <path id="Path_277" data-name="Path 277" d="M293.339,137.126l23.918,10.155,17.113,7.265,2.531-3.416-14.61-10.523L301.312,125.49q-.968,1.224-1.917,2.5a98.9,98.9,0,0,0-6.057,9.14Z" transform="translate(2074.835 2683.647)" fill="#d0cde1"/>
        <circle id="Ellipse_23" data-name="Ellipse 23" cx="5.199" cy="5.199" r="5.199" transform="translate(2408.645 2833.621)" fill="#d0cde1"/>
        <path id="Path_278" data-name="Path 278" d="M340.535,210.092a2.482,2.482,0,0,1,1.176-.6c28-5.786,45.622-21.909,53.865-49.289a2.491,2.491,0,0,1,4.771,1.436c-8.7,28.887-28.085,46.628-57.628,52.732a2.491,2.491,0,0,1-2.184-4.279Z" transform="translate(2074.835 2683.647)" fill="#388e3c"/>
        <path id="Path_279" data-name="Path 279" d="M333.643,188.415a2.477,2.477,0,0,1,1.176-.6c21-4.339,34.207-16.427,40.388-36.957a2.491,2.491,0,1,1,4.771,1.436c-6.663,22.131-21.517,35.723-44.151,40.4a2.491,2.491,0,0,1-2.184-4.279Z" transform="translate(2074.835 2683.647)" fill="#388e3c"/>
        <path id="Path_280" data-name="Path 280" d="M350.717,232.289a2.476,2.476,0,0,1,1.176-.6c27.945-5.774,58.5-33.737,66.73-61.061a2.491,2.491,0,1,1,4.771,1.436c-8.69,28.865-40.972,58.4-70.493,64.5a2.491,2.491,0,0,1-2.184-4.279Z" transform="translate(2074.835 2683.647)" fill="#388e3c"/>
      </g>
      <g id="undraw_environmental_study_skau" transform="translate(1554 4868)">
        <path id="Path_289" data-name="Path 289" d="M1051.344,667.293c-4.367,0-8.557,2.122-12.462,5.979-10.622-38.277-27.065-62.876-45.538-62.876s-34.916,24.6-45.538,62.876c-3.905-3.857-8.1-5.979-12.462-5.979-20.987,0-38,48.4-38,108.1h192C1089.344,715.693,1072.331,667.293,1051.344,667.293Z" transform="translate(-94.166 -103.603)" fill="#388e3c"/>
        <path id="Path_290" data-name="Path 290" d="M483.344,606.121a21.136,21.136,0,0,0-12.462,4.385c-10.622-28.07-27.065-46.109-45.538-46.109s-34.916,18.039-45.538,46.109a21.136,21.136,0,0,0-12.462-4.385c-20.987,0-38,35.493-38,79.276h192C521.344,641.614,504.331,606.121,483.344,606.121Z" transform="translate(-94.166 -103.603)" fill="#388e3c"/>
        <path id="Path_291" data-name="Path 291" d="M1105.834,796.4H95.854c.91-82.06,226.66-148.5,504.99-148.5S1104.924,714.336,1105.834,796.4Z" transform="translate(-94.166 -103.603)" fill="#3f3d56"/>
        <circle id="Ellipse_26" data-name="Ellipse 26" cx="129.177" cy="129.177" r="129.177" transform="translate(0 111.793)" fill="rgba(56,142,60,0.38)"/>
        <path id="Path_292" data-name="Path 292" d="M227.511,714.4h-7.292V359.607a122.118,122.118,0,0,1,3.646-29.618h0a122.118,122.118,0,0,1,3.646,29.618Z" transform="translate(-94.166 -103.603)" fill="#3f3d56"/>
        <path id="Path_293" data-name="Path 293" d="M224.274,454.432l-3.841-6.2L274.389,414.8a22.974,22.974,0,0,1,12.477-3.442h0A22.974,22.974,0,0,1,278.23,421Z" transform="translate(-94.166 -103.603)" fill="#3f3d56"/>
        <path id="Path_294" data-name="Path 294" d="M221.732,420.736l3.841-6.2-37.131-23.009a13.816,13.816,0,0,0-9.87-1.827h0a13.816,13.816,0,0,0,6.029,8.025Z" transform="translate(-94.166 -103.603)" fill="#3f3d56"/>
        <path id="Path_295" data-name="Path 295" d="M221.732,562.415l3.841-6.2-37.131-23.009a13.816,13.816,0,0,0-9.87-1.827h0a13.816,13.816,0,0,0,6.029,8.025Z" transform="translate(-94.166 -103.603)" fill="#3f3d56"/>
        <circle id="Ellipse_27" data-name="Ellipse 27" cx="124" cy="124" r="124" transform="translate(690.177 118.793)" fill="rgba(56,142,60,0.44)"/>
        <path id="Path_296" data-name="Path 296" d="M904.344,701.4h7V360.827a117.222,117.222,0,0,0-3.5-28.431h0a117.222,117.222,0,0,0-3.5,28.431Z" transform="translate(-94.166 -103.603)" fill="#3f3d56"/>
        <path id="Path_297" data-name="Path 297" d="M907.451,451.852l3.687-5.95-51.793-32.095a22.053,22.053,0,0,0-11.977-3.3h0a22.053,22.053,0,0,0,8.29,9.255Z" transform="translate(-94.166 -103.603)" fill="#3f3d56"/>
        <path id="Path_298" data-name="Path 298" d="M909.891,419.506l-3.687-5.95,35.643-22.087a13.262,13.262,0,0,1,9.474-1.753h0a13.263,13.263,0,0,1-5.787,7.7Z" transform="translate(-94.166 -103.603)" fill="#3f3d56"/>
        <path id="Path_299" data-name="Path 299" d="M909.891,555.506l-3.687-5.95,35.643-22.087a13.262,13.262,0,0,1,9.474-1.753h0a13.263,13.263,0,0,1-5.787,7.7Z" transform="translate(-94.166 -103.603)" fill="#3f3d56"/>
        <rect id="Rectangle_3" data-name="Rectangle 3" width="107.456" height="9.575" transform="translate(547.195 130.28) rotate(180)" fill="#3f3d56"/>
        <rect id="Rectangle_4" data-name="Rectangle 4" width="107.456" height="9.575" transform="translate(547.195 165.554) rotate(180)" fill="#3f3d56"/>
        <rect id="Rectangle_5" data-name="Rectangle 5" width="107.456" height="9.575" transform="translate(547.195 197.154) rotate(180)" fill="#3f3d56"/>
        <path id="Path_316" data-name="Path 316" d="M265.286,217.735l52.706-53.7h59.582v-2H317.157l-.294.3-53,54Z" fill="#3f3d56"/>
        <circle id="Ellipse_29" data-name="Ellipse 29" cx="11.758" cy="11.758" r="11.758" transform="translate(394.177 116.674)" fill="#388e3c"/>
        <circle id="Ellipse_30" data-name="Ellipse 30" cx="11.758" cy="11.758" r="11.758" transform="translate(394.177 151.948)" fill="#388e3c"/>
        <circle id="Ellipse_31" data-name="Ellipse 31" cx="11.758" cy="11.758" r="11.758" transform="translate(394.177 183.548)" fill="#388e3c"/>
        <path id="Path_317" data-name="Path 317" d="M493.488,229.1a12.493,12.493,0,1,1,12.493,12.493A12.493,12.493,0,0,1,493.488,229.1Zm1.47,0a11.023,11.023,0,1,0,11.023-11.023A11.023,11.023,0,0,0,494.958,229.1Z" transform="translate(-94.166 -103.603)" fill="#3f3d56"/>
        <path id="Path_318" data-name="Path 318" d="M493.488,264.37a12.493,12.493,0,1,1,12.493,12.493,12.493,12.493,0,0,1-12.493-12.493Zm1.47,0a11.023,11.023,0,1,0,11.023-11.023,11.023,11.023,0,0,0-11.023,11.023Z" transform="translate(-94.166 -103.603)" fill="#3f3d56"/>
        <path id="Path_319" data-name="Path 319" d="M493.488,295.97a12.493,12.493,0,1,1,12.493,12.493,12.493,12.493,0,0,1-12.493-12.493Zm1.47,0a11.023,11.023,0,1,0,11.023-11.023,11.023,11.023,0,0,0-11.023,11.023Z" transform="translate(-94.166 -103.603)" fill="#3f3d56"/>
        <rect id="Rectangle_6" data-name="Rectangle 6" width="107.456" height="9.575" transform="translate(536.284 7.705)" fill="#3f3d56"/>
        <rect id="Rectangle_7" data-name="Rectangle 7" width="107.456" height="9.575" transform="translate(536.284 42.979)" fill="#3f3d56"/>
        <rect id="Rectangle_8" data-name="Rectangle 8" width="107.456" height="9.575" transform="translate(536.284 74.578)" fill="#3f3d56"/>
        <path id="Path_320" data-name="Path 320" d="M808.193,114.735l-42.706-63.7H705.905v-2h60.417l.294.3,43,64Z" fill="#3f3d56"/>
        <circle id="Ellipse_32" data-name="Ellipse 32" cx="11.758" cy="11.758" r="11.758" transform="translate(665.786 3.674)" fill="#388e3c"/>
        <circle id="Ellipse_33" data-name="Ellipse 33" cx="11.758" cy="11.758" r="11.758" transform="translate(665.786 38.948)" fill="#388e3c"/>
        <circle id="Ellipse_34" data-name="Ellipse 34" cx="11.758" cy="11.758" r="11.758" transform="translate(665.786 70.548)" fill="#388e3c"/>
        <path id="Path_321" data-name="Path 321" d="M765.831,128.589A12.493,12.493,0,1,1,778.324,116.1a12.493,12.493,0,0,1-12.493,12.493Zm0-23.516A11.023,11.023,0,1,0,776.854,116.1a11.023,11.023,0,0,0-11.023-11.023Z" transform="translate(-94.166 -103.603)" fill="#3f3d56"/>
        <path id="Path_322" data-name="Path 322" d="M765.831,163.863a12.493,12.493,0,1,1,12.493-12.493,12.493,12.493,0,0,1-12.493,12.493Zm0-23.516a11.023,11.023,0,1,0,11.023,11.023,11.023,11.023,0,0,0-11.023-11.023Z" transform="translate(-94.166 -103.603)" fill="#3f3d56"/>
        <path id="Path_323" data-name="Path 323" d="M765.831,195.462a12.493,12.493,0,1,1,12.493-12.493,12.493,12.493,0,0,1-12.493,12.493Zm0-23.516a11.023,11.023,0,1,0,11.023,11.023,11.023,11.023,0,0,0-11.023-11.023Z" transform="translate(-94.166 -103.603)" fill="#3f3d56"/>
        <rect id="Rectangle_9" data-name="Rectangle 9" width="75.049" height="6.688" transform="translate(529.471 383.862) rotate(180)" fill="#3f3d56"/>
        <rect id="Rectangle_10" data-name="Rectangle 10" width="75.049" height="6.688" transform="translate(529.471 408.498) rotate(180)" fill="#3f3d56"/>
        <rect id="Rectangle_11" data-name="Rectangle 11" width="75.049" height="6.688" transform="translate(529.471 430.568) rotate(180)" fill="#3f3d56"/>
        <path id="Path_324" data-name="Path 324" d="M332.58,444.942l36.811-37.507h41.614v-1.4h-42.2l-.205.207L331.587,443.96Z" fill="#3f3d56"/>
        <circle id="Ellipse_35" data-name="Ellipse 35" cx="8.212" cy="8.212" r="8.212" transform="translate(422.601 374.359)" fill="#388e3c"/>
        <circle id="Ellipse_36" data-name="Ellipse 36" cx="8.212" cy="8.212" r="8.212" transform="translate(422.601 398.995)" fill="#388e3c"/>
        <circle id="Ellipse_37" data-name="Ellipse 37" cx="8.212" cy="8.212" r="8.212" transform="translate(422.601 421.065)" fill="#388e3c"/>
        <path id="Path_325" data-name="Path 325" d="M520.36,484.122a8.725,8.725,0,1,1,8.725,8.725A8.725,8.725,0,0,1,520.36,484.122Zm1.026,0a7.7,7.7,0,1,0,7.7-7.7,7.7,7.7,0,0,0-7.7,7.7Z" transform="translate(-94.166 -103.603)" fill="#3f3d56"/>
        <path id="Path_326" data-name="Path 326" d="M520.36,508.758a8.725,8.725,0,1,1,8.725,8.725A8.725,8.725,0,0,1,520.36,508.758Zm1.026,0a7.7,7.7,0,1,0,7.7-7.7A7.7,7.7,0,0,0,521.386,508.758Z" transform="translate(-94.166 -103.603)" fill="#3f3d56"/>
        <path id="Path_327" data-name="Path 327" d="M520.36,530.827a8.725,8.725,0,1,1,8.725,8.725A8.725,8.725,0,0,1,520.36,530.827Zm1.026,0a7.7,7.7,0,1,0,7.7-7.7,7.7,7.7,0,0,0-7.7,7.7Z" transform="translate(-94.166 -103.603)" fill="#3f3d56"/>
      </g>
    </g>
  </g>
</svg>
