<svg xmlns="http://www.w3.org/2000/svg" width="597" height="597" viewBox="0 0 597 597">
  <g id="Group_285" data-name="Group 285" transform="translate(-3253.606 -973)">
    <circle id="Ellipse_77" data-name="Ellipse 77" cx="298.5" cy="298.5" r="298.5" transform="translate(3253.606 973)" fill="#f2f2f2"/>
    <g id="Group_281" data-name="Group 281" transform="translate(3321.298 1041.311)">
      <circle id="Ellipse_72" data-name="Ellipse 72" cx="231" cy="231" r="231" transform="translate(-0.297 -0.311)" fill="#c9b8e2"/>
    </g>
    <g id="farmer" transform="translate(3364.688 1086)">
      <path id="Path_825" data-name="Path 825" d="M111.653,168.044v-38.96h-7.407a15.8,15.8,0,0,1-5.146-.871,23.435,23.435,0,0,0-13.234,20.457c0,12.244,12.1,22.288,25.821,20.781C111.675,168.981,111.653,168.514,111.653,168.044Z" transform="translate(-22.186 -35.058)" fill="#feb983"/>
      <path id="Path_826" data-name="Path 826" d="M278.957,126.563a10.106,10.106,0,0,1-6.116,2.069,27.155,27.155,0,0,1-4.763-.423v39.383c0,.474-.023.943-.036,1.414,13.712,1.458,25.823-8.584,25.823-20.86C293.865,138.839,287.8,129.362,278.957,126.563Z" transform="translate(-72 -34.607)" fill="#feb983"/>
      <path id="Path_827" data-name="Path 827" d="M111.653,164.7a20.262,20.262,0,0,1-8.385-16.027,23.5,23.5,0,0,1,8.385-17.355v-2.231h-7.407a15.8,15.8,0,0,1-5.146-.871,23.433,23.433,0,0,0-13.234,20.457c0,12.244,12.1,22.288,25.822,20.781-.012-.469-.034-.936-.034-1.406V164.7Z" transform="translate(-22.186 -35.058)" fill="#f9a973"/>
      <path id="Path_828" data-name="Path 828" d="M285.48,130.2a19.253,19.253,0,0,0-6.523-3.639,10.108,10.108,0,0,1-6.116,2.069,27.225,27.225,0,0,1-4.763-.422v39.383c0,.474-.023.943-.036,1.414a24.524,24.524,0,0,0,17.438-4.8Z" transform="translate(-72 -34.607)" fill="#f9a973"/>
      <path id="Path_829" data-name="Path 829" d="M150.393,263.961l32.209,31.79,31.921-31.911a5.405,5.405,0,0,1-2.045-4.219l-.015-24.495c-18.992,12.428-43.024,10.749-59.769-.08v24.542a4.971,4.971,0,0,1-2.3,4.373Z" transform="translate(-39.83 -64.27)" fill="#feb983"/>
      <path id="Path_830" data-name="Path 830" d="M182.459,243.81a56.038,56.038,0,0,1-29.763-8.763v24.542a4.973,4.973,0,0,1-2.3,4.373l32.065,31.648Z" transform="translate(-39.831 -64.271)" fill="#f9a973"/>
      <path id="Path_831" data-name="Path 831" d="M213.019,100.226a1,1,0,0,0-1.885-.482,37.61,37.61,0,0,1-33.2,19.914H120.328v40.458c0,27.848,21.82,53.283,54.825,53.283a53.343,53.343,0,0,0,53.283-53.283v-40.88a19.507,19.507,0,0,1-15.417-19.01Z" transform="translate(-31.61 -27.13)" fill="#fcd0a3"/>
      <g id="Group_269" data-name="Group 269" transform="translate(88.718 92.528)">
        <g id="Group_268" data-name="Group 268">
          <path id="Path_832" data-name="Path 832" d="M152.248,167.808V127.35H120.327v40.458c0,27.848,21.819,53.282,54.825,53.282a53.117,53.117,0,0,0,15.455-2.293,52.932,52.932,0,0,1-38.359-50.989Z" transform="translate(-120.327 -127.35)" fill="#feb983"/>
        </g>
      </g>
      <path id="Path_833" data-name="Path 833" d="M251.6,308.513l-51.243-19.845-35.149,35.149a7.53,7.53,0,0,1-10.619,0l-9.623-9.623a7.446,7.446,0,0,1-2.063-3.941l-.127.127-.127-.126a7.454,7.454,0,0,1-2.063,3.939l-9.623,9.623a7.53,7.53,0,0,1-10.619,0l-35.27-35.27L33.949,308.513c-12.493,5.141-29.22,21.318-29.22,45.323V405.2l47.242,1.1.72,39.269H232.764l.813-39.269,23.148-.6L254.48,309.84q-1.424-.726-2.882-1.327Z" transform="translate(-0.001 -78.899)" fill="#cbe2ff"/>
      <g id="Group_271" data-name="Group 271" transform="translate(172.643 211.429)">
        <g id="Group_270" data-name="Group 270">
          <path id="Path_834" data-name="Path 834" d="M235.837,317.05v46.823h26.051V291Z" transform="translate(-235.837 -290.999)" fill="#eeebee"/>
        </g>
      </g>
      <g id="Group_273" data-name="Group 273" transform="translate(86.814 211.392)">
        <g id="Group_272" data-name="Group 272">
          <path id="Path_835" data-name="Path 835" d="M117.707,290.948v72.911h26.05V317Z" transform="translate(-117.707 -290.948)" fill="#eeebee"/>
        </g>
      </g>
      <path id="Path_836" data-name="Path 836" d="M248.862,308.926l-13.025,13.025v46.823h13.025Z" transform="translate(-63.194 -84.472)" fill="#d6d4d6"/>
      <path id="Path_837" data-name="Path 837" d="M117.706,290.948v72.911h13.026V303.973Z" transform="translate(-30.893 -79.556)" fill="#d6d4d6"/>
      <g id="Group_275" data-name="Group 275" transform="translate(4.727 223.634)">
        <g id="Group_274" data-name="Group 274">
          <path id="Path_838" data-name="Path 838" d="M32.8,344.753A49.906,49.906,0,0,1,49.258,307.8l-15.311,5.98c-12.493,5.141-29.22,21.318-29.22,45.323v51.367l28.069.653Z" transform="translate(-4.727 -307.797)" fill="#9dc6fb"/>
        </g>
      </g>
      <path id="Path_839" data-name="Path 839" d="M319.353,450.392l-.923,44.6h38.428a9.737,9.737,0,0,0,9.737-9.737V469.713h-9.915A14.179,14.179,0,0,1,342.5,455.534V449.79Z" transform="translate(-85.778 -122.989)" fill="#feb983"/>
      <path id="Path_840" data-name="Path 840" d="M346.288,465.157a14.114,14.114,0,0,1-3.786-9.623V449.79l-23.148.6-.923,44.6h27.858Z" transform="translate(-85.778 -122.989)" fill="#f9a973"/>
      <path id="Path_841" data-name="Path 841" d="M51.969,450.205,4.727,449.1v35.96a9.738,9.738,0,0,0,9.737,9.737H52.786Z" transform="translate(0 -122.802)" fill="#feb983"/>
      <path id="Path_842" data-name="Path 842" d="M32.8,449.759l-28.069-.653v35.96a9.738,9.738,0,0,0,9.737,9.737H32.8V449.759Z" transform="translate(0 -122.802)" fill="#f9a973"/>
      <path id="Path_843" data-name="Path 843" d="M250.56,433.835a34.087,34.087,0,0,1-34.087-34.087v-10.51H104.593v10.51a34.087,34.087,0,0,1-34.087,34.087h-.758v44.6H251.355v-44.6Z" transform="translate(-17.779 -106.432)" fill="#d09080"/>
      <path id="Path_844" data-name="Path 844" d="M130.643,389.238H104.592v10.51A34.087,34.087,0,0,1,70.5,433.835h-.758v44.6h60.9Z" transform="translate(-17.779 -106.432)" fill="#be694f"/>
      <path id="Path_845" data-name="Path 845" d="M150.17,320.874a7.53,7.53,0,0,0,10.619,0l9.623-9.623a7.531,7.531,0,0,0,0-10.62l-28.319-28.319a5.218,5.218,0,0,1-1.7,1.838l-26.57,10.377Z" transform="translate(-29.831 -74.46)" fill="#9dc6fb"/>
      <path id="Path_846" data-name="Path 846" d="M196.915,311.252l9.623,9.623a7.53,7.53,0,0,0,10.619,0l36.229-36.228-25.333-9.811a5.388,5.388,0,0,1-2.82-2.522l-28.318,28.318a7.531,7.531,0,0,0,0,10.619Z" transform="translate(-51.952 -74.461)" fill="#9dc6fb"/>
      <path id="Path_847" data-name="Path 847" d="M322.025,415.936a2.324,2.324,0,0,0-2.324,2.324v22.875h23.148v-25.2Z" transform="translate(-86.126 -113.732)" fill="#9cc5fa"/>
      <path id="Path_848" data-name="Path 848" d="M49.645,415.936H4.727v25.2H51.969V418.26a2.324,2.324,0,0,0-2.324-2.324Z" transform="translate(0 -113.732)" fill="#9cc5fa"/>
      <path id="Path_849" data-name="Path 849" d="M32.8,415.936H4.727v25.2H32.8Z" transform="translate(0 -113.732)" fill="#7fb3fa"/>
      <path id="Path_850" data-name="Path 850" d="M215.425,480.55h0a35.489,35.489,0,0,0-4.978-32.052l-25.9-36.217a4.188,4.188,0,0,0-6.814,0l-25.9,36.217a35.566,35.566,0,0,0-3.535,35.756h65.676a36.815,36.815,0,0,0,1.443-3.7Z" transform="translate(-38.372 -112.254)" fill="#b3e59f"/>
      <path id="Path_851" data-name="Path 851" d="M174.416,448.5l18.017-25.2-7.88-11.021a4.188,4.188,0,0,0-6.814,0l-25.9,36.216a35.566,35.566,0,0,0-3.535,35.756h22.574A35.567,35.567,0,0,1,174.416,448.5Z" transform="translate(-38.373 -112.254)" fill="#95d6a4"/>
      <path id="Path_852" data-name="Path 852" d="M463.851,226.627V209.992a14.179,14.179,0,0,0-14.179-14.179H362.649a14.178,14.178,0,0,0-14.178,14.179v16.635Z" transform="translate(-93.992 -53.543)" fill="#365e7d"/>
      <path id="Path_853" data-name="Path 853" d="M383.552,195.814h-20.9a14.178,14.178,0,0,0-14.178,14.179v16.635h20.9V209.993A14.179,14.179,0,0,1,383.552,195.814Z" transform="translate(-93.992 -53.543)" fill="#294b64"/>
      <path id="Path_854" data-name="Path 854" d="M348.471,421.075v28.853a14.179,14.179,0,0,0,14.178,14.179h87.023a14.179,14.179,0,0,0,14.179-14.179V421.075Z" transform="translate(-93.992 -115.137)" fill="#365e7d"/>
      <path id="Path_855" data-name="Path 855" d="M369.373,449.928V421.075h-20.9v28.853a14.179,14.179,0,0,0,14.178,14.179h20.9A14.179,14.179,0,0,1,369.373,449.928Z" transform="translate(-93.992 -115.137)" fill="#294b64"/>
      <path id="Path_856" data-name="Path 856" d="M348.471,262.525h115.38V379.109H348.471Z" transform="translate(-93.992 -71.784)" fill="#b3e59f"/>
      <path id="Path_857" data-name="Path 857" d="M348.471,262.525h20.9V379.109h-20.9Z" transform="translate(-93.992 -71.784)" fill="#95d6a4"/>
      <path id="Path_858" data-name="Path 858" d="M348.471,236.316H371.7v20.86H348.471Z" transform="translate(-93.992 -64.618)" fill="#f87c68"/>
      <circle id="Ellipse_76" data-name="Ellipse 76" cx="31.281" cy="31.281" r="31.281" transform="translate(280.888 217.912)" fill="#f9f7f9"/>
      <path id="Path_859" data-name="Path 859" d="M405.844,331.2a31.29,31.29,0,0,1,20.768-29.465,31.281,31.281,0,1,0,0,58.929A31.286,31.286,0,0,1,405.844,331.2Z" transform="translate(-103.931 -82.009)" fill="#eeebee"/>
      <g id="Group_277" data-name="Group 277" transform="translate(294.335 236.877)">
        <g id="Group_276" data-name="Group 276">
          <path id="Path_860" data-name="Path 860" d="M414.551,350.779l-9.579-9.579a5.614,5.614,0,1,1,7.939-7.939l5.61,5.61,11.2-11.2a5.614,5.614,0,0,1,7.939,7.939l-15.172,15.171a5.615,5.615,0,0,1-7.94,0Z" transform="translate(-403.327 -326.023)" fill="#95d6a4"/>
        </g>
      </g>
      <path id="Path_861" data-name="Path 861" d="M191.346,490.544v-2.127l15.527-9.19a5.614,5.614,0,0,0-5.72-9.662l-9.808,5.805v-9.876l7.684-4.548a5.614,5.614,0,1,0-5.72-9.662l-1.965,1.163v-13.3a5.613,5.613,0,1,0-11.227,0v13.3l-1.965-1.163a5.614,5.614,0,1,0-5.72,9.662l7.684,4.548v9.876l-9.808-5.805a5.614,5.614,0,1,0-5.718,9.662l15.527,9.19v2.127Z" transform="translate(-42.959 -118.544)" fill="#ccf49f"/>
      <path id="Path_862" data-name="Path 862" d="M377.24,236.316h94.477v20.86H377.24Z" transform="translate(-101.859 -64.618)" fill="#cbe2ff"/>
      <path id="Path_863" data-name="Path 863" d="M216.505,24.636a9.943,9.943,0,0,1-10.742-7.821C204.112,8.375,199.935,0,183.613,0H126.986a37.63,37.63,0,0,0-37.63,37.63v41.3A15.844,15.844,0,0,0,105.2,94.773h64.27a37.611,37.611,0,0,0,33.2-19.914,1,1,0,0,1,1.885.482,19.489,19.489,0,0,0,19.432,19.432,10.216,10.216,0,0,0,10.186-10.186v-43.1c0-10.153-8.858-17.533-17.663-16.856Z" transform="translate(-23.141)" fill="#d09080"/>
      <g id="Group_280" data-name="Group 280" transform="translate(66.215 0)">
        <g id="Group_279" data-name="Group 279" transform="translate(0 0)">
          <g id="Group_278" data-name="Group 278">
            <path id="Path_864" data-name="Path 864" d="M122.837,78.929V37.63A37.63,37.63,0,0,1,160.467,0H126.985a37.63,37.63,0,0,0-37.63,37.63v41.3A15.844,15.844,0,0,0,105.2,94.773h33.482A15.844,15.844,0,0,1,122.837,78.929Z" transform="translate(-89.355 0)" fill="#be694f"/>
          </g>
        </g>
      </g>
      <path id="Path_865" data-name="Path 865" d="M425.6,441.065h-1.48a7.266,7.266,0,0,0,0,14.531h1.48a7.266,7.266,0,0,0,0-14.531Z" transform="translate(-112.69 -120.603)" fill="#477b9e"/>
    </g>
  </g>
</svg>
