<svg xmlns="http://www.w3.org/2000/svg" width="241.382" height="338.416" viewBox="0 0 241.382 338.416">
  <g id="Group_30" data-name="Group 30" transform="translate(-1091.102 -425.627)">
    <path id="Path_419" data-name="Path 419" d="M1153.005,376.1a7.319,7.319,0,0,0,4.544,2.045c6.588.682,18.97-13.858,22.491-15.221-6.02-2.385-22.491-7.27-30.783-3.521a4.028,4.028,0,0,0-2.045,3.749,5.225,5.225,0,0,0,3.635,4.544,13.94,13.94,0,0,0,6.134.341C1154.027,369.626,1149.6,372.125,1153.005,376.1Z" transform="translate(127 117)" fill="#a5c44b" fill-rule="evenodd"/>
    <path id="Path_420" data-name="Path 420" d="M1094.165,358.153a9.508,9.508,0,0,0,6.929-1.477c8.065-4.657,10.11-31.465,13.063-35.895-8.86,2.272-31.578,10.223-37.94,21.355-1.022,1.817-.454,4.316.8,6.02,1.7,2.385,5.112,2.954,7.951,2.158s5.112-2.726,7.384-4.657C1089.962,349.861,1087.008,356.336,1094.165,358.153Z" transform="translate(127 117)" fill="#a5c44b" fill-rule="evenodd"/>
    <path id="Path_421" data-name="Path 421" d="M1006.358,379.849c-.454-2.385-2.272-4.2-4.2-5.68-7.5-5.452-32.828,3.748-38.053,2.84,5.793,7.156,22.378,24.536,35.1,25.785,2.045.227,4.089-1.363,5.112-3.181,1.477-2.5.682-5.907-1.25-8.065s-4.657-3.521-7.27-4.771C1000.565,387.119,1007.721,387.119,1006.358,379.849Z" transform="translate(127 117)" fill="#a5c44b" fill-rule="evenodd"/>
    <path id="Path_422" data-name="Path 422" d="M1082.578,360.766a6.088,6.088,0,0,0-.682-4.43c-2.613-5.339-19.651-7.838-22.264-9.882,1.022,5.793,5.225,20.56,11.927,25.1a3.921,3.921,0,0,0,3.862-.227c1.59-.909,2.158-3.181,1.7-5a15.587,15.587,0,0,0-2.613-4.885C1077.126,363.151,1081.1,365.309,1082.578,360.766Z" transform="translate(127 117)" fill="#a5c44b" fill-rule="evenodd"/>
    <path id="Path_423" data-name="Path 423" d="M1031.008,375.078a6.087,6.087,0,0,0-.682-4.43c-2.613-5.339-19.651-7.838-22.264-9.882,1.136,5.793,5.225,20.56,11.927,25.1a3.92,3.92,0,0,0,3.862-.227c1.59-.909,2.158-3.181,1.7-5a15.582,15.582,0,0,0-2.613-4.885C1025.669,377.464,1029.645,379.622,1031.008,375.078Z" transform="translate(127 117)" fill="#a5c44b" fill-rule="evenodd"/>
    <path id="Path_424" data-name="Path 424" d="M1016.695,346.112a6.088,6.088,0,0,0-.682-4.43c-2.613-5.339-19.651-7.838-22.264-9.882,1.136,5.793,5.225,20.56,11.927,25.1a3.921,3.921,0,0,0,3.862-.227c1.59-.909,2.158-3.181,1.7-5a15.587,15.587,0,0,0-2.613-4.884C1011.243,348.5,1015.332,350.656,1016.695,346.112Z" transform="translate(127 117)" fill="#a5c44b" fill-rule="evenodd"/>
    <path id="Path_425" data-name="Path 425" d="M1005.336,361.675a4.65,4.65,0,0,0-1.25-2.953c-2.84-3.294-15.221-1.817-17.493-2.726,1.818,3.862,7.5,13.4,13.177,15.335a2.645,2.645,0,0,0,2.613-.909,3.248,3.248,0,0,0,.227-3.748,13.389,13.389,0,0,0-2.726-2.953C1001.928,364.4,1005.222,365.082,1005.336,361.675Z" transform="translate(127 117)" fill="#a5c44b" fill-rule="evenodd"/>
    <path id="Path_426" data-name="Path 426" d="M1025.9,357.7a3.2,3.2,0,0,0-.682-1.7c-1.59-1.818-8.406-1.022-9.769-1.477,1.022,2.158,4.2,7.5,7.27,8.519a1.789,1.789,0,0,0,1.477-.454,1.875,1.875,0,0,0,.114-2.158,4.27,4.27,0,0,0-1.59-1.59C1023.965,359.176,1025.782,359.63,1025.9,357.7Z" transform="translate(127 117)" fill="#a5c44b" fill-rule="evenodd"/>
    <path id="Path_427" data-name="Path 427" d="M1036.687,350.315a3.2,3.2,0,0,0-.682-1.7c-1.59-1.817-8.406-1.022-9.769-1.477,1.022,2.158,4.2,7.5,7.27,8.519a1.789,1.789,0,0,0,1.477-.454,1.875,1.875,0,0,0,.114-2.158,4.271,4.271,0,0,0-1.59-1.59C1034.756,351.792,1036.573,352.247,1036.687,350.315Z" transform="translate(127 117)" fill="#a5c44b" fill-rule="evenodd"/>
    <path id="Path_428" data-name="Path 428" d="M1060.428,394.275a3.322,3.322,0,0,0-.454-2.726c-1.59-3.294-12.268-4.884-13.858-6.134.682,3.635,3.181,12.836,7.5,15.676a2.264,2.264,0,0,0,2.385-.114,2.64,2.64,0,0,0,1.022-3.067,8.182,8.182,0,0,0-1.7-3.067C1057.134,395.752,1059.519,397.115,1060.428,394.275Z" transform="translate(127 117)" fill="#a5c44b" fill-rule="evenodd"/>
    <path id="Path_429" data-name="Path 429" d="M1052.136,374.17a3.571,3.571,0,0,0-1.818-2.045c-3.181-1.931-12.836,2.613-14.994,2.5,2.5,2.613,9.769,8.974,14.88,8.974a2.338,2.338,0,0,0,1.931-1.477,3.064,3.064,0,0,0-.8-3.181,7.2,7.2,0,0,0-3.067-1.59C1050.091,377.237,1052.931,377.009,1052.136,374.17Z" transform="translate(127 117)" fill="#a5c44b" fill-rule="evenodd"/>
    <path id="Path_430" data-name="Path 430" d="M1006.585,435.055c-.454-2.385-2.272-4.2-4.2-5.68-7.5-5.452-32.828,3.748-38.053,2.84,5.793,7.156,22.378,24.536,35.1,25.785,2.045.227,4.089-1.363,5.112-3.181,1.477-2.5.682-5.907-1.25-8.065s-4.657-3.521-7.27-4.771C1000.792,442.325,1007.948,442.325,1006.585,435.055Z" transform="translate(127 117)" fill="#a5c44b" fill-rule="evenodd"/>
    <path id="Path_431" data-name="Path 431" d="M1177.768,476.516a6.666,6.666,0,0,0,1.477,4.771c3.749,5.452,22.832,5.339,26.24,7.156-2.158-6.134-9.2-21.7-17.38-25.558a4.411,4.411,0,0,0-4.2.909,4.992,4.992,0,0,0-1.022,5.68,15.614,15.614,0,0,0,3.749,4.884C1183.334,472.994,1178.563,471.291,1177.768,476.516Z" transform="translate(127 117)" fill="#a5c44b" fill-rule="evenodd"/>
    <path id="Path_432" data-name="Path 432" d="M1112.339,375.192a6.846,6.846,0,0,0,4.884-1.136c5.68-3.294,7.043-22.378,9.087-25.558-6.247,1.7-22.378,7.5-26.808,15.448a4.331,4.331,0,0,0,.568,4.2c1.249,1.7,3.635,2.045,5.68,1.477s3.635-2.045,5.225-3.408C1109.272,369.285,1107.228,373.942,1112.339,375.192Z" transform="translate(127 117)" fill="#a5c44b" fill-rule="evenodd"/>
    <path id="Path_433" data-name="Path 433" d="M1140.056,384.62a3.381,3.381,0,0,0,1.931,1.59c3.067,1.249,11.132-3.976,13.063-4.089-2.613-2.045-9.769-6.7-14.312-6.134a2.3,2.3,0,0,0-1.59,1.477,2.438,2.438,0,0,0,1.136,2.726,7.069,7.069,0,0,0,2.953,1.022C1141.419,381.667,1138.92,382.235,1140.056,384.62Z" transform="translate(127 117)" fill="#a5c44b" fill-rule="evenodd"/>
    <path id="Path_434" data-name="Path 434" d="M1171.748,456.864a6.227,6.227,0,0,0,3.067,2.84c5,2.272,18.629-6.134,21.81-6.248-4.2-3.408-16.016-11.586-23.514-10.791a3.43,3.43,0,0,0-2.613,2.5,4.285,4.285,0,0,0,1.7,4.544,13.615,13.615,0,0,0,4.771,1.931C1174.247,451.98,1170.044,452.889,1171.748,456.864Z" transform="translate(127 117)" fill="#a5c44b" fill-rule="evenodd"/>
    <path id="Path_435" data-name="Path 435" d="M1160.5,443.915c2.158.568,4.317-.227,6.248-1.363,7.27-4.2,9.2-28.511,11.813-32.6-8.065,2.045-28.625,9.315-34.418,19.424-.909,1.59-.341,3.862.682,5.452,1.477,2.158,4.657,2.726,7.156,1.931a20.815,20.815,0,0,0,6.7-4.2C1156.754,436.532,1154.028,442.325,1160.5,443.915Z" transform="translate(127 117)" fill="#a5c44b" fill-rule="evenodd"/>
    <path id="Path_436" data-name="Path 436" d="M1157.889,478.447a5.972,5.972,0,0,0,.114,4.2c1.818,5.225,17.266,9.428,19.424,11.586-.341-5.452-2.5-19.538-8.292-24.536a3.523,3.523,0,0,0-3.521-.227c-1.59.682-2.272,2.613-2.158,4.316a10.892,10.892,0,0,0,1.931,4.771C1163.115,476.856,1159.707,474.471,1157.889,478.447Z" transform="translate(127 117)" fill="#a5c44b" fill-rule="evenodd"/>
    <path id="Path_437" data-name="Path 437" d="M1132.786,476.97a5.646,5.646,0,0,0,3.294,2.5c5.225,1.817,18.175-7.5,21.242-7.838-4.43-3.181-16.812-10.337-24.309-8.974a3.49,3.49,0,0,0-2.385,2.613,4.272,4.272,0,0,0,2.045,4.43,12.22,12.22,0,0,0,4.884,1.477C1134.944,471.858,1130.855,472.994,1132.786,476.97Z" transform="translate(127 117)" fill="#a5c44b" fill-rule="evenodd"/>
    <path id="Path_438" data-name="Path 438" d="M1115.747,455.842a4.707,4.707,0,0,0,3.408-1.25c3.862-2.953,3.067-16.925,4.2-19.424-4.43,1.817-15.562,7.611-18.061,13.745a3.109,3.109,0,0,0,.8,3.067,3.781,3.781,0,0,0,4.2.568,12.525,12.525,0,0,0,3.521-2.954C1112.907,451.866,1111.885,455.5,1115.747,455.842Z" transform="translate(127 117)" fill="#a5c44b" fill-rule="evenodd"/>
    <path id="Path_439" data-name="Path 439" d="M1129.832,407.111a4.707,4.707,0,0,0,3.408-1.249c3.862-2.953,3.067-16.925,4.2-19.424-4.43,1.817-15.562,7.611-18.061,13.745a3.109,3.109,0,0,0,.8,3.067,3.782,3.782,0,0,0,4.2.568,12.522,12.522,0,0,0,3.521-2.953C1127.106,403.249,1125.97,406.771,1129.832,407.111Z" transform="translate(127 117)" fill="#a5c44b" fill-rule="evenodd"/>
    <path id="Path_440" data-name="Path 440" d="M1139.488,359.857a4.706,4.706,0,0,0,3.408-1.25c3.862-2.953,3.067-16.925,4.2-19.424-4.43,1.817-15.562,7.611-18.061,13.745a3.109,3.109,0,0,0,.8,3.067,3.781,3.781,0,0,0,4.2.568,12.523,12.523,0,0,0,3.521-2.954C1136.761,355.882,1135.739,359.516,1139.488,359.857Z" transform="translate(127 117)" fill="#a5c44b" fill-rule="evenodd"/>
    <path id="Path_441" data-name="Path 441" d="M1127.106,436.986a3.5,3.5,0,0,0,2.613.227c3.408-.8,7.27-10.223,8.86-11.586-3.521-.227-12.609.114-16.244,3.408a2.324,2.324,0,0,0-.454,2.272,2.753,2.753,0,0,0,2.613,1.7,7.879,7.879,0,0,0,3.181-.909C1126.538,433.578,1124.721,435.623,1127.106,436.986Z" transform="translate(127 117)" fill="#a5c44b" fill-rule="evenodd"/>
    <path id="Path_442" data-name="Path 442" d="M1144.145,398.705a3.5,3.5,0,0,0,2.613.227c3.408-.8,7.27-10.223,8.86-11.586-3.521-.227-12.609.114-16.244,3.408a2.324,2.324,0,0,0-.454,2.272,2.753,2.753,0,0,0,2.613,1.7,7.879,7.879,0,0,0,3.181-.909C1143.577,395.184,1141.76,397.229,1144.145,398.705Z" transform="translate(127 117)" fill="#a5c44b" fill-rule="evenodd"/>
    <path id="Path_443" data-name="Path 443" d="M1010.675,481.968a6.911,6.911,0,0,1-2.158,4.884c-4.544,5.225-24.649,2.84-28.284,4.316,2.953-6.247,12.268-21.7,21.355-24.763a4.6,4.6,0,0,1,4.316,1.477,5.48,5.48,0,0,1,.454,6.134,16.511,16.511,0,0,1-4.544,4.771C1005.222,477.652,1010.447,476.4,1010.675,481.968Z" transform="translate(127 117)" fill="#a5c44b" fill-rule="evenodd"/>
    <path id="Path_444" data-name="Path 444" d="M1093.6,409.383a3.636,3.636,0,0,0,1.931-2.158c1.59-3.521-4.2-13.063-4.316-15.221-2.385,2.953-8.065,11.132-7.611,16.357a2.5,2.5,0,0,0,1.7,1.817,2.979,2.979,0,0,0,3.181-1.136,8.454,8.454,0,0,0,1.363-3.294C1090.189,407.679,1090.757,410.519,1093.6,409.383Z" transform="translate(127 117)" fill="#a5c44b" fill-rule="evenodd"/>
    <path id="Path_445" data-name="Path 445" d="M1111.43,481.287a3.539,3.539,0,0,0,1.59,1.817c2.726,1.7,11.246-2.158,13.063-2.045-2.158-2.272-8.406-7.838-12.836-7.951a2.119,2.119,0,0,0-1.7,1.25,2.314,2.314,0,0,0,.682,2.726,7.426,7.426,0,0,0,2.613,1.477C1113.248,478.56,1110.749,478.788,1111.43,481.287Z" transform="translate(127 117)" fill="#a5c44b" fill-rule="evenodd"/>
    <path id="Path_446" data-name="Path 446" d="M1141.532,446.3a3.152,3.152,0,0,0,1.59-1.817c1.363-2.953-3.408-10.9-3.521-12.722-2.045,2.385-6.816,9.2-6.475,13.631a2.359,2.359,0,0,0,1.363,1.59,2.44,2.44,0,0,0,2.613-1.022,6.256,6.256,0,0,0,1.136-2.84C1138.693,444.824,1139.147,447.209,1141.532,446.3Z" transform="translate(127 117)" fill="#a5c44b" fill-rule="evenodd"/>
    <path id="Path_447" data-name="Path 447" d="M1180.835,440.621a3.152,3.152,0,0,0,1.59-1.817c1.363-2.953-3.408-10.9-3.521-12.722-2.045,2.385-6.816,9.2-6.475,13.631a2.359,2.359,0,0,0,1.363,1.59,2.44,2.44,0,0,0,2.613-1.022,7.857,7.857,0,0,0,1.136-2.84C1178,439.144,1178.45,441.643,1180.835,440.621Z" transform="translate(127 117)" fill="#a5c44b" fill-rule="evenodd"/>
    <path id="Path_448" data-name="Path 448" d="M1129.833,450.731a2.935,2.935,0,0,0,1.249-1.363c1.022-2.158-2.5-8.065-2.613-9.428-1.477,1.817-5.112,6.816-4.771,10.11,0,.568.568.909,1.022,1.136a1.848,1.848,0,0,0,1.931-.681,4.538,4.538,0,0,0,.8-2.045C1127.788,449.708,1128.129,451.526,1129.833,450.731Z" transform="translate(127 117)" fill="#a5c44b" fill-rule="evenodd"/>
    <path id="Path_449" data-name="Path 449" d="M1121.767,381.44a3.083,3.083,0,0,0,1.818.341c2.385-.341,5.452-6.475,6.588-7.27-2.272-.341-8.52-.568-11.019,1.477a1.239,1.239,0,0,0-.341,1.477,1.737,1.737,0,0,0,1.7,1.25,3.553,3.553,0,0,0,2.158-.454C1121.654,379.054,1120.291,380.3,1121.767,381.44Z" transform="translate(127 117)" fill="#a5c44b" fill-rule="evenodd"/>
    <path id="Path_450" data-name="Path 450" d="M1091.893,372.693a2.3,2.3,0,0,0,1.7-.454c2.045-1.249,2.385-8.065,3.067-9.314-2.272.682-7.951,2.84-9.542,5.793a1.394,1.394,0,0,0,.227,1.477,1.926,1.926,0,0,0,2.045.454,6.489,6.489,0,0,0,1.817-1.25C1090.757,370.648,1090.075,372.352,1091.893,372.693Z" transform="translate(127 117)" fill="#a5c44b" fill-rule="evenodd"/>
    <path id="Path_451" data-name="Path 451" d="M1152.664,459.818a4.408,4.408,0,0,0,3.181.909c4.43-.114,11.132-10.9,13.29-12.041-4.2-1.022-15.448-2.613-20.56.568a2.885,2.885,0,0,0-1.022,2.613,3.264,3.264,0,0,0,2.84,2.613,10.022,10.022,0,0,0,4.089-.341C1152.778,455.388,1150.052,457.546,1152.664,459.818Z" transform="translate(127 117)" fill="#a5c44b" fill-rule="evenodd"/>
    <path id="Path_452" data-name="Path 452" d="M1025.669,468.337a3.268,3.268,0,0,1-2.272,1.022c-3.181.341-9.315-6.7-11.018-7.27,2.953-1.136,10.9-3.635,14.994-1.931a2.047,2.047,0,0,1,1.022,1.817,2.579,2.579,0,0,1-1.7,2.272,6.539,6.539,0,0,1-2.953.227C1025.1,465.157,1027.259,466.293,1025.669,468.337Z" transform="translate(127 117)" fill="#a5c44b" fill-rule="evenodd"/>
    <path id="Path_453" data-name="Path 453" d="M1028.281,485.944a3.607,3.607,0,0,1-.909,2.272c-2.045,2.5-11.359,1.59-13.063,2.385,1.363-2.84,5.339-10.11,9.542-11.7a2.312,2.312,0,0,1,2.045.568,2.565,2.565,0,0,1,.227,2.84,7.759,7.759,0,0,1-2.045,2.272C1025.669,484.013,1028.054,483.331,1028.281,485.944Z" transform="translate(127 117)" fill="#a5c44b" fill-rule="evenodd"/>
    <path id="Path_454" data-name="Path 454" d="M1111.431,394.162a3.875,3.875,0,0,0,2.045-1.249c2.045-2.5-.454-11.473,0-13.177-2.613,1.817-9.087,7.156-9.769,11.473a1.949,1.949,0,0,0,.909,1.817,2.6,2.6,0,0,0,2.84-.227,6.365,6.365,0,0,0,1.818-2.385C1109.045,392,1108.932,394.5,1111.431,394.162Z" transform="translate(127 117)" fill="#a5c44b" fill-rule="evenodd"/>
    <path id="Path_455" data-name="Path 455" d="M1094.619,387.119a3.876,3.876,0,0,0,2.045-1.249c2.045-2.5-.454-11.473,0-13.177-2.613,1.817-9.087,7.156-9.769,11.473a1.949,1.949,0,0,0,.909,1.817,2.6,2.6,0,0,0,2.84-.227,6.367,6.367,0,0,0,1.817-2.385C1092.233,384.961,1092.006,387.46,1094.619,387.119Z" transform="translate(127 117)" fill="#a5c44b" fill-rule="evenodd"/>
    <path id="Path_456" data-name="Path 456" d="M1136.648,372.92a3.871,3.871,0,0,0,2.5-.341c3.067-1.477,4.544-11.018,5.68-12.5-3.294.568-11.586,2.84-14.2,6.588a2.119,2.119,0,0,0,.114,2.158,2.539,2.539,0,0,0,2.726,1.022,6.407,6.407,0,0,0,2.726-1.477C1135.285,369.853,1134.035,372.011,1136.648,372.92Z" transform="translate(127 117)" fill="#a5c44b" fill-rule="evenodd"/>
    <path id="Path_457" data-name="Path 457" d="M1043.275,387.346a3.264,3.264,0,0,0-.341-2.5c-1.363-3.067-10.9-4.657-12.381-5.907.568,3.294,2.613,11.586,6.361,14.313a1.892,1.892,0,0,0,2.158-.114,2.54,2.54,0,0,0,1.022-2.726,6.406,6.406,0,0,0-1.477-2.726C1040.095,388.6,1042.367,389.845,1043.275,387.346Z" transform="translate(127 117)" fill="#a5c44b" fill-rule="evenodd"/>
    <path id="Path_458" data-name="Path 458" d="M1019.194,394.616a3.45,3.45,0,0,0-2.385-.909c-3.294-.227-9.2,7.5-11.018,8.292,3.181,1.022,11.586,3.067,15.676.909a1.918,1.918,0,0,0,.909-1.931,2.4,2.4,0,0,0-1.931-2.158,9.95,9.95,0,0,0-3.181,0C1018.853,397.91,1021.011,396.547,1019.194,394.616Z" transform="translate(127 117)" fill="#a5c44b" fill-rule="evenodd"/>
    <path id="Path_459" data-name="Path 459" d="M1037.028,325.439a9.616,9.616,0,0,0-2.045-6.7c-5.225-7.611-32.147-7.611-36.8-10.11,3.067,8.633,12.836,30.67,24.422,36.122,1.817.909,4.316.114,5.907-1.25,2.272-1.817,2.613-5.339,1.477-8.065-1.022-2.726-3.181-4.884-5.225-6.929C1029.19,330.323,1035.892,332.709,1037.028,325.439Z" transform="translate(127 117)" fill="#a5c44b" fill-rule="evenodd"/>
    <path id="Path_460" data-name="Path 460" d="M1051.568,341.91a3.379,3.379,0,0,0,1.136-2.272c.454-3.294-6.588-9.882-7.156-11.7-1.363,3.067-4.089,11.132-2.385,15.448.227.682,1.136,1.022,1.818,1.136a2.68,2.68,0,0,0,2.385-1.7,9.433,9.433,0,0,0,.341-3.067C1048.273,341.228,1049.523,343.5,1051.568,341.91Z" transform="translate(127 117)" fill="#a5c44b" fill-rule="evenodd"/>
    <path id="Path_461" data-name="Path 461" d="M1043.843,359.971a3.336,3.336,0,0,0-1.477-2.045c-2.726-1.931-11.813,1.249-13.745,1.022,2.045,2.613,8.065,8.86,12.609,9.315a1.845,1.845,0,0,0,1.818-1.136,2.611,2.611,0,0,0-.455-2.953,7.993,7.993,0,0,0-2.613-1.7C1041.8,362.583,1044.411,362.583,1043.843,359.971Z" transform="translate(127 117)" fill="#a5c44b" fill-rule="evenodd"/>
    <path id="Path_462" data-name="Path 462" d="M1032.711,437.554a6.088,6.088,0,0,0-.682-4.43c-2.613-5.339-19.651-7.838-22.264-9.882,1.136,5.793,5.225,20.56,11.927,25.1a3.92,3.92,0,0,0,3.862-.227c1.59-.909,2.158-3.181,1.7-5a15.583,15.583,0,0,0-2.613-4.884C1027.259,439.826,1031.235,441.984,1032.711,437.554Z" transform="translate(127 117)" fill="#a5c44b" fill-rule="evenodd"/>
    <path id="Path_463" data-name="Path 463" d="M1074.4,455.729a3.2,3.2,0,0,0-.682-1.7c-1.59-1.817-8.406-1.022-9.769-1.477,1.022,2.158,4.2,7.5,7.27,8.519a1.789,1.789,0,0,0,1.477-.454,1.875,1.875,0,0,0,.114-2.158,4.27,4.27,0,0,0-1.59-1.59C1072.582,457.205,1074.286,457.546,1074.4,455.729Z" transform="translate(127 117)" fill="#a5c44b" fill-rule="evenodd"/>
    <path id="Path_464" data-name="Path 464" d="M1016.809,455.16a3.2,3.2,0,0,0-.682-1.7c-1.59-1.817-8.406-1.022-9.769-1.477,1.022,2.158,4.2,7.5,7.27,8.519a1.789,1.789,0,0,0,1.477-.454,1.875,1.875,0,0,0,.114-2.158,4.27,4.27,0,0,0-1.59-1.59C1014.991,456.637,1016.809,456.978,1016.809,455.16Z" transform="translate(127 117)" fill="#a5c44b" fill-rule="evenodd"/>
    <path id="Path_465" data-name="Path 465" d="M1073.832,474.812a3.321,3.321,0,0,0-.454-2.726c-1.59-3.294-12.268-4.884-13.858-6.134.682,3.635,3.181,12.836,7.5,15.676a2.264,2.264,0,0,0,2.385-.114,2.641,2.641,0,0,0,1.022-3.067,6.872,6.872,0,0,0-1.7-3.067C1070.538,476.289,1073.037,477.652,1073.832,474.812Z" transform="translate(127 117)" fill="#a5c44b" fill-rule="evenodd"/>
    <path id="Path_466" data-name="Path 466" d="M1048.614,483.672a3.57,3.57,0,0,0-1.817-2.045c-3.181-1.931-12.836,2.613-14.994,2.5,2.5,2.613,9.769,8.974,14.881,8.974a2.338,2.338,0,0,0,1.931-1.477,3.064,3.064,0,0,0-.8-3.181,7.206,7.206,0,0,0-3.067-1.59C1046.57,486.739,1049.409,486.512,1048.614,483.672Z" transform="translate(127 117)" fill="#a5c44b" fill-rule="evenodd"/>
    <path id="Path_467" data-name="Path 467" d="M1059.519,462.771a3.265,3.265,0,0,0-.341-2.5c-1.363-3.067-10.905-4.657-12.382-5.907.568,3.294,2.613,11.586,6.361,14.313a1.892,1.892,0,0,0,2.158-.114,2.54,2.54,0,0,0,1.022-2.726,6.408,6.408,0,0,0-1.477-2.726C1056.452,464.021,1058.724,465.27,1059.519,462.771Z" transform="translate(127 117)" fill="#a5c44b" fill-rule="evenodd"/>
    <path id="Path_468" data-name="Path 468" d="M1047.365,446.414a3.329,3.329,0,0,0-.454-2.5c-1.477-2.953-11.132-4.2-12.722-5.339.682,3.181,3.181,11.586,7.043,14.085a2.109,2.109,0,0,0,2.158-.114,2.656,2.656,0,0,0,.909-2.84,6.644,6.644,0,0,0-1.59-2.726C1044.3,447.777,1046.57,448.913,1047.365,446.414Z" transform="translate(127 117)" fill="#a5c44b" fill-rule="evenodd"/>
    <path id="Path_469" data-name="Path 469" d="M1180.154,469.7a115.208,115.208,0,0,0-14.426-7.838,68.614,68.614,0,0,0-23.968-5.907,50.638,50.638,0,0,0-9.2.341c.682-.227,1.363-.568,2.045-.8a48.709,48.709,0,0,0,10.45-6.134,47.846,47.846,0,0,0,11.473-12.836c1.022-1.7,1.7-3.181,2.158-4.089s.682-1.477.682-1.477-.341.454-.909,1.363a32.989,32.989,0,0,1-2.726,3.635,49.161,49.161,0,0,1-12.381,10.9,53.351,53.351,0,0,1-10.223,4.771c-3.862,1.363-8.179,2.5-12.836,4.089a42.316,42.316,0,0,0-7.043,3.181,44.093,44.093,0,0,0-6.588,4.771,47.561,47.561,0,0,0-10.337,13.29,76.367,76.367,0,0,0-6.248,15.335c-.114.568-.341,1.136-.454,1.7-.114-2.272,3.181-39.3,3.976-43.846.454-3.181,1.022-6.248,1.477-9.087.8-2.045,1.477-4.317,2.272-6.815,9.428-23.286,23.854-41.688,36.463-52.479a68.7,68.7,0,0,1,17.039-10.9c2.272-.909,3.976-1.59,5.225-1.931s1.931-.568,1.931-.568-.682.114-1.931.341a47.636,47.636,0,0,0-5.452,1.249,63.193,63.193,0,0,0-18.629,9.428,110.023,110.023,0,0,0-22.264,21.7,120.549,120.549,0,0,0-7.838,11.132c.682-6.475.8-12.5,1.136-17.948a93.424,93.424,0,0,1,1.7-14.313,35.848,35.848,0,0,1,3.408-9.2q.852-1.534,1.363-2.385c.341-.568.454-.8.454-.8l-.682.682c-.454.454-1.136,1.022-1.931,1.931a31.581,31.581,0,0,0-5.452,8.746,60.383,60.383,0,0,0-3.976,14.767c-.909,5.68-1.363,11.814-2.045,18.061-.568,5.566-1.363,10.791-2.158,15.676-1.022,2.158-1.931,4.43-2.84,6.7a125.923,125.923,0,0,0-4.771,14.426c-.114-.682-.114-1.25-.227-1.931-1.363-15.221-2.953-29.534-3.294-42.6a158.872,158.872,0,0,1,2.272-34.418,102.186,102.186,0,0,1,6.816-22.378c.568-1.249,1.022-2.385,1.59-3.408a21.6,21.6,0,0,1,1.25-2.385c.682-1.25,1.022-1.931,1.022-1.931s-.454.682-1.25,1.817a26.837,26.837,0,0,0-1.477,2.272c-.568.909-1.25,1.931-1.931,3.181a90.294,90.294,0,0,0-8.86,22.15,148.039,148.039,0,0,0-4.544,35.1c-.114,4.657,0,9.428.227,14.426-1.59-6.247-3.408-12.609-5.566-19.083a183.145,183.145,0,0,0-16.812-36.122,165.342,165.342,0,0,0-9.882-14.313c-1.7-2.158-3.294-4.2-5-6.134-1.7-1.817-3.294-3.749-4.884-5.339a116.332,116.332,0,0,0-16.471-14.313,18.021,18.021,0,0,0-2.84-1.931q-1.193-.852-2.045-1.363c-1.136-.8-1.7-1.136-1.7-1.136s.568.454,1.59,1.363c.568.454,1.136,1.022,1.931,1.59.8.682,1.59,1.363,2.5,2.272a139.748,139.748,0,0,1,14.767,15.676c1.477,1.7,2.84,3.635,4.316,5.566s2.953,4.089,4.43,6.248a169.523,169.523,0,0,1,8.746,14.54,229.143,229.143,0,0,1,15.449,35.554c2.613,7.611,4.771,15.221,6.7,22.491a45.98,45.98,0,0,0-3.294-4.885,56.709,56.709,0,0,0-9.655-9.882,118.15,118.15,0,0,0-11.132-7.951,89.354,89.354,0,0,0-11.359-5.793,102.392,102.392,0,0,0-10.791-3.748c-3.408-.909-6.7-1.7-9.655-2.272a110.813,110.813,0,0,0-14.2-1.7c-3.408-.114-5.225-.227-5.225-.227s1.817.341,5.112,1.136,7.951,1.817,13.631,3.635c2.84.909,5.907,1.931,9.087,3.181s6.588,2.726,10.11,4.43c2.158,1.022,4.2,2.272,6.361,3.521-.8-.227-1.59-.341-2.5-.568a36.355,36.355,0,0,0-15.108,1.136,140.863,140.863,0,0,0-13.518,4.771,86.639,86.639,0,0,1-10.678,3.408,28.738,28.738,0,0,1-7.611.8,11.715,11.715,0,0,1-2.158-.114,2.775,2.775,0,0,1-.8-.114l.682.341c.454.227,1.136.454,2.045.8a26.583,26.583,0,0,0,8.065,1.249,47.388,47.388,0,0,0,11.927-1.477c4.317-1.022,8.86-2.5,13.517-3.748a45.918,45.918,0,0,1,12.949-1.931,32.257,32.257,0,0,1,10.564,2.158,33.974,33.974,0,0,1,5,2.5,68.1,68.1,0,0,1,9.428,12.041,89.469,89.469,0,0,1,8.633,20.9c4.316,15.448,1.363,24.309,2.84,43.392.114,2.045-7.27-.341-11.7-6.815-6.361-9.2-15.108-15.789-23.059-21.242a135.438,135.438,0,0,0-11.7-7.156c-3.749-1.931-7.384-3.635-10.791-5a110.645,110.645,0,0,0-16.244-5.225c-1.931-.454-3.521-.681-4.544-.909s-1.59-.341-1.59-.341.568.227,1.477.568a45.549,45.549,0,0,1,4.317,1.59,153.477,153.477,0,0,1,15.221,7.043,141.33,141.33,0,0,1,33.169,24.763,45.067,45.067,0,0,0-26.808-5.225,43.643,43.643,0,0,0-11.473,2.726,33.981,33.981,0,0,0-7.043,3.408,16.81,16.81,0,0,0-2.385,1.59s1.022-.227,2.726-.682q2.726-.682,7.5-1.363a73.088,73.088,0,0,1,46.345,9.769,2.378,2.378,0,0,1,.682.454,124.015,124.015,0,0,1,11.7,17.152,121.545,121.545,0,0,1,5.793,21.582c1.477,7.951-.114,66.678,0,71.79.114,12.609.114,22.832.227,29.875s.114,10.9.114,10.9.455-3.862,1.25-10.9c.454-3.749,6.475-9.883,7.043-15.448.227,2.613.341,5.225.682,7.838a3.319,3.319,0,0,0,4.884,2.5v1.817c.114,3.862,6.134,3.862,6.02,0-.227-11.359-3.067-85.421-2.385-96.666.568-10.223,1.363-19.765,3.067-28.171a74.23,74.23,0,0,1,5.907-18.175,51.966,51.966,0,0,1,11.7-11.7c7.951-5.68,17.38-7.724,26.013-7.838a76.5,76.5,0,0,1,22.946,3.635,132.078,132.078,0,0,1,14.994,5.793c3.521,1.59,5.452,2.5,5.452,2.5A20.276,20.276,0,0,0,1180.154,469.7Z" transform="translate(127 117)" fill="#754c29" fill-rule="evenodd"/>
    <path id="Path_470" data-name="Path 470" d="M1143.8,643.382c-26.24,3.18-36.122.568-37.258.568-16.925.114-22.264,5.793-41.915,1.477-8.974-1.931-24.309,1.022-34.191-.227-8.86-1.136,15.335-17.72,22.15-21.923,7.27-4.43,15.335-13.972,22.6-18.4a30.627,30.627,0,0,1,5-2.726,14.449,14.449,0,0,1,5.793-1.363h.568c3.067.227,6.02,1.7,8.747,3.181,7.5,3.976,14.88,7.951,22.378,11.927,3.976,2.045,7.951,4.317,10.9,7.611,2.272,2.5,3.748,5.566,6.361,7.724,2.385,1.931,5.453,2.84,7.611,5C1144.826,638.27,1146.758,643.041,1143.8,643.382Z" transform="translate(127 117)" fill="#322b27" fill-rule="evenodd"/>
  </g>
</svg>
