<svg xmlns="http://www.w3.org/2000/svg" width="884" height="722.785" viewBox="0 0 884 722.785">
  <g id="Group_12" data-name="Group 12" transform="translate(-648 -53.142)">
    <g id="Group_8" data-name="Group 8" transform="translate(-306.946 -360.147)">
      <path id="Path_208" data-name="Path 208" d="M606.65,287.756c18.161-17.171,38.957-33.979,48.752-66.318,2.07-6.788,11.4-64.051-43.564-41.9-30.093,12.147-42.057,34.559-61.993,61.243-17.88,23.947-38.422,62.164-39.937,95.307C527.012,310.1,588.481,304.8,606.65,287.756Z" transform="translate(940.576 308.807)" fill="#3fbc96" fill-rule="evenodd"/>
      <path id="Path_209" data-name="Path 209" d="M303.857,532.984q.2.2,2.347,1.565c.782.522,1.7,1.174,2.869,1.956.522.391,1.174.783,1.826,1.174a18.281,18.281,0,0,1,2.086,1.3c1.565.913,3.26,1.956,5.085,3,1.956,1.043,4.042,2.086,6.259,3.26,4.564,2.217,9.78,4.694,15.648,6.911a180.3,180.3,0,0,0,43.552,10.693,196.454,196.454,0,0,0,26.6,1.043,181.477,181.477,0,0,0,28.427-3.39c9.519-1.956,18.516-4.3,27.122-5.868a139.6,139.6,0,0,1,25.166-1.826,213.2,213.2,0,0,1,23.08,1.7c.782.13,1.565.261,2.217.391,13.17,3.781,26.6,7.3,39.25,12.257a114.327,114.327,0,0,1,18.777,9.258c2.869,1.825,5.607,3.781,8.215,5.737a70.288,70.288,0,0,1,7.3,6.52,77.709,77.709,0,0,1,6.129,7.172,52.848,52.848,0,0,1,4.694,7.693,63.314,63.314,0,0,1,3.26,8.215,65.213,65.213,0,0,1,1.956,8.737A105.848,105.848,0,0,1,606.9,638.6c0,6.129-.261,12.127-.522,18.125q-.587,11.344-.782,21.906a26.535,26.535,0,0,0-2.869-1.173c-2.217-.782-4.042-1.434-6.129-2.217s-4.173-1.434-6.259-2.086a134.518,134.518,0,0,0-13.431-3.782,90.205,90.205,0,0,0-15-2.217c-2.608-.13-5.346-.13-7.954,0a71.531,71.531,0,0,0-7.824.913c-5.085.782-10.04,1.826-14.735,2.608a58.967,58.967,0,0,1-13.431.782,60.791,60.791,0,0,1-12.779-2.086,59.669,59.669,0,0,1-11.605-4.564,64.8,64.8,0,0,1-10.432-6.781c-3.39-2.478-6.65-5.216-10.041-7.824-1.7-1.3-3.39-2.608-5.085-3.782-1.826-1.173-3.521-2.347-5.216-3.39a95.036,95.036,0,0,0-20.472-9.519,101.537,101.537,0,0,0-17.995-4.3c-2.608-.391-5.216-.652-7.433-.782a52.131,52.131,0,0,0-6.259-.13h-2.608c-.782,0-1.565.13-2.347.13-1.434.13-2.608.13-3.651.261a25.4,25.4,0,0,1-3,.261s1.043.13,3,.261c.913.13,2.217.261,3.521.391a11.491,11.491,0,0,0,2.217.261,23.035,23.035,0,0,1,2.608.521c1.826.261,3.781.782,6,1.3s4.433,1.174,6.911,1.956a110.382,110.382,0,0,1,16.169,6.52,105.8,105.8,0,0,1,17.6,11.084,77.05,77.05,0,0,1,8.736,7.563c3,2.738,6,5.737,9.519,8.867a81.76,81.76,0,0,0,11.605,8.736,63.853,63.853,0,0,0,14.213,6.39,71.49,71.49,0,0,0,15.908,3,76.34,76.34,0,0,0,16.43-.782c5.346-.782,10.171-1.956,14.735-2.738a64.655,64.655,0,0,1,13.04-1.174h1.956a61.679,61.679,0,0,1,7.042,3.651,69.128,69.128,0,0,1,12.648,9.258c.391.261.652.652,1.043.913a12,12,0,0,0,2.478,3.26,9.252,9.252,0,0,0,1.826,1.3,59.368,59.368,0,0,1,6.259,8.476c3.26,5.216,5.737,11.345,8.215,17.212.391,1.043.782,1.956,1.174,2.869-.522,6.781-1.043,13.561-1.7,19.951a108.587,108.587,0,0,1-3.13,18.256,58.17,58.17,0,0,1-6.65,15,69.244,69.244,0,0,1-9.128,11.475c-1.3,1.434-2.738,2.869-4.042,4.042h75.63a86.387,86.387,0,0,1-7.172-17.212,89.537,89.537,0,0,1-3.13-16.43c-.652-5.868-.913-12-1.3-18.386-.522-10.562-1.174-20.6-1.826-29.991-.391-8.867-.652-17.864-1.043-27.122-.391-11.736-.522-23.211-.522-34.164.261-6.129.652-12.388,1.173-18.647.652-6.52,1.174-13.04,2.217-19.82.391-3.39,1.043-6.65,1.565-10.041.261-1.7.652-3.39.913-5.085s.652-3.391,1.043-5.086l1.174-5.085c.391-1.7.913-3.39,1.3-5.086.782-3.39,1.956-6.781,2.869-10.171.522-1.7,1.173-3.39,1.7-5.085l.913-2.478.913-2.477c.652-1.7,1.3-3.39,1.956-4.955.652-1.7,1.434-3.26,2.086-4.955s1.565-3.26,2.347-4.825,1.565-3.26,2.347-4.825,1.7-3.13,2.478-4.694c.913-1.434,1.825-3,2.738-4.434.521-.782.913-1.565,1.3-2.217l1.434-2.086c1.043-1.434,1.956-2.869,2.869-4.173a96.715,96.715,0,0,1,6.259-7.824A108.4,108.4,0,0,1,736.644,485a45.42,45.42,0,0,1,9.91,5.216c4.694,3,9.389,6.781,14.865,10.3a93.555,93.555,0,0,0,16.952,8.476,98.063,98.063,0,0,0,16.952,4.825c1.434.261,2.738.521,4.042.652s2.738.261,4.042.522c1.3.13,2.608.261,3.912.261,1.3.13,2.477.13,3.781.261a112.107,112.107,0,0,0,13.692-.652c2.086-.261,4.042-.522,5.868-.913s3.521-.652,5.216-1.043c1.565-.391,3.13-.782,4.434-1.174s2.608-.782,3.651-1.174,2.086-.652,2.869-1.043c.782-.261,1.565-.652,2.086-.782,1.043-.391,1.565-.652,1.7-.652-.13,0-.782.13-1.826.261-.652.13-1.3.261-2.217.391s-1.826.261-3,.391a100.293,100.293,0,0,1-19.038.783,118.61,118.61,0,0,1-12.909-1.174,113096.2,113096.2,0,0,1-7.041-1.3c-1.174-.261-2.477-.522-3.651-.782s-2.477-.652-3.651-1.043a107.558,107.558,0,0,1-15.256-5.477,114.669,114.669,0,0,1-15.257-8.085c-4.955-3.13-9.91-6.911-15.256-10.04a.455.455,0,0,0-.261-.13c8.345-1.043,16.821-1.434,24.775-2.738a79.637,79.637,0,0,0,14.6-3.912c1.043-.391,1.956-.782,2.869-1.174h.261c10.3-2.869,20.733-8.345,30.513-15.387,4.955-3.521,9.389-7.172,13.692-10.693,4.3-3.651,8.215-7.172,12-10.562A187.321,187.321,0,0,0,869,417.713a107.062,107.062,0,0,0,10.432-15.256c.521-.913.913-1.826,1.3-2.608s.652-1.434.913-1.956a13.562,13.562,0,0,0,.652-1.565c-.13.13-.391.522-1.043,1.3-.391.391-.782,1.043-1.3,1.7s-1.173,1.3-1.825,2.217a125.162,125.162,0,0,1-12.648,12.779c-5.607,5.086-12.779,10.562-20.733,16.691-8.084,6.129-16.821,13.04-26.079,19.69s-18.516,12.127-27.514,15.517a74.2,74.2,0,0,1-7.042,2.347,69.288,69.288,0,0,1-9.258,1.043c-4.694.261-9.78.13-15.387,0a165.2,165.2,0,0,0-17.734.391c-3.651.391-7.563.913-11.344,1.7a191.46,191.46,0,0,0,15.908-12.127,92.863,92.863,0,0,0,13.822-14.6,58.658,58.658,0,0,0,10.04-19.951c.261-.913.522-1.826.782-2.869.13-.913.391-1.956.522-2.869a42.969,42.969,0,0,0,.652-5.737,95.211,95.211,0,0,0-.261-10.693c-.391-6.781-.913-12.909-.13-18.386a46.775,46.775,0,0,1,4.694-15.517,55.488,55.488,0,0,1,7.824-12.127,66.231,66.231,0,0,1,16.169-14.083c1.174-.652,2.086-1.174,3-1.7s1.7-.782,2.217-1.173a20.3,20.3,0,0,1,1.826-.913c-.13,0-.782.261-1.956.522a16.939,16.939,0,0,0-2.478.782c-.913.391-2.086.782-3.26,1.173-1.174.522-2.478,1.174-4.042,1.826-1.434.782-3,1.565-4.564,2.477a63.3,63.3,0,0,0-10.3,7.824,57.149,57.149,0,0,0-10.171,12.257,54.284,54.284,0,0,0-6.911,17.343c-1.434,6.65-1.174,13.561-1.043,20.081a81.608,81.608,0,0,1-.13,9.78c-.13,1.565-.261,3.129-.522,4.694l-.391,2.347a15.784,15.784,0,0,1-.652,2.347,55.888,55.888,0,0,1-8.215,17.082,103.788,103.788,0,0,1-12,13.953c-8.476,8.476-17.082,15.387-24.124,21.516-.13.13-.391.261-.522.391a118.478,118.478,0,0,0-12.779,5.085,116.033,116.033,0,0,0-28.166,18.647c.261-2.608.391-5.216.521-7.824a96.828,96.828,0,0,0-4.433-31.817,117.876,117.876,0,0,0-13.3-27.644,181.515,181.515,0,0,0-14.344-19.038c-.391-.652-.652-1.434-1.043-2.086a66.048,66.048,0,0,1-5.477-19.56,69.937,69.937,0,0,1,7.954-41.6,34.76,34.76,0,0,1,2.869-4.694l1.565-2.217c.522-.782,1.174-1.434,1.7-2.086l1.7-2.086,1.826-1.956.913-.913c.261-.261.652-.782.782-.782a13.613,13.613,0,0,1,1.826-1.3c3-1.956,6.259-3.912,9.389-5.868,3.26-1.956,6.39-3.782,9.649-5.607,12.779-7.433,25.3-14.344,37.163-21.124,23.732-13.431,45.117-25.427,62.851-35.859,4.434-2.608,8.737-5.085,12.649-7.563a105.054,105.054,0,0,0,10.823-7.693,84.478,84.478,0,0,0,14.865-15.256,56.44,56.44,0,0,0,6.781-11.475,33.09,33.09,0,0,0,1.3-3.26,3.527,3.527,0,0,0,.391-1.043,7.272,7.272,0,0,0-.522,1.043c-.391.652-.782,1.7-1.565,3a61.834,61.834,0,0,1-7.693,10.693,83.573,83.573,0,0,1-15.517,13.692,121.791,121.791,0,0,1-10.953,6.781c-4.042,2.086-8.476,4.3-13.04,6.65-18.386,9.258-40.292,20.342-64.546,32.86-12.127,6.259-24.775,12.909-37.815,20.212-3.26,1.826-6.52,3.651-9.78,5.607s-6.65,3.782-10.04,6.129a25.5,25.5,0,0,0-2.869,2.086,9.83,9.83,0,0,0-1.174,1.173l-1.043,1.174-2.086,2.217-1.956,2.477c.13-5.737,0-11.605,0-17.343-.13-7.433-.261-14.735.261-21.385a84.016,84.016,0,0,1,19.69-48.116,91.276,91.276,0,0,1,16.691-15.648c1.174-.782,2.086-1.565,3-2.086s1.7-1.043,2.347-1.434a20.3,20.3,0,0,1,1.956-1.173s-.782.261-2.086.782c-.652.261-1.565.652-2.477,1.043a36.329,36.329,0,0,0-3.39,1.565,25.284,25.284,0,0,0-4.042,2.217,21.105,21.105,0,0,0-2.347,1.3c-.782.522-1.565,1.043-2.478,1.565a57.551,57.551,0,0,0-5.216,3.782c-.913.652-1.826,1.434-2.738,2.217s-1.826,1.565-2.738,2.477l-2.738,2.738c-.913,1.043-1.826,1.956-2.738,3s-1.825,2.217-2.738,3.26c-.391.522-.913,1.174-1.3,1.7-.391.652-.913,1.174-1.3,1.826a83.736,83.736,0,0,0-9.258,16.952,76.515,76.515,0,0,0-5.216,20.863,162.335,162.335,0,0,0-.782,22.559c.13,7.563.391,14.865.261,21.646a120.737,120.737,0,0,1-1.174,13.952,79.443,79.443,0,0,0-4.955,39.51v3l-5.085-5.477c-5.737-6.129-11.084-12.257-16.039-18.256a169.217,169.217,0,0,1-13.04-18.386,190.781,190.781,0,0,1-17.6-36.641,185.363,185.363,0,0,1-8.345-32.99c-.782-4.955-1.3-9.649-1.956-14.083-.522-4.3-1.173-8.346-1.826-12-.782-3.782-1.565-7.172-2.347-9.91a91.182,91.182,0,0,0-12.648-28.426,49.817,49.817,0,0,0-3.26-4.434c-.652-.913-1.043-1.434-1.174-1.434.13.13.391.652,1.043,1.565q.978,1.565,2.738,4.694a95.527,95.527,0,0,1,7.693,18.516,92.9,92.9,0,0,1,3,13.431,145.635,145.635,0,0,1,1.3,15.778c.261,5.607.261,11.605.913,17.864.13,1.565.261,3.129.521,4.694.13,1.565.391,3.13.652,4.825.13.913.261,1.826.391,2.608A163.461,163.461,0,0,0,567,319.133a173.654,173.654,0,0,0,6.259,19.951,156.875,156.875,0,0,0-15.126-12,168.594,168.594,0,0,0-34.816-17.864c-12.388-4.825-24.645-8.215-36.511-11.475-11.736-3.13-23.08-6.129-33.512-9.128-20.994-6.129-38.989-14.213-52.68-23.341s-22.819-19.3-28.035-26.992a65.116,65.116,0,0,1-5.346-9.389c-.913-1.956-1.565-3.129-1.7-3.39.13.261.391,1.565,1.043,3.651a64.213,64.213,0,0,0,4.042,10.3c.522,1.043,1.174,2.217,1.826,3.39.261.652.652,1.174.913,1.826.391.652.782,1.174,1.173,1.826.782,1.3,1.565,2.477,2.478,3.912.913,1.3,1.956,2.608,3,4.042a102.813,102.813,0,0,0,16.3,16.821c13.431,11.084,31.686,21.385,53.2,29.209,10.693,3.912,22.037,7.3,33.512,10.953,11.605,3.521,23.471,7.172,35.077,11.736a173.5,173.5,0,0,1,32.338,15.908,211.835,211.835,0,0,1,26.6,20.994c4.042,3.781,7.954,7.433,11.866,10.953,1.956,3.26,4.173,6.52,6.39,9.649,4.825,6.781,10.171,13.431,15.517,20.081,10.953,13.17,22.689,26.34,31.686,41.075a96.919,96.919,0,0,1,10.693,23.341,82.449,82.449,0,0,1-1.3,50.985c-.652,2.086-1.565,4.042-2.347,6-.913,1.956-1.826,4.042-2.738,6-1.956,3.912-4.042,7.954-6.389,11.866-4.433,7.824-9.258,15.778-13.431,24.123-2.086,4.173-4.042,8.476-5.737,12.779-.391,1.043-.782,2.217-1.174,3.26-.391,1.174-.782,2.217-1.174,3.39-.652,2.217-1.3,4.433-1.826,6.65L615.9,595.7a78.789,78.789,0,0,0-5.607-10.3,105.5,105.5,0,0,0-7.432-9.649,90.789,90.789,0,0,0-8.867-8.476,92.475,92.475,0,0,0-9.91-7.3,127.94,127.94,0,0,0-21.907-11.084c-6.129-2.347-12.127-4.433-18.125-6.129a29.44,29.44,0,0,1-3.521-9.649,36.379,36.379,0,0,1,.522-15,56.662,56.662,0,0,1,5.085-13.822,92.019,92.019,0,0,1,14.735-21.255,93.864,93.864,0,0,1,13.3-11.866c1.7-1.3,3.129-2.217,4.042-2.869a9.29,9.29,0,0,1,1.434-.913c-.13,0-.652.261-1.565.522-1.043.391-2.608,1.043-4.564,1.826a78.268,78.268,0,0,0-15.778,9.519,79.358,79.358,0,0,0-18.647,20.733,33.509,33.509,0,0,0-2.347,4.3,211.866,211.866,0,0,0,1.174-27.9,181.174,181.174,0,0,0-3-29.209,123.816,123.816,0,0,0-6.781-23.211,82.34,82.34,0,0,0-7.433-14.344c-1.043-1.7-1.956-2.869-2.478-3.651-.522-.652-.782-1.174-.913-1.174,0,.13.261.652.522,1.434.261.913.913,2.217,1.434,4.042,1.174,3.521,2.738,8.737,4.173,15.126a214.933,214.933,0,0,1,3.39,22.819c.782,8.606,1.174,18.255,1.434,28.3s.261,19.69.261,28.557c0,5.346-.13,10.3-.261,15v.13a25,25,0,0,0-2.347,5.607,22.138,22.138,0,0,0-.652,7.3,17.879,17.879,0,0,0,1.043,4.564c-2.608-.652-5.346-1.3-7.954-1.956-14.083-3.39-27.514-6.781-40.032-10.432-6.259-1.826-12.388-3.651-18.256-5.738-2.869-.913-5.737-2.086-8.606-3-2.738-1.043-5.607-2.086-8.215-3.26-5.346-2.086-10.432-4.564-15.256-6.911s-9.258-4.955-13.3-7.432a133.471,133.471,0,0,1-11.344-8.085,97.114,97.114,0,0,1-9.258-8.345,72.507,72.507,0,0,1-12-15.908c-.391-.652-.652-1.174-1.043-1.826-.261-.522-.522-1.174-.782-1.7-.522-1.173-1.043-2.217-1.434-3.129-.782-1.956-1.434-3.781-1.825-5.085-.783-2.869-1.174-4.434-1.174-4.434s.13,1.565.391,4.564c.13,1.434.652,3.26,1.043,5.477.261,1.043.652,2.217.913,3.521a10.87,10.87,0,0,0,.522,1.956l.782,1.956a74.631,74.631,0,0,0,10.171,18.647,99.108,99.108,0,0,0,8.606,10.171,117.853,117.853,0,0,0,10.953,10.041,159.342,159.342,0,0,0,13.3,9.649c4.825,3,9.91,6.129,15.256,8.867,2.738,1.434,5.477,2.738,8.346,4.173,2.869,1.3,5.737,2.738,8.736,3.912,6,2.608,12.127,5.085,18.516,7.3,2.738.913,5.477,1.956,8.215,2.869a126.791,126.791,0,0,0-17.082,1.173c-9.258,1.3-18.516,3.651-27.644,5.477a222.828,222.828,0,0,1-26.992,3.651,207.33,207.33,0,0,1-68.2-7.172q-9-2.543-16.039-5.086c-2.347-.913-4.434-1.7-6.52-2.478-1.956-.782-3.782-1.565-5.346-2.347a17.414,17.414,0,0,0-2.347-.913,13.154,13.154,0,0,0-1.956-.913c-1.173-.522-2.217-1.043-3.129-1.434A4.751,4.751,0,0,1,303.857,532.984Zm300.043,157a19.3,19.3,0,0,1,1.695,1.043c0,2.347,0,4.694.131,6.911a40.7,40.7,0,0,0-7.042-7.824A9.672,9.672,0,0,0,596.6,687.5l2.738.782A22.526,22.526,0,0,1,603.9,689.981Z" transform="translate(778.568 339.298)" fill="#bfbfbf" fill-rule="evenodd"/>
      <path id="Path_210" data-name="Path 210" d="M598.525,323.238c16.039-19.168,31.556-40.945,63.242-52.68,6.65-2.477,63.242-15.256,44.465,40.945-10.3,30.774-31.947,44.074-57.374,65.59-22.82,19.3-59.722,42.118-92.712,45.639C581.052,404.084,582.617,342.406,598.525,323.238Z" transform="translate(976.93 382.006)" fill="#40c2d2" fill-rule="evenodd"/>
      <path id="Path_211" data-name="Path 211" d="M451.28,323.689c-18.125-29.078-52.811-46.943-86.974-48.638-7.041-.391-14.735.261-19.951,5.085-2.608,2.478-4.3,5.868-5.737,9.258-10.953,26.21-2.738,55.158,8.345,81.237,25.427,60.113,113.575,71.979,138.351,98.71C487.269,471.3,498.614,399.58,451.28,323.689Z" transform="translate(801.835 387.813)" fill="#a5c44b" fill-rule="evenodd"/>
      <path id="Path_212" data-name="Path 212" d="M523.855,380.1c-4.846-12.777-12.63-24.379-16.449-37.45-5.581-19.092-3.818-63.151,35.541-70.2,12.043-2.2,24.526,3.965,31.429,14.1s8.959,22.764,9.693,34.954c2.2,37.3-8.518,77.1-35.982,102.364-3.818,3.525-8.665,8.665-13.071,10.868C538.688,413.435,527.086,388.908,523.855,380.1Z" transform="translate(936.772 385.489)" fill="#40c2d2" fill-rule="evenodd"/>
      <path id="Path_214" data-name="Path 214" d="M441.312,374.737c-3.13-9.78-8.737-18.907-11.214-28.818-3.651-14.6-.522-47.856,29.861-51.637,9.258-1.174,18.647,3.912,23.471,11.736s6,17.473,6.129,26.731c.261,28.3-9.389,57.9-31.425,75.891-3.13,2.478-6.911,6.259-10.432,7.693C446.919,396.122,443.529,381.387,441.312,374.737Z" transform="translate(876.87 402.876)" fill="#a5c44b" fill-rule="evenodd"/>
      <path id="Path_215" data-name="Path 215" d="M407.176,320.561c-8.085-7.041-19.951-27.514-3.781-42.249a17.7,17.7,0,0,1,18.516-2.738c6.129,2.608,10.692,7.693,14.474,13.04,11.736,16.3,11.345,63.5,9.91,65.72C437.559,342.989,412.784,325.386,407.176,320.561Z" transform="translate(850.502 387.16)" fill="#a5c44b" fill-rule="evenodd"/>
      <path id="Path_216" data-name="Path 216" d="M522.052,201.231c4.173-9.78,20.211-27.383,39.119-16.43a17.632,17.632,0,0,1,8.215,16.821c-.652,6.65-4.042,12.518-7.954,17.734-12,16.169-56.983,30.122-59.591,29.339C510.056,236.96,519.184,207.882,522.052,201.231Z" transform="translate(934.233 314.2)" fill="#3fbc96" fill-rule="evenodd"/>
      <path id="Path_218" data-name="Path 218" d="M639.148,356.857c12.441-8.416,44.64-17.014,58.544,10.062,4.208,8.233,2.744,18.844-2.927,26.162s-14.27,11.709-22.869,15c-26.345,10.062-90.194-7.5-92.755-10.245C597.8,389.971,630.55,362.529,639.148,356.857Z" transform="translate(995.01 427.715)" fill="#40c2d2" fill-rule="evenodd"/>
      <path id="Path_219" data-name="Path 219" d="M568.83,426.967c12.649-1.826,37.815-14.865,31.034-40.032-2.086-7.693-9-13.431-16.821-14.735s-15.648.782-22.95,3.782c-22.3,8.867-52.419,56.462-52.419,59.722C523.843,429.836,560.093,428.141,568.83,426.967Z" transform="translate(938.819 463.961)" fill="#40c2d2" fill-rule="evenodd"/>
      <path id="Path_220" data-name="Path 220" d="M609.206,296.728c12.649-1.826,37.815-14.865,31.035-40.032-2.086-7.693-9-13.431-16.821-14.735s-15.648.782-22.95,3.782c-22.3,8.867-52.42,56.462-52.42,59.722C564.219,299.6,600.47,298.032,609.206,296.728Z" transform="translate(970.565 361.56)" fill="#3fbc96" fill-rule="evenodd"/>
      <path id="Path_221" data-name="Path 221" d="M475.461,344.379c-3.912-9.649-6.389-19.82-8.737-29.991-7.041-29.078-14.213-58.939-10.692-88.8,1.3-10.953,4.955-22.037,12.909-29.73,10.171-10.041,35.989-20.863,47.464-3,7.041,10.953,11.084,23.732,10.171,36.772s-4.955,25.558-8.737,37.945c-12.257,41.075-19.3,63.112-18.647,123.355C485.5,370.719,479.112,353.246,475.461,344.379Z" transform="translate(897.488 315.748)" fill="#7ec564" fill-rule="evenodd"/>
      <path id="Path_222" data-name="Path 222" d="M492.968,258.456c-28.948-47.595-73.674-60.634-87.757-63.373-47.725-9-73.674,43.944-21.124,73.283,18.255,10.171,39.9,11.475,60.113,16.56,27.122,6.781,47.725,17.864,65.068,39.249C512.4,313.614,500.792,271.365,492.968,258.456Z" transform="translate(818.825 324.215)" fill="#7ec564" fill-rule="evenodd"/>
      <path id="Path_223" data-name="Path 223" d="M494.551,211.887c-24.8-51.9-69.4-70.028-83.576-74.2-48.145-14.172-80.033,37.515-29.179,73.155,17.715,12.3,39.808,15.84,60.024,23.135,27.094,9.8,47.1,23.343,62.734,46.894C508.932,270.452,501.429,225.851,494.551,211.887Z" transform="translate(819.52 278)" fill="#7ec564" fill-rule="evenodd"/>
      <path id="Path_224" data-name="Path 224" d="M459.839,382.366c2.086-10.3,4.955-20.733,12-28.557,7.041-7.693,18.908-11.866,28.3-7.3,6.129,3,10.171,9.128,12.127,15.778,1.956,6.52,1.956,13.431,1.565,20.342a260.029,260.029,0,0,1-12.909,70.545c-3,9.128-7.172,23.862-7.172,23.862S452.145,419.66,459.839,382.366Z" transform="translate(900.462 442.581)" fill="#a5c44b" fill-rule="evenodd"/>
      <path id="Path_225" data-name="Path 225" d="M423.283,412.138c-16.3-2.086-26.862,1.956-30.643,4.825-30.122,22.559,6.911,55.419,13.952,59.722,23.471,14.474,52.028,14.213,79.02,17.212,36.12,4.042,52.289,11.214,52.289,11.214S533.729,426.612,423.283,412.138Z" transform="translate(839.221 495.22)" fill="#a5c44b" fill-rule="evenodd"/>
      <path id="Path_226" data-name="Path 226" d="M365.742,357.52c-6.911-13.692-19.559-23.993-33.773-29.47C292.2,312.664,238.345,379.3,318.539,429.5c34.294,21.385,75.76,30.513,115.923,27.9a139.162,139.162,0,0,0,31.817-5.477C442.155,446.059,387.127,399.247,365.742,357.52Z" transform="translate(757.497 427.787)" fill="#a5c44b" fill-rule="evenodd"/>
      <path id="Path_227" data-name="Path 227" d="M587.844,199.352l33.441-33.441" transform="translate(1001.853 302.077)" fill="rgba(0,0,0,0)" fill-rule="evenodd"/>
      <path id="Path_228" data-name="Path 228" d="M595.884,184.99l19.079-19.079" transform="translate(1008.174 302.077)" fill="none" stroke="#3fbc96" stroke-miterlimit="800" stroke-width="3" fill-rule="evenodd"/>
      <path id="Path_229" data-name="Path 229" d="M590.041,190.2a8.815,8.815,0,1,1,12.466,0A8.815,8.815,0,0,1,590.041,190.2Z" transform="translate(1001.55 309.338)" fill="#3fbc96" stroke="#3fbc96" stroke-miterlimit="10" stroke-width="3"/>
      <path id="Path_230" data-name="Path 230" d="M605.93,166.286h73.122" transform="translate(1016.073 302.371)" fill="rgba(0,0,0,0)" fill-rule="evenodd"/>
      <path id="Path_231" data-name="Path 231" d="M605.93,166.286h52.812" transform="translate(1016.073 302.371)" fill="none" stroke="#3fbc96" stroke-miterlimit="800" stroke-width="3" fill-rule="evenodd"/>
      <path id="Path_232" data-name="Path 232" d="M653.126,170.166a8.815,8.815,0,1,1-8.815-8.815A8.815,8.815,0,0,1,653.126,170.166Z" transform="translate(1039.319 298.491)" fill="#3fbc96" stroke="#3fbc96" stroke-miterlimit="10" stroke-width="3"/>
      <path id="Path_233" data-name="Path 233" d="M299,363.3l-35.289,35.289" transform="translate(747 457.27)" fill="rgba(0,0,0,0)" fill-rule="evenodd"/>
      <path id="Path_234" data-name="Path 234" d="M284.635,371.335l-20.928,20.928" transform="translate(747 463.591)" fill="none" stroke="#a5c44b" stroke-miterlimit="800" stroke-width="3" fill-rule="evenodd"/>
      <path id="Path_235" data-name="Path 235" d="M289.026,365.492a8.815,8.815,0,1,1-12.466,0A8.815,8.815,0,0,1,289.026,365.492Z" transform="translate(755.075 456.967)" fill="#a5c44b" stroke="#a5c44b" stroke-miterlimit="10" stroke-width="3"/>
      <path id="Path_239" data-name="Path 239" d="M393.411,237.509l-52.794-52.794" transform="translate(807.471 316.862)" fill="rgba(0,0,0,0)" fill-rule="evenodd"/>
      <path id="Path_240" data-name="Path 240" d="M379.05,223.148l-38.433-38.433" transform="translate(807.471 316.862)" fill="none" stroke="#7ec564" stroke-miterlimit="800" stroke-width="3" fill-rule="evenodd"/>
      <path id="Path_241" data-name="Path 241" d="M375.737,219.834a8.815,8.815,0,1,1,0-12.466A8.815,8.815,0,0,1,375.737,219.834Z" transform="translate(823.252 332.642)" fill="#7ec564" stroke="#7ec564" stroke-miterlimit="10" stroke-width="3"/>
      <path id="Path_242" data-name="Path 242" d="M374.816,185.091h-76.25" transform="translate(774.408 317.157)" fill="rgba(0,0,0,0)" fill-rule="evenodd"/>
      <path id="Path_243" data-name="Path 243" d="M365.876,185.091H309.936" transform="translate(783.347 317.157)" fill="none" stroke="#7ec564" stroke-miterlimit="800" stroke-width="3" fill-rule="evenodd"/>
      <path id="Path_244" data-name="Path 244" d="M300.066,188.971a8.815,8.815,0,1,1,8.815,8.815A8.815,8.815,0,0,1,300.066,188.971Z" transform="translate(775.587 313.276)" fill="#7ec564" stroke="#7ec564" stroke-miterlimit="10" stroke-width="3"/>
      <path id="Path_245" data-name="Path 245" d="M631.442,298.33,665.1,331.986" transform="translate(1036.131 406.191)" fill="rgba(0,0,0,0)" fill-rule="evenodd"/>
      <path id="Path_246" data-name="Path 246" d="M639.482,306.37l19.295,19.295" transform="translate(1042.453 412.512)" fill="none" stroke="#40c2d2" stroke-miterlimit="800" stroke-width="3" fill-rule="evenodd"/>
      <path id="Path_247" data-name="Path 247" d="M633.639,300.527a8.815,8.815,0,1,1,0,12.466A8.815,8.815,0,0,1,633.639,300.527Z" transform="translate(1035.829 405.889)" fill="#40c2d2" stroke="#40c2d2" stroke-miterlimit="10" stroke-width="3"/>
    </g>
    <text id="Income_Generation" data-name="Income
Generation" transform="translate(704 515)" fill="#1c1c1c" font-size="20" font-family="Rubik-Bold, Rubik" font-weight="700"><tspan x="-36.78" y="0">Income</tspan><tspan x="-55.89" y="24">Generation</tspan></text>
    <text id="Environment" transform="translate(1467 394)" fill="#1c1c1c" font-size="20" font-family="Rubik-Bold, Rubik" font-weight="700"><tspan x="-64.63" y="0">Environment</tspan></text>
    <text id="Employment_Generation" data-name="Employment
Generation" transform="translate(941.5 204.67) rotate(30)" fill="#fff" font-size="18" font-family="Rubik-Bold, Rubik" font-weight="700"><tspan x="-56.439" y="0">Employment</tspan><tspan x="-50.301" y="22">Generation</tspan></text>
    <text id="Public_Infrastructure" data-name="Public
Infrastructure" transform="translate(1450 118)" fill="#1c1c1c" font-size="20" font-family="Rubik-Bold, Rubik" font-weight="700"><tspan x="-31.1" y="0">Public</tspan><tspan x="-72.92" y="24">Infrastructure</tspan></text>
    <text id="Climate_Change" data-name="Climate Change" transform="translate(1311.243 367.243) rotate(-45)" fill="#fff" font-size="18" font-family="Rubik-Bold, Rubik" font-weight="700"><tspan x="-70.767" y="0">Climate Change</tspan></text>
    <text id="Bio-Diversity" transform="translate(1182 370) rotate(-90)" fill="#fff" font-size="18" font-family="Rubik-Bold, Rubik" font-weight="700"><tspan x="-59.427" y="0">Bio-Diversity</tspan></text>
    <text id="Oxygen" transform="matrix(0.966, -0.259, 0.259, 0.966, 1342.553, 453.796)" fill="#fff" font-size="18" font-family="Rubik-Bold, Rubik" font-weight="700"><tspan x="-33.696" y="0">Oxygen</tspan></text>
    <text id="Trees" transform="translate(1197 513.196) rotate(-30)" fill="#fff" font-size="18" font-family="Rubik-Bold, Rubik" font-weight="700"><tspan x="-24.912" y="0">Trees</tspan></text>
    <text id="Mass_Tree_Plantation" data-name="Mass Tree
Plantation" transform="matrix(0.94, 0.342, -0.342, 0.94, 984.71, 583.302)" fill="#fff" font-size="18" font-family="Rubik-Bold, Rubik" font-weight="700"><tspan x="-44.361" y="0">Mass Tree</tspan><tspan x="-47.241" y="22">Plantation</tspan></text>
    <text id="Reverse_Migration" data-name="Reverse
Migration" transform="translate(712 142)" fill="#1c1c1c" font-size="20" font-family="Rubik-Bold, Rubik" font-weight="700"><tspan x="-40.28" y="0">Reverse</tspan><tspan x="-47.86" y="24">Migration</tspan></text>
    <text id="Healthcare" transform="translate(1228.743 200.716) rotate(-45)" fill="#fff" font-size="18" font-family="Rubik-Bold, Rubik" font-weight="700"><tspan x="-49.995" y="0">Healthcare</tspan></text>
    <text id="Skill_Development" data-name="Skill
Development" transform="translate(944.5 100.67) rotate(30)" fill="#fff" font-size="18" font-family="Rubik-Bold, Rubik" font-weight="700"><tspan x="-18.954" y="0">Skill</tspan><tspan x="-59.409" y="22">Development</tspan></text>
    <text id="Smart_Villages" data-name="Smart Villages" transform="translate(1084 219) rotate(-90)" fill="#fff" font-size="18" font-family="Rubik-Bold, Rubik" font-weight="700"><tspan x="-64.791" y="0">Smart Villages</tspan></text>
    <text id="Capacity_building" data-name="Capacity
building" transform="matrix(0.174, 0.985, -0.985, 0.174, 1033.939, 384.305)" fill="#fff" font-size="16" font-family="Rubik-Bold, Rubik" font-weight="700"><tspan x="-35.624" y="0">Capacity</tspan><tspan x="-32.304" y="19">building</tspan></text>
    <text id="Livelihood" transform="matrix(0.819, 0.574, -0.574, 0.819, 798.541, 472.107)" fill="#fff" font-size="22" font-family="Rubik-Bold, Rubik" font-weight="700" letter-spacing="0.034em"><tspan x="-59.763" y="0">Livelihood</tspan></text>
    <text id="Independent_Villages" data-name="Independent
Villages" transform="translate(905.669 387.964) rotate(45)" fill="#fff" font-size="20" font-family="Rubik-Bold, Rubik" font-weight="700"><tspan x="-63.89" y="0">Independent</tspan><tspan x="-39.22" y="24">Villages</tspan></text>
    <text id="Horticulture" transform="translate(1077.052 486.853) rotate(83)" fill="#fff" font-size="16" font-family="Rubik-Bold, Rubik" font-weight="700"><tspan x="-49.848" y="0">Horticulture</tspan></text>
    <text id="Banks" transform="translate(1271.5 277.062) rotate(-30)" fill="#fff" font-size="20" font-family="Rubik-Bold, Rubik" font-weight="700"><tspan x="-30.64" y="0">Banks</tspan></text>
    <text id="Livelihood-2" data-name="Livelihood" transform="translate(963.482 337.863) rotate(60)" fill="#fff" font-size="12" font-family="Rubik-Bold, Rubik" font-weight="700"><tspan x="-30.762" y="0">Livelihood</tspan></text>
    <text id="Roads" transform="translate(1169.95 170.95) rotate(-45)" fill="#fff" font-size="18" font-family="Rubik-Bold, Rubik" font-weight="700"><tspan x="-27.621" y="0">Roads</tspan></text>
  </g>
</svg>
